<?xml version="1.0" standalone="no"?>
<!DOCTYPE svg PUBLIC "-//W3C//DTD SVG 1.1//EN" "http://www.w3.org/Graphics/SVG/1.1/DTD/svg11.dtd" >
<svg xmlns="http://www.w3.org/2000/svg">
<metadata></metadata>
<defs>
<font id="mf_really_awesomeregular" horiz-adv-x="745" >
<font-face units-per-em="2048" ascent="1536" descent="-512" />
<missing-glyph horiz-adv-x="559" />
<glyph horiz-adv-x="0" />
<glyph horiz-adv-x="0" />
<glyph unicode="&#xd;" horiz-adv-x="559" />
<glyph unicode=" "  horiz-adv-x="559" />
<glyph unicode="&#x09;" horiz-adv-x="559" />
<glyph unicode="&#xa0;" horiz-adv-x="559" />
<glyph unicode="!" horiz-adv-x="231" d="M25 82q-2 16 0 39t16 43q23 27 57 26q35 0 50.5 -27.5t13.5 -61t-16.5 -63.5t-39.5 -36q-4 0 -8 -1t-8 -1q-45 0 -59 47q0 2 -2 11.5t-4 23.5zM35 1360q-8 25 5 47.5t38 28.5q4 2 16 2q20 0 36.5 -11.5t21.5 -33.5q20 -74 32.5 -170.5t17.5 -193.5t6 -181t1 -133 q0 -59 -3 -117.5t-9 -108.5q-2 -23 -4.5 -40t-6.5 -31q-4 -20 -10 -38t-24 -30q-23 -12 -47.5 -7t-38.5 28q-16 33 0 61q4 23 12 106t10 207q0 74 -3 162t-10 172t-17.5 159t-22.5 122z" />
<glyph unicode="&#x22;" horiz-adv-x="430" d="M37 1032q0 29 1 50.5t3 43t5 47t9 64.5q4 27 23.5 42t44.5 11q27 -4 42 -23.5t11 -43.5q-10 -84 -13 -142.5t-3 -104.5t4 -85t10 -82q2 -25 -13.5 -44.5t-41.5 -23.5q-25 -4 -44.5 12.5t-23.5 41.5q-6 53 -10 110t-4 127zM254 979q0 -29 1 -45t3 -31.5t5 -36t9 -59.5 q4 -27 23.5 -42t44.5 -11q27 4 42 23.5t11 43.5q-10 82 -13 136.5t-3 94.5t4 73.5t10 76.5q2 25 -13.5 44.5t-41.5 23.5q-25 4 -44.5 -12.5t-23.5 -40.5q-6 -53 -10 -110.5t-4 -127.5z" />
<glyph unicode="#" horiz-adv-x="923" d="M29 37.5q-9 23.5 0 46.5q37 113 69.5 219.5t63.5 216.5q-49 0 -80 6q-27 4 -42 23.5t-11 44.5q4 27 23.5 42t43.5 11q23 -4 47.5 -6t51.5 -4l59 215q-43 2 -82 5t-68 7q-27 4 -42 23.5t-11 44.5q4 27 23.5 42t44.5 11q74 -8 168 -12q55 205 125 430q8 25 30.5 37t46.5 4 q25 -8 37.5 -30.5t3.5 -47.5q-33 -106 -61.5 -203.5t-54.5 -193.5q59 0 118.5 1t112.5 3q55 205 125 430q8 25 30.5 37t47.5 4t37 -30.5t4 -47.5q-33 -102 -60.5 -197.5t-52.5 -187.5l58 6q25 2 44 -13.5t23 -41.5q4 -25 -12.5 -44.5t-40.5 -23.5q-20 -4 -47 -5t-60 -3 l-57 -209q41 4 72.5 6t54.5 6q25 2 47.5 -13t26.5 -42q4 -25 -12.5 -44t-41.5 -23q-33 -4 -81 -7.5t-101 -7.5q-35 -121 -70.5 -240.5t-76.5 -242.5q-6 -18 -23 -28.5t-35 -10.5q-10 0 -22 4q-25 10 -34 33.5t-1 46.5q37 113 69.5 219.5t63.5 216.5q-31 0 -94.5 -1 t-134.5 -1q-35 -121 -71 -238.5t-77 -240.5q-6 -18 -22.5 -28.5t-34.5 -10.5q-10 0 -23 4q-25 10 -34 33.5zM324 635q57 0 116.5 1t112.5 3q16 53 29.5 105.5t27.5 105.5h-88q-23 0 -59.5 -1t-81.5 1q-14 -55 -28.5 -108.5t-28.5 -106.5z" />
<glyph unicode="$" horiz-adv-x="749" d="M27 406q0 25 18 43t43 18q27 0 44.5 -18.5t17.5 -42.5q0 -127 48 -193t113 -84q-2 66 -3 143.5t-2 156.5t-2 152.5t-1 133.5q-53 43 -103 96t-85 127q-47 104 -47 199.5t53 167.5q70 100 196 110q0 16 5 37q4 27 23.5 42t43.5 11q27 -4 42 -23.5t11 -43.5 q-2 -10 -3 -19.5t-1 -19.5q66 -23 125 -72q90 -78 150 -215q10 -25 -0.5 -48.5t-32.5 -33.5q-23 -10 -46.5 0t-33.5 33q-63 152 -168 205q-4 -98 -5 -227.5t-1 -266.5l25 -18q47 -35 95 -73t85 -87q86 -111 86 -260q0 -152 -109 -250q-74 -66 -172 -82q2 -12 2 -21.5 t2 -15.5q2 -25 -13 -44t-42 -23q-25 -4 -44 12t-24 41q-2 6 -2 19.5t-2 29.5q-106 18 -180 96q-106 113 -106 308zM190.5 1126.5q2.5 -63.5 36.5 -135.5q31 -66 76 -110v80t1 102t3 114.5t4 112.5q-29 -4 -52.5 -19t-39.5 -38q-31 -43 -28.5 -106.5zM426 623 q0 -141 1 -271.5t5 -224.5q66 16 114 69.5t48 139.5q0 51 -12.5 92t-35 75t-53 62.5t-67.5 57.5z" />
<glyph unicode="%" horiz-adv-x="1212" d="M27 1130q-4 -72 14 -133t59 -102q61 -68 162 -68h10q123 4 197 103q59 82 59 196q0 115 -57 197q-68 98 -182 102h-10q-111 0 -185 -98q-29 -41 -46 -91t-21 -106zM150 1122q2 33 12 66t26.5 58.5t39 41t51.5 15.5h4q61 -2 92 -56.5t31 -120.5q0 -31 -7.5 -61.5t-24 -55 t-42 -41t-64.5 -18.5q-49 -4 -78 29q-23 23 -34 60.5t-6 82.5zM313 37.5q-10 23.5 0 46.5q119 297 231.5 619.5t227.5 699.5q8 25 30.5 37t47.5 4t37 -30.5t4 -47.5q-117 -379 -230.5 -702.5t-232.5 -624.5q-16 -39 -57 -39q-10 0 -23 4q-25 10 -35 33.5zM688 303 q-4 -72 14.5 -133t59.5 -102q61 -68 162 -68h10q123 4 196 102q59 82 60 197q0 115 -57 197q-68 98 -183 102h-10q-111 0 -184 -98q-29 -41 -46.5 -91.5t-21.5 -105.5zM811 295q2 33 12.5 65.5t26.5 58t38.5 41t51.5 15.5h4q61 -2 92 -56t31 -120q0 -31 -7 -61.5t-23.5 -55 t-42 -41t-64.5 -18.5q-49 -4 -78 29q-23 23 -34 60.5t-7 82.5z" />
<glyph unicode="&#x26;" horiz-adv-x="1136" d="M69.5 267q12.5 77 47.5 165t87 184.5t109 198.5l19 31q-33 117 -38 221t17 193q16 59 52 99t86 54q41 10 82.5 -1t70.5 -42q68 -70 35 -176q-25 -78 -71 -170t-101 -193q4 -6 8 -22q35 -92 84 -186.5t111 -182.5q4 10 10 17.5t10 17.5q51 80 93 160t72 144.5t46 104.5 t16 42q10 23 34 34t46 1q25 -10 35 -34t0 -46q-2 -4 -19.5 -46t-48 -109t-73.5 -149.5t-94 -166.5q-12 -18 -24.5 -37t-22.5 -35q98 -117 181 -171t130 -54q27 0 44 -17.5t17 -44.5q2 -25 -16.5 -43t-42.5 -18h-2q-100 0 -223 92q-78 59 -164 156q-66 -80 -127 -134 q-78 -66 -154 -90q-94 -29 -174 -2q-63 20 -93 54t-42 63q-25 61 -12.5 138zM197 174q4 -10 15 -22.5t42 -22.5q92 -30 211 70q31 27 62.5 60.5t64.5 76.5q-61 84 -113.5 174t-91.5 182q-43 -76 -82 -149.5t-67 -141.5q-66 -158 -41 -227zM422 1010q33 61 57.5 117.5 t38.5 103.5q12 37 -4 53q-10 10 -25 10h-10q-33 -8 -49 -65q-25 -92 -8 -219z" />
<glyph unicode="'" horiz-adv-x="200" d="M36 1111.5q-1 62.5 5 115.5q4 25 23.5 41t44.5 12q27 -4 42 -23.5t13 -44.5q-6 -43 -9 -78.5t-3 -77.5t4 -97.5t14 -137.5q4 -25 -11.5 -44t-41.5 -23q-25 -4 -44.5 11t-23.5 42q-6 39 -8 59.5t-3 36t-1 31.5v45q0 70 -1 132.5z" />
<glyph unicode="(" horiz-adv-x="544" d="M29 547q14 98 48 196.5t83 202t111.5 214t134.5 233.5q12 23 36.5 30t46.5 -8q23 -12 29 -36.5t-6 -47.5q-139 -238 -237.5 -431t-122.5 -372q-27 -178 34.5 -361t225.5 -407q14 -23 10 -46t-25 -40q-17 -12 -37 -12q-29 0 -49 27q-178 246 -245 452q-63 205 -37 406z " />
<glyph unicode=")" horiz-adv-x="544" d="M27 1378.5q6 24.5 28 36.5q23 14 47.5 7t36.5 -29q72 -123 134.5 -233.5t111.5 -214t83 -202t48 -196.5q27 -201 -37 -406q-68 -207 -246 -452q-20 -27 -49 -27q-23 0 -37 12q-20 16 -24 40t10 46q162 223 224.5 406.5t35.5 361.5q-12 88 -44 181.5t-79 191.5 t-107.5 204.5t-129.5 225.5q-12 23 -6 47.5z" />
<glyph unicode="*" horiz-adv-x="618" d="M30 1109q-3 24 13 46q16 18 39.5 22.5t46.5 -12.5q61 -49 111 -92q2 49 4 91t6 65q4 25 23.5 41t43.5 12q27 -4 42.5 -23.5t13.5 -44.5q-4 -33 -7.5 -71.5t-7.5 -85.5q29 27 63 54.5t75 57.5q20 16 43.5 12.5t40.5 -22.5q16 -23 13 -46t-24 -40q-45 -35 -89 -72.5 t-85 -78.5q43 -47 87 -95t67 -77q16 -20 13 -45t-21 -41q-23 -16 -47.5 -13.5t-40.5 21.5q-18 23 -42 51.5t-53 58.5q2 -25 4.5 -50t6.5 -52q4 -25 -11.5 -44.5t-42.5 -23.5q-25 -4 -44 11.5t-23 42.5q-6 37 -8 57t-4 37q-29 -33 -52.5 -60.5t-40.5 -50.5q-16 -18 -40.5 -21 t-47.5 13q-18 14 -21 40t11 44q12 14 31.5 37.5t44 50.5t51.5 55.5t51 53.5q-41 39 -83 75.5t-87 71.5q-20 16 -23 40z" />
<glyph unicode="+" horiz-adv-x="716" d="M8 621q-4 25 11.5 44t41.5 23q68 10 126.5 13.5t111.5 5.5q0 53 4 112.5t14 130.5q4 27 23.5 42.5t44.5 11.5q27 -4 42 -23.5t11 -44.5q-8 -57 -11 -114.5t-5 -116.5q63 -2 127.5 -5.5t103.5 -7.5q25 -4 41.5 -23.5t12.5 -43.5q-4 -27 -23.5 -42.5t-44.5 -13.5 q-41 4 -96.5 8.5t-120.5 6.5q0 -78 4 -143.5t10 -106.5q2 -25 -13 -44.5t-42 -23.5q-25 -4 -44.5 12.5t-23.5 40.5q-2 18 -4 48t-4 66t-4 75t-2 76q-53 -2 -109.5 -6.5t-113.5 -10.5q-25 -4 -44.5 11.5t-23.5 42.5z" />
<glyph unicode="," horiz-adv-x="280" d="M33 162q-8 35 1 65.5t34 46.5q20 16 45.5 16.5t48.5 -14.5q41 -25 61.5 -80t26.5 -102q4 -37 2 -72.5t-10 -70.5q-23 -84 -80 -141q-18 -18 -43 -19q-23 0 -43 16q-18 18 -18.5 44t16.5 45q37 37 47 78.5t8 76.5v8q-78 27 -96 103z" />
<glyph unicode="-" horiz-adv-x="612" d="M37 571q4 27 23.5 42.5t43.5 11.5q82 -10 139.5 -13.5t100.5 -3.5t81 4t81 11q25 2 44 -13.5t23 -42.5q4 -25 -12 -44t-41 -23q-53 -6 -110 -10.5t-127 -4.5q-29 0 -48.5 1t-38 3.5t-43 5.5t-63.5 9q-27 4 -42 23.5t-11 43.5z" />
<glyph unicode="." horiz-adv-x="198" d="M33 82q-2 16 0 39t16 43q23 27 57 26q35 0 50.5 -27.5t13.5 -61t-16.5 -63.5t-38.5 -36q-4 0 -8.5 -1t-8.5 -1q-45 0 -59 47q0 2 -2 11.5t-4 23.5z" />
<glyph unicode="/" horiz-adv-x="608" d="M16 37.5q-10 23.5 0 46.5q119 297 231.5 619.5t227.5 699.5q8 25 30.5 37t47.5 4t37 -30.5t4 -47.5q-117 -379 -230.5 -702.5t-232.5 -624.5q-16 -39 -57 -39q-10 0 -23 4q-25 10 -35 33.5z" />
<glyph unicode="0" horiz-adv-x="1001" d="M47 721q6 135 38 259t85 222q29 53 62.5 96t74.5 72q88 70 197 70h16q51 -2 98.5 -19.5t88.5 -48.5q76 -55 133 -155q49 -86 77.5 -199t34.5 -238q8 -143 -16.5 -275t-75.5 -237q-57 -117 -147 -188q-100 -78 -226 -84h-18q-150 0 -252 108q-96 100 -139 275 q-18 78 -26.5 164t-4.5 178zM170 715q-8 -170 27.5 -310.5t107.5 -214.5q66 -72 164 -71h12q94 4 163 62.5t112 150.5t61.5 207.5t11.5 234.5q-4 94 -25.5 190.5t-61.5 173t-96 126t-132 53.5h-10q-41 0 -76 -16.5t-62.5 -41t-50 -55t-39.5 -61.5q-45 -84 -72.5 -195.5 t-33.5 -232.5z" />
<glyph unicode="1" horiz-adv-x="403" d="M14 1171.5q-6 24.5 6 47.5q59 109 111 161q70 70 131 52q47 -14 65.5 -58.5t26.5 -85.5t12.5 -94t4.5 -125q2 -129 -6.5 -280.5t-18.5 -305.5q-10 -125 -16 -236.5t-6 -193.5q0 -25 -17.5 -43t-44.5 -18q-25 0 -43 18.5t-18 42.5q0 86 6 199t16 237q10 141 17.5 280.5 t7.5 260.5q0 63 -2 113.5t-6 87.5q-4 27 -7.5 43t-7.5 26q-12 -12 -36.5 -44.5t-61.5 -98.5q-12 -23 -36.5 -29t-47.5 7q-23 12 -29 36.5z" />
<glyph unicode="2" horiz-adv-x="991" d="M41 254q12 47 48 79t89 42q47 10 103.5 -11.5t124.5 -58.5q18 35 35.5 78t35.5 94q51 143 80 299t29 281q0 106 -23 174q-6 18 -18.5 38.5t-28.5 28.5q-20 8 -45 1t-45 -17q-82 -41 -193 -152q-16 -18 -41.5 -18t-44.5 16q-18 18 -18 44t18 45q123 123 224 176 q109 53 190 18q82 -33 119 -141q29 -90 29 -213q0 -137 -31 -301t-84 -320q-37 -102 -82 -190q49 -27 99.5 -52.5t100.5 -44t96 -25.5t85 5q25 8 46.5 -4t29.5 -37t-4.5 -47.5t-36.5 -28.5q-113 -33 -271 27q-53 20 -105 46t-101 54q-72 -98 -144 -129q-35 -14 -74 -14 q-66 0 -122 47q-45 41 -64.5 99.5t-5.5 111.5zM160 223q-4 -23 5 -47t28 -41q30 -28 67 -10q37 14 82 76l-70 35q-31 12 -46 16t-19 4h-4q-25 -6 -32 -15.5t-11 -17.5z" />
<glyph unicode="3" horiz-adv-x="829" d="M23 100q6 25 27.5 38.5t45.5 8.5q166 -37 299 -9t211 118q49 57 63.5 130t-12.5 140q-31 80 -110.5 132.5t-196.5 68.5q-18 2 -32.5 15.5t-18.5 31.5q-10 43 27 66q154 94 235 213q68 98 64 174q-4 53 -43 71q-25 12 -66 11.5t-97.5 -19t-127 -57.5t-154.5 -103 q-23 -16 -46 -12t-40 25q-16 20 -13 44.5t25 41.5q176 133 326 180q147 47 244 0q51 -23 80.5 -69t34.5 -105q4 -59 -17.5 -122.5t-68.5 -129.5q-29 -45 -70 -86t-88 -82q98 -35 166.5 -97.5t101.5 -148.5q37 -98 19 -204q-10 -53 -34 -100.5t-59 -88.5q-96 -111 -249 -151 q-80 -20 -175 -21q-49 0 -100 6t-104 17q-25 6 -39.5 27.5t-7.5 45.5z" />
<glyph unicode="4" horiz-adv-x="808" d="M39 668q-53 123 90 317q127 172 428 424q4 4 12 8l33 17q29 16 57 -2q31 -16 31 -50q10 -180 12.5 -366.5t-0.5 -358.5q2 2 9 2q25 4 44 -12t23 -41q4 -27 -12 -46t-41 -23q-6 0 -12 -1t-11 -1q-2 -102 -4 -187.5t-4 -149t-3 -99.5l-1 -36q0 -27 -18.5 -43t-42.5 -16h-2 q-25 0 -42.5 18.5t-17.5 45.5q0 2 1 36.5t3 95t4.5 143.5t4.5 181q-92 -8 -167 -7t-134 11q-88 12 -148 43q-68 37 -92 97zM152 717q10 -25 47 -41.5t96 -26.5q55 -8 126 -8t159 6q2 143 0 301t-7 314q-119 -104 -205.5 -191.5t-140.5 -159.5q-47 -66 -67.5 -116t-7.5 -78z " />
<glyph unicode="5" horiz-adv-x="780" d="M37 877q-2 47 2 97t8 87q4 47 10 92t15 86q10 68 18 88.5t12 26.5q10 16 29 29.5t54.5 22.5t90 15t138.5 6q43 0 84 -1t73.5 -3t52 -3t21.5 -1q27 -2 43.5 -20.5t13.5 -44.5q-2 -27 -21 -43.5t-44 -14.5l-17 1q-18 1 -45.5 3.5t-64.5 3.5t-76 1q-119 0 -168 -8.5 t-61 -12.5q-6 -23 -16.5 -85t-18.5 -148q-10 -86 -11 -137.5t3 -79.5q170 47 299 18q141 -28 219 -137q39 -53 56.5 -122t13.5 -142q-4 -72 -30 -140.5t-67 -128.5q-41 -59 -96 -99t-119 -63q-72 -25 -147 -24q-84 0 -166 27q-25 8 -37 30.5t-4 46.5q8 25 30.5 36t47.5 3 q121 -37 223 -7t168 122q33 45 51.5 97t22.5 104.5t-8.5 101.5t-38.5 86q-55 78 -165 93.5t-261 -31.5q-53 -16 -86 26q-16 20 -23.5 54t-7.5 92z" />
<glyph unicode="6" horiz-adv-x="784" d="M50 453.5q-3 66.5 0 140.5t10.5 147.5t17.5 136t21.5 106.5t23.5 60q72 231 217 328q80 55 175 61.5t194 -36.5q23 -10 32 -34t-2 -46q-10 -25 -33.5 -34t-46.5 1q-49 23 -115.5 28t-135.5 -42q-109 -74 -168 -262q-16 -53 -27.5 -109.5t-19.5 -122.5q86 86 210 86h3 q98 0 177 -54t126 -153q23 -47 35 -99t14 -107q4 -111 -33 -201q-37 -100 -113 -160q-82 -68 -200 -74q-4 0 -10.5 -1t-10.5 -1q-141 0 -233 103q-76 84 -95 223q-10 49 -13 115.5zM184 354q2 -25 12.5 -61.5t34 -72.5t62.5 -60.5t98 -24.5q4 0 7 1t8 1q45 2 79.5 17.5 t59 37t40 48t25.5 51.5q27 70 25 153q-4 88 -37 158q-10 18 -25.5 43t-39 45.5t-55.5 34.5t-72 14h-3q-80 0 -139 -65q-47 -55 -69.5 -143.5t-10.5 -176.5z" />
<glyph unicode="7" horiz-adv-x="763" d="M12 1360q-2 27 14.5 45t41.5 22q2 0 26.5 2.5t63.5 4.5t89 3t103 1q127 0 211 -13q20 -4 44 -10t45.5 -15t39 -25t27.5 -36q29 -61 -9 -168.5t-124 -293.5q-45 -98 -92.5 -205t-83 -213.5t-55 -206.5t-7.5 -184q4 -27 -11.5 -46.5t-39.5 -23.5q-2 0 -4 -1t-4 -1 q-23 0 -40.5 15.5t-21.5 37.5q-14 98 5.5 209t57.5 225.5t88 228t97 216.5q31 70 58.5 131t46.5 115q20 53 24 78.5t4 33.5q-6 2 -21.5 8t-46 10.5t-81.5 7.5t-127 3q-49 0 -94.5 -2t-79.5 -4q-41 -2 -76 -4q-27 -2 -45.5 14t-22.5 41zM129 571q4 27 23.5 42.5t44.5 11.5 q82 -10 139 -13.5t100 -3.5t81 4t81 11q25 2 44.5 -13.5t23.5 -42.5q4 -25 -12.5 -44t-41.5 -23q-53 -6 -110 -10.5t-127 -4.5q-29 0 -48.5 1t-38 3.5t-43 5.5t-63.5 9q-27 4 -42 23.5t-11 43.5z" />
<glyph unicode="8" horiz-adv-x="880" d="M35 434q6 84 35.5 159t76.5 134q45 55 107 90q-47 23 -83 59.5t-56 88.5q-39 90 -17 190q23 102 95 174q102 102 253 103h13q152 -4 250 -105q88 -92 88 -219q0 -63 -23.5 -120.5t-68.5 -100.5q-20 -18 -42 -34.5t-47 -27.5q49 -27 84 -61q92 -86 123 -221 q23 -106 2.5 -210t-82.5 -181q-18 -25 -46.5 -51.5t-67.5 -49t-90.5 -38t-114.5 -17.5h-16q-170 0 -269 108q-57 59 -83.5 145.5t-20.5 184.5zM158 426q-4 -72 13 -134.5t56 -103.5q68 -70 181 -69h12q145 6 227 106q43 57 58.5 135t-3.5 156q-4 18 -17 56t-42 75t-77 65.5 t-120 30.5h-8q-63 0 -113.5 -27.5t-86 -71.5t-56 -101.5t-24.5 -116.5zM219.5 1131.5q-14.5 -64.5 7.5 -119.5q45 -104 193 -105h12q68 2 114 20.5t74.5 47.5t41 63.5t12.5 69.5t-13.5 70.5t-40 63.5t-67.5 46.5t-98 20.5h-9q-99 0 -165 -66q-47 -47 -61.5 -111.5z" />
<glyph unicode="9" horiz-adv-x="784" d="M27 991q-4 111 32 201q37 100 113 160q82 68 201 73q4 0 10 1t10 1q141 0 234 -102q76 -84 94 -223q10 -49 13 -115.5t0 -140.5t-10 -147.5t-17.5 -136t-21.5 -107.5t-23 -60q-72 -231 -218 -327q-80 -55 -175 -61.5t-193 36.5q-23 10 -32 33.5t1 46.5q10 25 33.5 34 t46.5 -1q49 -23 115.5 -28t136.5 42q109 74 168 262q16 53 27.5 109.5t19.5 122.5q-86 -86 -211 -86h-2q-98 0 -177 54t-126 152q-23 47 -35 99.5t-14 107.5zM150 995q4 -88 36 -157q8 -18 24.5 -43t40 -45.5t55.5 -35t73 -14.5h2q80 0 139 66q47 55 69.5 143t10.5 176 q-4 25 -14.5 62t-33 72.5t-61 60.5t-98.5 25q-4 0 -7 -1t-7 -1q-47 -2 -81 -17.5t-58.5 -37t-41 -48t-24.5 -51.5q-29 -72 -24 -154z" />
<glyph unicode=":" horiz-adv-x="227" d="M37 82q-2 16 0 39t16 43q23 27 58 26q35 0 50 -27.5t13 -61t-16.5 -63.5t-38.5 -36q-4 0 -8.5 -1t-8.5 -1q-45 0 -59 47q0 2 -2 11.5t-4 23.5zM37 762q-2 16 0 39t16 43q23 27 58 26q35 0 50 -27.5t13 -61t-16.5 -63.5t-38.5 -36q-4 0 -8.5 -1t-8.5 -1q-45 0 -59 47 q0 2 -2 11.5t-4 23.5z" />
<glyph unicode=";" horiz-adv-x="276" d="M33 162q18 -76 96 -103v-8q2 -35 -8 -77t-47 -78q-16 -18 -16.5 -44t18.5 -45q20 -16 43 -16q25 0 43 19q57 57 80 141q8 35 10 70.5t-2 72.5q-6 47 -26.5 102.5t-61.5 79.5q-23 14 -48.5 14.5t-45.5 -16.5q-25 -16 -34 -46.5t-1 -65.5zM33 762q-2 16 0 39t16 43 q23 27 57 26q35 0 50.5 -27.5t13.5 -61t-16.5 -63.5t-38.5 -36q-4 0 -8.5 -1t-8.5 -1q-45 0 -59 47q0 2 -2 11.5t-4 23.5z" />
<glyph unicode="=" horiz-adv-x="909" d="M39 932q4 27 23.5 42t43.5 11q82 -10 182.5 -13t197 -1t177 6t123.5 10q25 2 44.5 -13.5t23.5 -41.5q4 -25 -12.5 -44.5t-40.5 -23.5q-53 -6 -137 -10t-154 -4h-83t-115.5 2t-121 4t-98.5 8q-27 4 -42 23.5t-11 44.5zM53 594q4 27 23.5 42t44.5 11q82 -10 182 -11 t195.5 2t176.5 9t124 12q25 2 47 -13t26 -42q4 -25 -12 -44t-41 -23q-27 -4 -64.5 -6.5t-80.5 -5.5t-86 -4t-78 -1q-29 0 -81 -1t-110.5 -1t-116 1t-96.5 7q-27 4 -42 23.5t-11 44.5z" />
<glyph unicode="?" horiz-adv-x="544" d="M25 1118q-7 25 4 47q35 66 72.5 117t78.5 84q53 45 98.5 53t75.5 4q70 -12 113 -77q39 -58 47 -142q18 -150 -55 -389q-16 -55 -37 -106.5t-46.5 -104.5t-56 -112.5t-63.5 -131.5q-18 -35 -57 -34q-12 0 -25 6q-23 10 -32 34.5t1 47.5q135 283 200 468t50 306 q-6 49 -22.5 79.5t-38.5 35.5q-31 4 -84 -41t-109 -154q-12 -23 -36.5 -30t-47.5 3q-23 12 -30 37zM129 82q-2 16 0 39t16 43q23 27 58 26q35 0 50 -27.5t13 -61t-16 -63.5t-39 -36q-4 0 -8 -1t-8 -1q-45 0 -60 47q0 2 -2 11.5t-4 23.5z" />
<glyph unicode="@" horiz-adv-x="976" d="M72.5 589q-11.5 138 9 276.5t68.5 250.5q55 137 143 215q102 90 229 90q117 0 209 -61q84 -58 135 -156q41 -78 63.5 -176t22.5 -207q-2 -102 -21.5 -188t-56.5 -139q-35 -55 -71.5 -69.5t-63.5 -12.5q-49 6 -92 49q-35 -53 -83 -76t-101 -12q-109 23 -158 129 q-45 94 -35 235v2q12 162 70 260q41 70 86 89.5t72 17.5q27 0 69.5 -20.5t77.5 -90.5q49 -94 53 -250q2 -27 -16 -45t-43 -18h-2q-25 0 -42 17.5t-20 41.5q-2 80 -14 127t-24 72q-25 43 -43 43q-20 0 -48 -45q-16 -25 -31.5 -74t-21.5 -135q-4 -39 -1 -79t14.5 -72.5t30 -55 t48.5 -28.5q6 -2 22.5 2t39.5 39q8 10 13 22t9 23q4 10 9 22q10 43 53 47q45 4 61 -37q2 -6 6 -14q8 -14 19 -29q12 -16 20 -24t13 -10l7 7t15 19q27 39 41 108.5t16 151.5q0 92 -18 176t-53 148q-84 154 -236 153q-53 0 -95 -23.5t-73.5 -58t-54.5 -74.5t-37 -73 q-43 -102 -60.5 -224t-6.5 -247q10 -129 49 -230.5t100 -164.5q141 -145 385 -47q25 10 47.5 -1.5t32.5 -33.5q10 -25 0 -47.5t-33 -32.5q-123 -47 -225 -47q-39 0 -72 6q-127 20 -223 117q-84 84 -128 209t-55.5 263z" />
<glyph unicode="A" horiz-adv-x="825" d="M25 545q0 27 17 45t42 20h12q6 119 17.5 220.5t27.5 187.5q39 225 115 330q55 76 133 86q7 1 15 1q61 0 112 -46q86 -82 131 -320q16 -86 27.5 -190.5t19.5 -229.5q8 2 16.5 3t18.5 3q25 4 46.5 -9t25.5 -38q1 -6 1 -12q0 -20 -10 -35q-14 -20 -40 -26q-12 -2 -25.5 -4.5 t-28.5 -4.5q2 -96 3 -183q0 -44 1 -82q0 -39 -1 -71q-1 -66 -2 -104.5t-1 -40.5q-2 -25 -19 -42t-44 -15q-27 0 -43.5 18.5t-16.5 44.5l1 37q2 37 3 100.5t1 146.5t-2 175q-80 -8 -163 -11t-169 -7h-31q-4 -86 -4 -163v-137.5t2 -99.5t2 -47q4 -23 -10.5 -43t-36.5 -25 q-4 -2 -12 -2q-23 0 -40.5 13.5t-21.5 36.5q-2 8 -3 31.5t-2 52t-1 56.5v44v123.5t4 154.5h-6q-25 0 -42 16.5t-19 41.5zM219 614h25q86 4 168 7.5t159 11.5q-10 190 -28.5 313t-39 198t-40 108.5t-31.5 45.5q-10 10 -17 11.5t-12 1.5q-23 -4 -43 -31q-16 -18 -35.5 -60 t-40 -119t-38 -196t-27.5 -291z" />
<glyph unicode="B" horiz-adv-x="823" d="M31 66q4 27 23.5 43t43.5 12h4q2 109 2 212v206q0 209 1 409.5t12 423.5q3 24 21 42q17 16 39 16h5q25 -2 42.5 -20.5t15.5 -43.5v-28.5t-2 -28.5q129 76 233 104q60 16 109 17q70 0 118 -33q83 -52 83 -158q0 -19 -3 -41q-10 -72 -54 -148.5t-116 -144.5 q-70 -68 -162 -121q133 -29 199 -83t92 -99q42 -69 42 -149q0 -10 -1 -21q-6 -92 -61 -178q-41 -63 -103.5 -114.5t-140.5 -86.5q-137 -59 -299 -59q-43 0 -88 6q-25 2 -41 22q-14 17 -14 39v5zM225 119q74 6 136.5 25.5t110.5 47t84 61.5t58 69q36 58 42 114q1 10 1 20 q0 45 -24 83q-43 71 -147 107q-94 32 -228 32h-31v-139v-206t-2 -214zM227 817q106 37 185.5 89t131.5 107.5t79.5 109t33.5 91.5q2 10 2 21t-2 22q-4 23 -22 35t-52 14h-7q-32 0 -78 -14q-52 -14 -118.5 -44.5t-148.5 -86.5q-2 -88 -3 -173t-1 -171z" />
<glyph unicode="C" horiz-adv-x="813" d="M37 612q12 180 51 331t102 263q63 104 136 162q80 61 161 62h8q107 0 181 -99q35 -47 56.5 -112.5t29.5 -147.5q4 -27 -12.5 -46t-40.5 -21q-27 -4 -46.5 12t-21.5 41q-10 84 -28.5 131t-37.5 69q-38 50 -84 50h-2q-47 0 -97 -43t-95 -119q-41 -70 -82 -201t-55 -340 q-3 -51 -3 -97q0 -181 50 -284q43 -94 123 -102q10 -1 20 -1q40 0 83 18q54 24 101.5 68t82 101.5t47.5 118.5q4 25 25.5 39t45.5 10q27 -3 40 -25q10 -16 10 -35q0 -6 -1 -12q-16 -80 -60 -156.5t-112 -135.5q-63 -55 -130.5 -84t-133.5 -29h-17t-18 2q-25 2 -53.5 11 t-57 28.5t-56 51.5t-50.5 79q-39 78 -53 190q-9 71 -9 153q0 48 3 99z" />
<glyph unicode="D" horiz-adv-x="770" d="M33 66q4 25 22.5 41t44.5 12h4q2 106 2 195v175q0 84 -1 164v46q-1 58 1 119q2 85 4.5 179.5t8.5 204.5q2 25 20.5 42.5t44.5 15.5q25 -2 42.5 -20.5t15.5 -43.5q-6 -111 -8.5 -203t-4.5 -177q-1 -57 -1 -111v-54q1 -80 1 -162v-174t-2 -192q113 14 201 90 q84 70 131 179.5t57 248.5q2 29 2 60q0 39 -3 81q-5 74 -24.5 148t-54 143.5t-87.5 122.5q-112 112 -281 112q-16 0 -33 -1q-27 -2 -45 15t-20 42q-2 27 15 45t42 21q25 2 49 2q98 0 182 -33q49 -20 93.5 -48t83.5 -67q117 -117 170 -305q37 -130 37 -269q0 -38 -3 -77 q-10 -164 -69.5 -296t-161.5 -218q-150 -125 -352 -125q-16 0 -34 1t-34 3q-27 2 -43 22q-13 16 -13 36q0 6 1 10z" />
<glyph unicode="E" horiz-adv-x="786" d="M31 612q2 25 19.5 41.5t41.5 16.5v18q0 111 1 218.5t2 195.5t3 148.5t4 74.5q2 27 19.5 44t39 27.5t43 14.5t34.5 6q68 8 182 13q47 0 92 -1.5t81 -3.5t58.5 -3t24.5 -1q27 -2 43 -20.5t14 -44.5q-2 -25 -20.5 -42.5t-44.5 -15.5q-31 2 -66 5q-29 2 -66.5 2t-78.5 2 q-111 0 -163 -6.5t-71 -10.5q-2 -29 -3 -85t-2 -131t-2 -165t-1 -184v-57q55 -2 116.5 -2t120 1t108.5 5t79 10q25 6 47.5 -7t28.5 -38q4 -25 -8.5 -46.5t-36.5 -27.5q-53 -12 -141.5 -16t-178.5 -4h-135q2 -123 6 -215t10.5 -136.5t10.5 -60.5q18 -4 72 -6q18 -1 44 -1 q50 0 129 3q41 2 81 3t71 5q37 2 68 6q27 4 45 -13t22 -42v-6q0 -23 -14 -39q-16 -18 -41 -23q-2 0 -22.5 -2t-53.5 -4t-75 -4t-87 -4q-35 -2 -65.5 -3t-57.5 -1q-96 0 -136 9t-58 20q-23 14 -32 39.5t-15 64.5q-4 27 -8.5 62.5t-6.5 80.5q-4 55 -6 123t-4 148l-2 2 q-27 1 -44 19q-15 17 -15 39v5z" />
<glyph unicode="F" horiz-adv-x="831" d="M25 506q0 25 17 43t42 20h53q0 121 -2 244t-3 227t-3 178l-4 100q0 30 25 54q18 20 54 31.5t97 15.5q57 7 135 7q31 0 66 -1q51 0 98 -1t84 -3t60.5 -3t25.5 -1q27 -5 43 -23q14 -16 14 -37v-5q-2 -27 -20.5 -43.5t-44.5 -14.5l-22 1q-21 1 -55 3t-78 3.5t-91 1.5h-56 q-86 -1 -130 -5q-58 -6 -80 -10q0 -37 1 -103.5t3 -151.5t3 -182t3 -196v-86h66q68 -1 136 -1h68q102 1 195 14q27 4 46.5 -12.5t23.5 -41.5t-12.5 -45t-41.5 -24q-68 -10 -137 -12.5t-141 -2.5h-70t-69 2h-64q2 -59 2 -109v-91q0 -43 -1 -77t-1 -58q0 -29 -2 -39 q0 -10 -2 -15q-4 -27 -18.5 -39t-30.5 -16q-4 0 -6 -1t-6 -1q-20 0 -36 12.5t-24 30.5q-6 23 0 41q4 31 4 130t-2 232h-49q-27 -2 -44 15.5t-19 44.5z" />
<glyph unicode="G" horiz-adv-x="1019" d="M39 582q8 188 42 343.5t91 268.5q55 111 127 171t150 67q10 1 21 1q93 0 165 -83q74 -82 104 -232q6 -25 -8 -46t-39 -28q-25 -4 -46 9.5t-25 40.5q-23 104 -66 162q-40 53 -89 53h-7q-45 -4 -91 -48t-85 -122q-37 -72 -74 -206t-47 -358q-2 -36 -2 -70q0 -157 39 -253 q47 -115 141 -123q7 -1 14 -1q47 0 98 22q60 26 115 79q94 86 127 199q-23 -2 -47 -4t-57 -4h-4q-25 0 -42.5 16.5t-19.5 40.5q-2 25 14.5 43.5t43.5 22.5q43 4 74.5 6t60.5 6q53 4 102 8q33 3 80 3q24 0 51 -1q27 0 44.5 -17.5t17.5 -43.5q0 -25 -18.5 -43.5t-43.5 -18.5 q-27 1 -50 1h-20q-30 -1 -57 -3q-16 -82 -60 -159.5t-112 -141.5q-70 -66 -146.5 -100.5t-150.5 -34.5q-6 0 -12 1t-12 1q-70 6 -127 45q-61 41 -97 113q-69 125 -69 344q0 36 2 74z" />
<glyph unicode="H" horiz-adv-x="940" d="M35 530q4 25 25.5 39.5t48.5 8.5q4 0 8 -1.5t10 -1.5q3 133 3 263q0 66 -1 130q-2 194 -8 386q0 27 17.5 45t43.5 18h5q23 -1 39 -17q18 -18 18 -42q6 -196 8 -394q0 -50 1 -99q0 -149 -5 -300q38 -2 79 -2q61 0 129 4q112 6 210 19v43t-2 43q0 90 1 208.5t5 229.5 q2 74 5 121t7 77.5t9 46t9 25.5q10 23 34 33q12 5 23.5 5t22.5 -5q23 -10 32 -34.5t-1 -47.5q-4 -10 -8 -48t-8 -112.5t-6.5 -191.5t-2.5 -285q0 -23 1 -44t1 -44q20 2 43 10q25 6 46.5 -6t29.5 -37q2 -8 2 -16q0 -16 -8 -31q-12 -22 -37 -28q-16 -4 -34.5 -8.5t-38.5 -8.5 q2 -154 6 -260t8 -141q10 -25 0 -47q-12 -35 -49 -39q-2 -2 -8 -2q-29 0 -50 26q-10 12 -13 30t-5 61q-4 27 -5 61.5t-3 79.5q-2 47 -3 101.5t-1 111.5q-84 -10 -175.5 -16.5t-177.5 -6.5h-36.5t-34.5 2q-4 -98 -11.5 -193t-17.5 -192q-2 -25 -19.5 -40t-39.5 -15h-9 q-25 4 -41 23.5t-12 44.5q10 94 16.5 189t10.5 192q-10 2 -19.5 4t-19.5 4q-25 3 -38 25q-10 16 -10 35q0 5 1 11z" />
<glyph unicode="I" horiz-adv-x="882" d="M29 1341q-2 9 -2 18q0 15 6 29q10 22 35 31q27 10 49 -2q27 -4 98.5 -6t177.5 -6q18 27 48 27h8q29 -4 45 -27q42 -1 78 -1q72 0 120 3q72 4 90 8q25 4 47.5 -9t26.5 -38q6 -25 -7 -46.5t-38 -27.5q-35 -8 -111.5 -10t-158.5 -2h-43q-10 -147 -12.5 -309t-2.5 -317.5 t3 -291t8 -227.5q67 3 126 3h28q70 -1 155 -5q25 -3 42 -21q15 -17 15 -37q0 -29 -20 -49q-18 -18 -43 -16q-82 4 -153 5h-29q-59 0 -126 -3q-16 -30 -49 -30h-2h-2q-35 0 -51 26q-33 -2 -66.5 -3t-72.5 -3q-68 -4 -148 -6h-4q-25 0 -42 17.5t-19 41.5q0 25 17.5 43.5 t41.5 20.5q78 2 150 6q70 2 129 6q-4 92 -7.5 227.5t-3.5 291t2.5 319.5t12.5 311q-53 2 -102.5 3t-88.5 5q-23 0 -42 1t-31 3q-10 2 -16.5 2t-10.5 2q-27 4 -39 17.5t-16 25.5z" />
<glyph unicode="J" horiz-adv-x="878" d="M39 578q4 27 23.5 43t43.5 12q27 -2 43.5 -21.5t12.5 -46.5q-5 -53 -5 -97q0 -63 10 -110q17 -79 40 -125q49 -96 123 -112q11 -3 22 -3q30 0 56 20q36 28 55 83q27 80 31 214q1 43 1 87q0 95 -5 198q-9 150 -24 297.5t-28 258.5v2h-12q-47 0 -98.5 1t-99.5 3t-86 6 t-58 10q-25 8 -37 31t-4 47q6 25 28.5 37t47.5 4q16 -4 97 -10t210 -6h14q14 23 43 26q5 1 9 1q31 0 49 -25q84 2 147.5 7t95.5 15q8 2 16 2q16 0 32 -8q22 -12 28 -37q2 -8 2 -16q0 -16 -8 -30q-12 -21 -37 -29q-47 -12 -117.5 -18.5t-138.5 -8.5q14 -123 29.5 -275.5 t23.5 -306.5q4 -82 4 -159q0 -68 -4 -131q-6 -138 -34 -226q-31 -102 -109 -149q-55 -37 -121 -37q-25 0 -45 6q-63 12 -119 59q-53 43 -90 119q-39 78 -53 180q-8 59 -8 123q0 46 4 95z" />
<glyph unicode="K" horiz-adv-x="927" d="M37 63q0 2 4 82t8 203t8 272q5 148 7 290q1 59 1 115q-1 77 -3 145q-4 118 -11 180q-4 25 11.5 45t41.5 24q25 4 45.5 -11t24.5 -42q6 -37 8 -92t4 -125q1 -47 2 -97q0 -26 -1 -52q-1 -78 -1 -162q31 37 64 75q49 55 103.5 119t104.5 128.5t92 123.5t64 109q10 23 35 31 q11 3 21 3q14 0 26 -6q23 -10 31 -34.5t-2 -47.5q-25 -53 -68 -116.5t-95 -130t-109.5 -133t-108.5 -128.5q-45 -51 -91 -105t-65 -83q20 -35 87 -117t167 -176q124 -117 228 -175q95 -53 157 -53q7 0 13 1q25 2 44 -14t23 -43v-5q0 -21 -14 -39q-16 -20 -43 -22 q-6 -2 -23 -2q-94 0 -219 72q-53 31 -111.5 73.5t-117.5 100.5q-70 61 -121 117.5t-82 93.5q-2 -80 -5 -149.5t-5 -122t-4 -86.5t-2 -40q0 -25 -18.5 -41t-43.5 -16h-2q-27 0 -43 19.5t-16 43.5z" />
<glyph unicode="L" horiz-adv-x="755" d="M41 1364v5q1 22 15 39q16 19 42 22q25 0 44.5 -16.5t21.5 -43.5q2 -61 4 -137t3 -160t2 -174t1 -180v-180t1 -165t3 -139.5t6 -101.5q8 -4 24.5 -7t47.5 -5q21 -1 48 -1h30q47 1 112 5q45 2 87 6t75 7t54 6l20 3q25 4 45.5 -11t24.5 -40q1 -5 1 -10q1 -20 -13 -36 q-16 -19 -42 -23q-4 -2 -77.5 -10.5t-169.5 -14.5q-78 -6 -129 -6q-53 0 -91 4t-64 10t-41 13.5t-26 15.5q-20 16 -27 32.5t-10 28.5q-4 39 -7 103.5t-4 146.5t-1 176.5v192.5q-2 180 -3 352t-7 293z" />
<glyph unicode="M" horiz-adv-x="1126" d="M39 51v57.5t2 146.5t5 207t7 238q4 143 11.5 259t17.5 202q8 76 17.5 127t20.5 82t22.5 47.5t25.5 24.5q20 13 41 13l33 -9q33 -16 53 -64.5t43 -154.5q16 -74 29.5 -168t29.5 -199q18 -131 39 -260t45 -240q25 -119 49 -180q14 -33 25 -51q8 20 19.5 61t25.5 119 q16 86 30.5 191.5t28.5 214.5q16 123 33 242.5t35 218.5q23 117 53.5 186.5t89.5 77.5q5 1 9 1q32 0 61 -24q10 -10 22.5 -27.5t23.5 -49t23.5 -83t22.5 -129.5q12 -86 22.5 -198.5t16.5 -251.5q6 -117 10.5 -228.5t6.5 -197.5t2 -138.5v-54.5q0 -27 -17.5 -44t-44.5 -17 q-25 0 -43 17.5t-18 43.5v51q0 52 -2 136t-5.5 191.5t-9.5 221.5q-16 270 -37 439q-10 66 -18 108.5t-16 67.5q0 -4 -5 -12q-8 -29 -16 -65t-16 -83q-16 -90 -30.5 -197.5t-31.5 -218.5q-16 -123 -31.5 -241.5t-35.5 -212.5q-10 -53 -20.5 -92t-22.5 -68q-4 -8 -11.5 -24.5 t-19.5 -32t-30.5 -26.5t-43.5 -11h-2q-78 0 -129 106q-16 35 -32.5 85t-32.5 116q-29 117 -50.5 259t-44.5 288q-12 94 -25 179t-26 157q-4 10 -5 21t-5 22q-6 -49 -12 -115q-8 -86 -15.5 -197.5t-11.5 -248.5q-4 -117 -7 -226.5t-4 -194.5t-1 -137v-53q0 -27 -17.5 -44 t-44.5 -17q-25 0 -43 17.5t-18 43.5z" />
<glyph unicode="N" horiz-adv-x="856" d="M45 63q8 72 11 182.5t3 239.5t-3 264.5t-5 254.5q-2 82 -3 149.5t-1 116.5v82q2 10 2 16t2 12q4 37 24.5 47.5t30.5 12.5h6q15 0 32 -8q20 -10 30 -35q2 -4 2 -8.5t2 -10.5q57 -248 118.5 -467t121.5 -385q45 -129 82 -206.5t63.5 -121.5t43 -60.5t22.5 -18.5 q4 4 11 20.5t15 50.5q10 41 16.5 97.5t10.5 134.5q4 72 7 161t4 203q0 57 0.5 120.5t-0.5 135.5q-1 142 -3 322q-2 27 16.5 45t43.5 18q27 0 44 -17t17 -44q2 -202 3 -358q0 -78 0.5 -148t-0.5 -131q-1 -123 -4 -216t-9 -165q-8 -84 -17.5 -142.5t-23.5 -99.5 q-18 -47 -43 -75q-35 -37 -82 -37h-2q-31 0 -58.5 14.5t-50 37t-41 49t-32.5 50.5q-35 57 -70 138.5t-74 185.5q-35 100 -67.5 205.5t-61.5 210.5q2 -113 4 -234q1 -81 1 -157v-76q-1 -112 -5 -207.5t-12 -161.5q-4 -27 -23.5 -42t-46.5 -11q-25 4 -40 24q-12 15 -12 33 q0 5 1 10z" />
<glyph unicode="O" horiz-adv-x="980" d="M42 698q5 146 46 281q20 72 50 133.5t67 114.5q84 117 201 168q61 30 127 30h4q162 0 274 -174q47 -70 79 -164t48 -202q12 -82 12 -167q0 -48 -4 -97q-10 -141 -49 -259q-47 -137 -129 -225t-195 -121q-59 -18 -114 -18q-154 0 -264 129q-92 106 -129 289 q-25 115 -25 239q0 21 1 43zM165 692q-1 -23 -1 -45q0 -108 20 -205q35 -152 105 -237q72 -84 170 -84q37 0 80 12q51 14 91 45t68.5 68t49 79t32.5 78q34 98 44 220q3 41 4 81q0 82 -13 164q-14 94 -40.5 176t-65.5 142q-27 41 -70 79t-102 38q-39 0 -82 -19 q-84 -39 -148.5 -126t-101.5 -214q-35 -119 -40 -252z" />
<glyph unicode="P" horiz-adv-x="714" d="M43 504q2 216 6 452q4 98 5 201t3 213q0 25 18.5 42.5t43.5 17.5q27 0 44 -17.5t17 -44.5v-22q86 43 152 62q68 20 120 22h19q40 0 72 -8q39 -10 65 -27q57 -36 82 -99q19 -52 19 -122v-7q-6 -80 -45 -166t-107 -170q-74 -92 -171 -163.5t-214 -122.5q-4 0 -6 -2 q-1 -60 -1 -119t1 -118q2 -118 8 -243q2 -25 -15.5 -43t-43.5 -20h-2q-25 0 -42.5 16.5t-19.5 42.5q-8 191 -8 372v73zM166 678q111 53 183.5 116.5t113.5 114.5q53 68 86 138t37 131v12q0 24 -6 50q-8 32 -37 50q-27 18 -69 18q-27 0 -60 -8q-102 -18 -236 -96 q-2 -66 -3 -128t-3 -122q-4 -141 -6 -276z" />
<glyph unicode="Q" horiz-adv-x="1165" d="M43 621q0 119 21.5 234.5t62.5 217.5q94 240 266 322q57 29 114 29q24 0 48 -5q76 -12 139 -67q76 -66 135 -193q51 -119 76 -260q23 -124 23 -247q0 -23 -1 -46q-5 -145 -44 -264q-4 -18 -13 -37q104 -76 172 -135.5t72 -63.5q20 -17 20 -46q0 -23 -16 -40 q-18 -20 -45 -20q-25 0 -41 16l-18 14q-17 15 -45.5 39.5t-67.5 56.5t-84 67q-12 -20 -25.5 -37t-27.5 -33q-94 -96 -219 -109q-28 -3 -55 -3q-55 0 -109 13q-80 21 -148 70q-63 45 -102 104.5t-47 120.5q-2 16 -2 31q0 70 47 123q55 63 170 80q21 4 43 4q92 0 219 -59 q47 -23 98.5 -52.5t106.5 -66.5q35 104 39 234q1 18 1 36q0 112 -22 228q-23 131 -67.5 231t-104.5 152q-46 40 -99 40q-33 0 -69 -16q-39 -18 -70.5 -49t-57 -65.5t-44 -72.5t-32.5 -71q-35 -90 -54.5 -193.5t-19.5 -211.5q0 -25 -17.5 -43.5t-44.5 -18.5q-25 0 -43 18.5 t-18 43.5zM205 334q4 -35 30.5 -73t70.5 -68.5t101 -48.5q39 -12 83 -12q21 0 42 3q66 8 111 44t74 85q-78 53 -139.5 86t-107.5 51.5t-79 25.5t-53 7q-14 0 -21 -2q-113 -17 -113 -85q0 -6 1 -13z" />
<glyph unicode="R" horiz-adv-x="761" d="M44 574v121.5v124.5q1 126 4 262.5t9 289.5q0 25 18.5 42.5t45.5 15.5q25 0 42 -18.5t15 -45.5v-29q88 49 158 73t123 29q20 2 37 2q30 1 54 -5q38 -8 64 -23q97 -58 97 -194v-13q-4 -78 -44 -166t-110 -172q-45 -55 -121 -124.5t-192 -129.5q51 -68 90 -115.5 t70.5 -84.5t59.5 -68t59.5 -62.5t69.5 -67.5t89 -85l27 -25q19 -19 19 -46q0 -24 -17 -42q-16 -18 -43 -18q-23 0 -43 16l-27 27q-76 72 -125 119t-92 94t-91 105.5t-122 152.5v-91t2 -91q0 -68 1 -137.5t1 -141.5q0 -25 -17.5 -43t-43.5 -18q-25 0 -43.5 17.5t-18.5 43.5 q0 72 -1 140.5t-1 136.5q-2 124 -3 244zM166 713q111 53 183.5 117.5t113.5 115.5q55 68 88 137.5t37 128.5v13q0 19 -4 39q-6 26 -31 43q-25 12 -59 12q-31 0 -70 -10q-111 -29 -252 -119q-6 -258 -6 -477z" />
<glyph unicode="S" horiz-adv-x="749" d="M27 406q0 25 18 43t43 18q27 0 44.5 -18.5t17.5 -42.5q0 -80 19 -134.5t52 -88t73 -48t81 -14.5q39 0 79 14.5t70.5 41t50 66.5t19.5 93q0 61 -16.5 106t-46 82t-68.5 68t-84 65q-72 53 -144.5 118t-119.5 163q-47 104 -47 199.5t53 167.5q41 59 107 89q50 22 106 22 q19 0 39 -3q49 -6 98 -27.5t92 -58.5q90 -78 150 -215q5 -12 5 -24t-6 -24q-10 -24 -32 -34q-23 -10 -46.5 0t-33.5 33q-41 100 -105.5 159.5t-136.5 67.5q-12 2 -23 2q-29 0 -55 -11q-38 -15 -61 -48q-29 -40 -29 -97v-10q2 -64 37 -135q37 -78 96.5 -131t127.5 -104 q47 -35 95 -73t85 -87q86 -111 86 -260q0 -152 -109 -250q-47 -43 -107 -65.5t-126 -22.5q-145 0 -242 100q-106 113 -106 308z" />
<glyph unicode="T" horiz-adv-x="897" d="M14 1368q2 25 20.5 42t45.5 17q41 -2 81 -4t75 -2q80 -6 147 -6q8 14 21.5 23.5t31.5 9.5q43 0 58 -37q88 -4 163.5 -4t161.5 4q27 2 45.5 -15t20.5 -42q0 -27 -17.5 -45.5t-42.5 -18.5q-98 -6 -182 -6q-35 0 -69.5 1t-71.5 3q0 -37 1 -73.5t1 -75.5q2 -145 5 -297 t5 -296q1 -72 1 -139t-1 -129q-2 -126 -8 -221q-2 -25 -19.5 -41t-42.5 -16h-4q-25 2 -42 20.5t-15 45.5q6 92 8 217q1 62 1 128.5t-1 137.5q-2 141 -5 290.5t-5 295.5q0 41 -1 79.5t-3 77.5q-66 0 -148 6q-35 2 -73.5 3.5t-81.5 3.5q-25 0 -42.5 18t-17.5 45z" />
<glyph unicode="U" horiz-adv-x="921" d="M53 838q0 106 5 205.5t11.5 176t12.5 124t6 53.5q4 25 26 39q17 11 35 11q5 0 11 -1q25 -4 39 -24.5t10 -47.5q-2 -10 -7 -58t-10.5 -123t-10.5 -169t-5 -197v-31q0 -239 29 -403q31 -174 90 -243q33 -37 76 -37q49 0 98 67q47 68 84 191t63 286q-6 98 -9 199.5t-3 200.5 q0 70 2 128t6 101q2 23 3 41.5t6 32.5q2 10 13 36.5t46 35.5q9 2 17 2q28 0 48 -27q10 -12 16.5 -31.5t10.5 -50.5q6 -43 6 -108q1 -29 1 -59q0 -46 -2 -95q-3 -82 -9 -168q-4 -47 -11 -109.5t-18 -132.5q8 -100 17.5 -187t19.5 -157q18 -109 35 -149.5t23 -48.5 q20 -4 33.5 -21.5t13.5 -40.5q0 -25 -18.5 -43t-43.5 -18q-20 0 -45.5 12t-48.5 49q-10 20 -20.5 45t-20.5 58q-8 29 -15 62.5t-14 74.5q-18 -51 -41 -101q-43 -90 -98 -139q-66 -59 -145 -59q-100 0 -172 84q-84 102 -121 336q-25 174 -25 428z" />
<glyph unicode="V" horiz-adv-x="761" d="M33 1212v33t1 57.5t2 58.5t3 38q5 25 27 38q16 10 35 10q6 0 12 -1q23 -6 37 -26.5t10 -43.5q-2 -10 -3 -60t-1 -127t3 -175.5t9 -202.5q12 -176 31.5 -295t42 -196.5t44 -118.5t38.5 -60q18 -20 31.5 -25t23.5 -3q10 0 23.5 4t31.5 22t41 60.5t45.5 121t42 201.5 t29.5 305q6 106 7 203.5t1 173.5t-2 121l-2 45q-2 27 15.5 45.5t43.5 20.5q25 0 43.5 -17.5t20.5 -42.5l2 -47t2 -124t-1 -176t-7 -208q-14 -256 -53 -436q-49 -236 -140 -330q-59 -65 -143 -65q-33 0 -75 15t-83 69q-78 100 -127 329q-16 88 -29.5 196t-21.5 232 q-6 115 -8 214.5t-2 166.5z" />
<glyph unicode="W" horiz-adv-x="1228" d="M37 1352v5q-1 22 15 38q18 18 44 20q27 0 44.5 -17.5t19.5 -41.5q0 -2 2 -53.5t6 -134.5t11 -189.5t18 -218.5q10 -133 23 -240.5t30 -191.5q10 -47 19.5 -86t19.5 -68q4 -14 8 -24.5t8 -18.5q10 20 25.5 70.5t31.5 154.5t30 228.5t26 249.5q10 106 19 202.5t22 171.5 q12 86 26 129q2 8 8.5 22.5t15.5 28t22.5 24.5t33.5 15q31 6 58 -14q12 -8 22 -21.5t19.5 -38t19.5 -63.5t23 -96q16 -74 29.5 -167t29.5 -196q18 -125 37.5 -247.5t42.5 -227.5q12 -55 23.5 -98t21.5 -76q6 -16 11 -27.5t9 -19.5q10 23 23.5 68t30.5 131q16 86 31.5 196.5 t29.5 245.5q12 117 20.5 226.5t14.5 194.5t9 137l3 52q1 26 19 44q17 16 40 16h5q25 -2 42 -20q15 -17 15 -40v-6l-3 -58t-9 -152.5t-16.5 -214t-22.5 -244.5q-16 -147 -33.5 -263t-36.5 -202q-25 -106 -51 -162q-43 -92 -109 -92h-2q-27 0 -47 13t-34.5 30.5t-23.5 35 t-13 27.5q-31 66 -58 191q-27 113 -48 249t-42 275q-14 94 -27.5 180t-27.5 158q-4 14 -5 25.5t-3 21.5q-2 -10 -3 -20.5t-4 -22.5q-10 -70 -18 -155t-18 -177q-12 -141 -26.5 -278t-35.5 -252q-25 -127 -51 -195q-45 -106 -125 -106q-70 4 -108 92q-27 55 -52 162 q-18 84 -33.5 196.5t-29.5 255.5q-12 121 -19.5 238t-12.5 209t-7 148.5t-2 58.5z" />
<glyph unicode="X" horiz-adv-x="897" d="M45 55q74 203 155 369t165 315q-78 147 -154 300t-148 321q-10 25 -0.5 48.5t31.5 33.5q13 5 26 5q10 0 22 -4q24 -9 34 -34q63 -145 129 -279.5t131 -263.5q16 25 29.5 50.5t30.5 50.5q66 113 127 222t118 226q10 23 35 31q11 4 22 4q13 0 25 -6q23 -10 31 -34 q4 -11 4 -22q0 -13 -6 -26q-59 -123 -121.5 -232.5t-130.5 -224.5q-23 -41 -47.5 -84t-48.5 -84q33 -66 69 -133q72 -139 139.5 -269t127.5 -257q10 -23 0.5 -47.5t-31.5 -34.5q-8 -4 -27 -4q-39 0 -55 35q-57 125 -123.5 254t-138.5 266q-10 16 -17.5 30.5t-15.5 30.5 q-72 -131 -140.5 -276.5t-131.5 -319.5q-6 -18 -22.5 -28.5t-35.5 -10.5q-14 0 -20 4q-25 8 -36 32q-6 13 -6 25q0 11 5 21z" />
<glyph unicode="Y" horiz-adv-x="862" d="M39 1348q-3 9 -3 18q0 14 7 27q12 22 35 30q11 5 22 5q13 0 25 -7q22 -12 31 -37q0 -2 13 -40.5t35.5 -103t52.5 -145.5t63.5 -167t69.5 -171t71 -153q39 104 80 215t75.5 213.5t61.5 191.5t41 152q4 25 25 38q17 10 35 10q6 0 12 -1q25 -4 39 -25q10 -16 10 -33 q0 -7 -2 -15q-18 -86 -59.5 -215t-91.5 -271.5t-105.5 -286t-101.5 -261t-76.5 -194.5t-34.5 -87q-6 -18 -22.5 -28.5t-33.5 -10.5q-8 0 -24 4q-23 10 -33 33.5t0 48.5l12 28q13 29 32 79.5t46 118t57 145.5q-37 61 -78.5 150t-80.5 186.5t-75 194.5t-64.5 175t-46 130 t-19.5 59z" />
<glyph unicode="Z" horiz-adv-x="876" d="M25 1327q-1 5 -1 10q0 19 13 35q16 20 41 23q2 0 29.5 4t72.5 8t102.5 8t118.5 6q72 4 131.5 4t104.5 -4q59 -6 96 -18q59 -18 80 -57q9 -18 9 -50q0 -31 -36 -71q-399 -438 -534 -717q-50 -104 -62 -180q-3 -23 -4 -43q0 -47 19 -78q29 -47 107 -69q57 -16 139 -15 q30 0 63 2q49 2 95 9t82 14.5t57 12.5l22 5q25 8 46.5 -5t29.5 -38q2 -8 2 -16q0 -17 -8 -31q-12 -22 -37 -29q-2 0 -25.5 -5t-62.5 -13.5t-89.5 -15.5t-105.5 -11q-16 -2 -33.5 -2h-33.5q-47 0 -87 4t-75 12q-133 35 -191 125q-36 58 -36 140q0 20 2 41q4 53 23.5 112.5 t51.5 126.5q72 143 206 325.5t333 403.5q-28 6 -96 12q-26 2 -61 2q-58 0 -142 -6q-57 -4 -107.5 -8t-91.5 -8q-47 -6 -88 -8q-27 -4 -46 11t-23 42z" />
<glyph unicode="[" horiz-adv-x="598" d="M39 528q0 131 2 262.5t4 241t5 184t5 97.5q6 45 43 71q12 8 29.5 17.5t48.5 15.5t77 8t112 -2q68 -4 117.5 -11t54.5 -9q25 -4 40 -24.5t11 -45.5q-4 -27 -25.5 -41t-46.5 -10q-2 0 -50 7t-112 11q-90 6 -128 -1t-48 -11q-2 -27 -5 -96.5t-5 -166.5t-4 -217t-2 -245 q0 -297 6 -487q6 -127 12 -180.5t10 -67.5q12 -4 50.5 -11t124.5 -5q29 0 57.5 2t50.5 4q25 2 47 4q25 4 44.5 -12t23.5 -41q4 -27 -12.5 -46.5t-40.5 -23.5q-4 0 -55.5 -4t-117.5 -6h-26q-57 0 -97 4t-67 11t-42 15.5t-26 18.5q-16 14 -25 39.5t-18 75.5q-4 33 -7 76.5 t-7 99.5q-4 94 -6 219t-2 280z" />
<glyph unicode="\" horiz-adv-x="608" d="M14 1366q-8 25 4.5 47.5t36.5 30.5q25 8 47.5 -4.5t30.5 -36.5q115 -377 226.5 -699.5t232.5 -619.5q10 -23 0 -46.5t-35 -33.5q-12 -4 -22 -4q-41 0 -58 39q-121 301 -233.5 624.5t-229.5 702.5z" />
<glyph unicode="]" horiz-adv-x="598" d="M10 -231q4 25 23.5 41t44.5 12q23 -2 47 -4q23 -2 50.5 -4t57.5 -2q86 -2 124 5t51 11q4 14 10 67.5t12 180.5q6 190 6 487q0 125 -2 245t-4 217t-5 167t-5 96q-10 4 -48 11.5t-128 0.5q-63 -4 -111.5 -11t-50.5 -7q-25 -4 -46.5 10.5t-25.5 40.5q-4 25 11.5 45.5 t39.5 24.5q4 2 54.5 9t117.5 11q66 4 112 2t77 -8t48 -15t30 -18q37 -27 43 -71q2 -23 5 -97.5t5 -184t4 -241t2 -262.5q0 -156 -2 -280.5t-6 -218.5q-4 -55 -7 -99.5t-7 -76.5q-8 -49 -17.5 -75t-25.5 -40q-10 -10 -25.5 -18.5t-42.5 -15.5t-67 -11t-97 -4h-26 q-66 2 -117 6t-56 4q-25 4 -41 23.5t-12 46.5z" />
<glyph unicode="_" horiz-adv-x="1155" d="M41 -358q4 27 23.5 42t44.5 11q55 -6 138 -10t177 -5.5t192.5 -1.5t184.5 2.5t151.5 5.5t94.5 7q25 2 44 -13.5t23 -41.5q4 -25 -12.5 -44.5t-40.5 -23.5q-27 -4 -98.5 -6t-153.5 -4t-157.5 -3t-110.5 -1q-29 0 -88.5 1t-126 3t-130 5t-102.5 9q-27 4 -42 23.5t-11 44.5z " />
<glyph unicode="`" horiz-adv-x="327" d="M21 1355.5q4 24.5 24 41.5q23 14 47.5 10t38.5 -25q35 -47 73 -88t85 -77q20 -16 22 -42t-14 -47q-18 -22 -47 -22q-20 0 -39 14q-53 43 -95 89t-83 102q-16 20 -12 44.5z" />
<glyph unicode="a" horiz-adv-x="823" d="M38 296q-4 34 -4 70q0 56 9 115q16 98 53 188.5t90 161.5q88 115 207 161q76 29 159 29q47 0 95 -9q25 -4 39 -25.5t8 -46.5q-4 -25 -24.5 -39t-46.5 -10q-38 7 -72 7q-23 0 -43 -3q-52 -8 -93.5 -29.5t-74.5 -50.5t-55 -59q-47 -59 -77 -134t-42 -159q-8 -49 -8 -95 q0 -26 3 -52q7 -70 29 -119q39 -80 113 -80q92 0 158 84q43 53 74.5 140t50.5 198q4 20 5 39.5t5 37.5q-4 18 -5 35t-3 31q-2 29 -3 51.5t-1 38.5q0 20 4 47t30 43q16 10 37 8t37 -14q16 -14 22.5 -37.5t8.5 -58.5q2 -27 1 -58.5t-3 -66.5q-2 -6 -2 -19q4 -37 9 -86t15 -114 q8 -61 16.5 -118.5t15.5 -102.5t9 -59l7 -42q1 -6 1 -11q0 -20 -12 -36q-16 -20 -41 -24t-45 11t-24 40q0 2 -9.5 57t-21.5 139q-35 -86 -77 -139t-86 -84t-88 -42t-83 -11h-2q-150 4 -223 149q-33 66 -42 153z" />
<glyph unicode="b" horiz-adv-x="854" d="M40 56q-1 11 -1 25q0 19 2 42q4 29 9 64.5t13 76.5q2 4 2.5 8t2.5 9q2 82 3 212v94q0 102 -1 234q0 125 -2 245t-3.5 213t-2.5 149.5t-1 58.5q0 27 17.5 44t42.5 19q27 0 45 -17t18 -44l1 -63q1 -62 3 -161.5t3.5 -227.5t1.5 -259q2 -29 2 -55.5v-52.5q66 143 141 225 q109 121 235 121q68 0 124 -35.5t91 -101.5q32 -59 46 -139q8 -46 8 -96q0 -37 -4 -75q-8 -92 -37 -176t-76 -155q-76 -115 -182.5 -173.5t-235.5 -58.5h-24.5t-24.5 2q-27 2 -43 21.5t-12 44.5q2 27 21.5 43t43.5 12q20 -2 40 -2q46 1 86 11q56 14 99.5 39.5t75 59 t54.5 68.5q37 59 61.5 129t30.5 148q3 30 3 59q0 38 -6 73q-10 62 -32 107q-41 72 -107 72q-76 0 -149 -86q-57 -63 -108.5 -171t-92.5 -249q-18 -66 -31 -123q-2 -47 -3 -84t-5 -65q-4 -37 -6 -54q-4 -10 -11 -32.5t-36 -32.5q-6 -2 -11 -3t-12 -1q-27 0 -47 20 q-16 18 -19 44z" />
<glyph unicode="c" horiz-adv-x="774" d="M27 481q0 225 112 373q51 66 115.5 106.5t136.5 51.5q19 2 37 3q74 0 133 -40q80 -51 105 -154q6 -25 -6.5 -46t-36.5 -30q-25 -6 -47.5 7.5t-28.5 38.5q-14 53 -51 79q-28 20 -66 21q-11 0 -24 -2q-45 -4 -89.5 -33t-78.5 -76q-31 -41 -59.5 -112.5t-28.5 -186.5 q0 -82 20 -140t53 -97t73 -61.5t79 -32.5q58 -17 115 -17q27 0 55 4q41 8 59.5 18.5t22.5 14.5q10 23 34.5 30t47.5 -5t29 -37q3 -10 3 -19q0 -14 -6 -28q-39 -68 -155 -93q-42 -8 -93 -8q-70 0 -127 15q-145 39 -231 139q-102 125 -102 317z" />
<glyph unicode="d" horiz-adv-x="874" d="M27 582q12 100 48 187t89 149q61 72 137 93q31 8 61 9l91 -19q143 -57 239 -223v2q2 131 6 257t6.5 225.5t4.5 161.5l2 61q3 27 21 44q17 15 39 15h5q24 0 42 -18q16 -17 16 -40v-5l-2 -57q-3 -58 -5 -150t-6 -212t-6 -245q-4 -123 -5 -217t-1 -168q6 -37 10 -70.5 t6 -62.5q7 -67 7 -125q0 -23 -1 -45q-2 -55 -10 -80.5t-28 -40.5q-18 -11 -36 -11q-16 0 -32 9q-23 14 -28 33.5t-7 32.5q0 10 -1 22t-3 29q0 29 -1 72t-1 96v61.5t2 69.5q-4 12 -6 24.5t-6 26.5q-12 57 -34 120.5t-53.5 120t-75.5 102.5t-103 71q-22 9 -43 9 q-56 0 -109 -60q-41 -47 -69.5 -118t-38.5 -150q-5 -40 -5 -80q1 -40 5 -80q10 -80 47 -144q82 -143 274 -143q52 0 111 10q25 4 46 -9t25 -40q4 -25 -10 -46.5t-39 -25.5q-72 -12 -135 -12q-100 0 -186 35q-125 49 -193 170q-44 78 -60 175q-8 49 -8 101q0 50 7 103z" />
<glyph unicode="e" horiz-adv-x="743" d="M29 481q0 227 112 381q51 68 117 109t137 51q18 2 36 3q73 0 136 -40q80 -55 105 -158q2 -2 2 -4q6 -38 6 -74q0 -77 -27 -143q-37 -94 -112 -153q-72 -55 -156 -72q-32 -6 -62 -6q-54 0 -106 20q-25 10 -35 33t0 47q10 23 34 34t46 1q30 -13 64 -12q18 0 38 3 q54 11 99 48q55 43 77 109q16 45 16 96q0 23 -3 47q-16 53 -52 79q-28 20 -65 21q-11 0 -24 -2q-47 -4 -92.5 -33.5t-79.5 -77.5q-31 -41 -59.5 -115.5t-30.5 -191.5q0 -94 23.5 -157.5t59 -102.5t75.5 -58.5t73 -27.5q42 -11 82 -11q32 0 63 7q35 8 48.5 17.5t15.5 13.5 q12 23 35.5 30t46.5 -4q23 -12 31 -36q3 -9 3 -19q0 -15 -8 -29q-35 -68 -143 -92q-23 -6 -46 -8t-48 -2q-55 0 -111 12q-139 35 -223 142q-98 126 -98 317v8z" />
<glyph unicode="f" horiz-adv-x="876" d="M18 596q2 25 20.5 42t43.5 17q18 -2 38 -2t42 2q-4 127 -4 251v82q2 163 20 278q18 123 70 188q55 78 143 78q57 0 111.5 -38t101.5 -110q45 -70 76 -164t47 -208q4 -25 -11.5 -45.5t-39.5 -24.5q-25 -4 -45.5 11.5t-24.5 41.5q-18 127 -49 204t-57 118 q-33 51 -61.5 71.5t-49.5 20.5q-29 0 -54.5 -45t-35.5 -117q-8 -53 -12 -120.5t-6 -144.5q-1 -51 -1 -105v-54q1 -82 5 -164q68 4 138.5 9.5t137.5 11.5q70 4 132.5 9t113.5 7q27 2 45 -15t20 -44q0 -25 -16 -43.5t-43 -20.5q-49 -2 -111.5 -7t-130.5 -9q-70 -6 -141.5 -11 t-140.5 -9q4 -84 8 -159t8 -134q4 -74 6 -122t2 -71q0 -25 -18.5 -42t-42.5 -17h-2q-25 0 -42.5 18.5t-17.5 44.5q0 16 -2 65.5t-6 115.5t-8 140.5t-8 155.5h-88q-25 0 -42.5 18.5t-17.5 45.5z" />
<glyph unicode="g" horiz-adv-x="759" d="M35 286q-4 34 -4 71q0 51 8 106q12 94 46 182t87 160q90 127 215 182q89 39 190 39q40 0 82 -6q27 -4 42.5 -24.5t11.5 -45.5t-24.5 -40t-47.5 -11q-34 5 -65 5q-34 0 -64 -6q-57 -11 -102 -36.5t-80 -59.5t-60 -69q-43 -59 -71.5 -134t-38.5 -153q-6 -45 -6 -85 q0 -29 3 -55q7 -64 31 -109q33 -68 101 -68h2q47 0 102 64q43 53 84 140t76 197q4 16 9 32t9 32v39.5t2 38.5q2 68 7 106q4 20 12 49t41 41q14 5 26 5q25 0 46 -21q16 -16 20 -41q2 -13 2 -27t-2 -30q-4 -51 -18 -115q-4 -16 -7.5 -30.5t-7.5 -30.5v-106.5t-2 -115.5 q-2 -250 -7 -424t-28 -245q-41 -121 -127 -172q-55 -31 -118 -31q-16 0 -30.5 2t-31.5 6q-53 12 -100 45t-82 80q-35 51 -50 111q-8 35 -8 69q0 27 5 53q4 25 25.5 40.5t45.5 11.5q25 -4 40.5 -25.5t11.5 -46.5q-4 -19 -4 -37q0 -21 5 -40q9 -36 29.5 -65.5t50 -49 t60.5 -27.5q16 -4 37.5 -4t44 10t43 34.5t35.5 72.5q8 27 14 80t9 121.5t5 149.5t2 161q-39 -74 -80 -121q-90 -109 -196 -109h-2q-68 0 -122 34t-89 99q-33 63 -43 147z" />
<glyph unicode="h" horiz-adv-x="811" d="M39 1460v5q1 21 15 39q16 20 40 22h6q24 0 40 -14q18 -16 22 -44l4 -59t11 -154.5t15.5 -217.5t14.5 -251q2 -18 3 -37.5t1 -37.5q25 57 49.5 104t50.5 84q88 125 185 125q80 0 139 -61q70 -74 110 -238q16 -61 25.5 -136t15.5 -161q6 -72 7.5 -137.5t1.5 -115.5t-1 -81 t-1 -33q-2 -27 -20.5 -44t-45.5 -15q-25 2 -42 20.5t-15 45.5q2 49 2 106q0 49 -2 112.5t-6 135.5q-8 117 -22.5 197.5t-31 133t-34 82t-29.5 42.5q-16 16 -28.5 20t-22.5 4q-4 0 -23.5 -9t-52.5 -52q-47 -63 -95.5 -175t-84.5 -249q-4 -14 -7.5 -27.5t-7.5 -26.5v-59v-98 t-4 -76q-4 -49 -11 -74.5t-24 -42.5q-20 -20 -47 -20q-6 0 -8 2q-10 0 -33.5 12t-34.5 57q-4 15 -4 38q0 15 2 34q2 47 13.5 109.5t27.5 132.5q-4 86 -8 195.5t-10 240.5q-8 123 -16.5 238.5t-14.5 206t-10 145.5t-4 57z" />
<glyph unicode="i" horiz-adv-x="237" d="M29 623q0 59 3 117.5t9 107.5q2 23 4 40t6 32q4 20 10.5 37.5t24.5 29.5q23 12 47.5 7t38.5 -27q8 -16 8 -31.5t-8 -30.5q-4 -23 -12 -105.5t-10 -207.5q0 -150 13 -280t40 -226q3 -9 3 -18q0 -16 -8 -30q-14 -22 -38 -28q-5 -2 -17 -2q-20 0 -36.5 11.5t-20.5 33.5 q-20 74 -32.5 154t-17.5 155.5t-6 143t-1 117.5zM54 1192v6q0 22 7 41q14 47 45 74q10 8 19.5 12t21.5 4q25 0 41 -16t17 -41q0 -10 -3 -21.5t-14 -17.5q-2 -2 -4 -3t-4 -5q0 2 -3 -2t-3 -6l-4 -9v-4v6q-2 -4 -2 -12q0 2 1 2t1 2q0 -2 -2 -4q0 -14 2 -22v-2v2q0 -6 2 -11 l-2 2q4 -25 -6 -39q-10 -20 -33 -26q-6 -1 -12 -1q-17 0 -33 8q-22 11 -27 34q-4 25 -5 49zM170 1167v7v-7zM174 1219q0 2 1 2t1 2q0 -2 -2 -4z" />
<glyph unicode="j" horiz-adv-x="262" d="M-116 -432q3 24 26 41q76 57 123 198q23 66 37 146t24 176q8 88 10 177q1 59 1 117v57q-1 85 -5 162t-6 138q-4 72 -5 112t1 60q4 25 23.5 41.5t46.5 12.5q25 -4 41 -23.5t12 -46.5q-2 -12 -1 -55.5t5 -94.5q6 -129 11 -306q1 -42 1 -85q0 -136 -12 -276 q-18 -211 -67 -350q-59 -178 -166 -258q-16 -12 -37 -13q-31 0 -49 25q-14 17 -14 38v7zM58 1202v8q0 9 1 19q4 23 7.5 43t13.5 41q6 23 24 35q15 8 31 8l15 -2q20 -6 34 -28q9 -13 9 -27q0 -8 -3 -17q-6 -14 -9 -27.5t-7 -27.5q0 -6 -1 -13.5t1 -13.5v-4q2 -2 3 -4t-3 2 q12 -16 12 -33q0 -20 -16 -41q-20 -16 -41 -16q-10 0 -22.5 4t-18.5 12q-20 29 -27 56q-2 14 -3 26zM170 1198l2 -2v2h-2z" />
<glyph unicode="k" horiz-adv-x="862" d="M37 72q4 94 9 217t9 258t7.5 273t4.5 262v54q-1 92 -3 170q-4 100 -11 160q-4 27 12.5 46.5t40.5 23.5q5 1 10 1q20 1 36 -13q20 -16 24 -41q6 -49 9 -124t4 -167v-63q0 -63 -1 -133q-2 -104 -4 -214q41 33 98.5 76t135.5 103q55 41 103 77.5t77 59.5q18 16 44 14t42 -20 q16 -20 14 -46t-22 -42q-29 -25 -78 -63t-106 -79q-53 -39 -104.5 -79t-96.5 -74q-41 -33 -62.5 -52.5t-31.5 -29.5q14 -29 54 -89.5t101 -138.5q84 -102 161 -169.5t142 -92.5q33 -15 61 -15q24 0 44 11q23 12 47.5 6.5t36.5 -28.5q8 -15 8 -31q0 -8 -2 -16q-6 -24 -29 -37 q-47 -27 -104 -27h-16.5t-16.5 2q-61 8 -133 49q-49 29 -97 70t-91.5 84t-78 85t-59.5 72q-14 16 -26.5 34t-24.5 34q-4 -104 -7 -196.5t-7 -167.5q0 -25 -18.5 -42.5t-43.5 -17.5h-2q-25 2 -42 20.5t-17 45.5z" />
<glyph unicode="l" horiz-adv-x="249" d="M31 519q0 122 4 276q4 129 11 250.5t14.5 217t12.5 154t5 60.5q2 27 22 43q16 13 35 13q5 0 10 -1q25 -2 41.5 -21.5t14.5 -44.5q0 -2 -5.5 -56t-11.5 -143t-13 -205t-11 -239q-6 -143 -7 -260v-46q0 -90 3 -163q4 -70 9 -114.5t11 -71.5t11.5 -39t7.5 -16q20 -12 26 -34 q2 -9 2 -17q0 -14 -6 -27q-16 -35 -55 -35q-14 0 -27 6q-35 16 -51 53t-25 68q-8 35 -13 79t-9 99q-6 92 -6 214z" />
<glyph unicode="m" horiz-adv-x="1087" d="M39 977q0 25 17.5 43t41.5 18q27 0 44.5 -17t17.5 -42q2 -4 3 -24.5t5 -49.5q2 -29 5 -66.5t7 -82.5q20 57 43 98q68 129 160 129q18 0 44 -8t52 -35q57 -59 90 -217q4 -23 8.5 -47.5t8.5 -52.5q16 72 34.5 129t36.5 104q12 29 28.5 60.5t37 57t47.5 43t59 17.5 q16 0 39 -7t45 -30q14 -16 32 -45.5t34 -88t31.5 -153t25.5 -237.5q6 -76 8.5 -146.5t3.5 -125t1 -88v-35.5q-2 -25 -19.5 -42.5t-42.5 -17.5h-2q-25 0 -43 17.5t-16 44.5v35t-1 91t-3 128t-9 149q-8 90 -17 163t-22 130q-14 66 -26 94.5t-21 36.5q-8 -8 -25.5 -34.5 t-41.5 -94.5q-39 -109 -80 -293q-16 -78 -29.5 -152.5t-23 -132t-14.5 -92.5l-5 -36q-4 -25 -22.5 -41.5t-42.5 -12.5q-25 2 -41.5 20.5t-14.5 41.5v35v91t-2 128t-8 145q-12 168 -41 275q-20 68 -37 90q-8 12 -16 16q-2 0 -8 -4t-19 -20q-35 -47 -69.5 -152.5t-61.5 -249.5 q-4 -23 -7 -43t-7 -41q6 -102 6 -168q0 -20 1 -38q0 -52 -5 -74q-6 -30 -23 -47q-20 -21 -47 -21q-4 0 -14 1t-20.5 8t-20.5 20.5t-14 38.5q-4 10 -4 25.5v33.5q0 41 4 100.5t14 126.5q-2 18 -2 39t-4 43q-4 63 -9 129t-10.5 126.5t-10.5 112.5t-7 89q-4 51 -5 64.5t-1 17.5 z" />
<glyph unicode="n" horiz-adv-x="741" d="M41 961v5q-1 22 15 38q18 18 44 20q25 0 43.5 -16.5t20.5 -42.5l1 -26q1 -26 3 -69t4 -99t4 -120q12 37 24.5 72t28.5 70q41 90 86 143q57 72 127 76q20 2 47 -5.5t56 -33.5q68 -63 102 -228q27 -119 43 -299q6 -76 10.5 -144.5t6.5 -121.5t2 -87v-36q-2 -25 -19.5 -42 t-42.5 -17h-2q-25 0 -42 17.5t-17 43.5v32t-2 84t-5.5 119.5t-9.5 141.5q-12 127 -27.5 210t-30.5 133t-28.5 72.5t-21.5 31.5q-8 8 -10 6q-14 0 -37 -25q-43 -49 -88 -161.5t-86 -270.5q-20 -76 -32.5 -141.5t-23.5 -116.5v-47.5t-2 -36.5q0 -12 -1 -20.5t-3 -16.5 q-6 -35 -23.5 -46t-29.5 -13q-4 -2 -12 -2q-31 0 -50 24q-12 16 -14 42v12q0 26 6 75q2 10 3 20.5t3 20.5q1 26 1 60t-1 78q-2 86 -6 221q-2 80 -5 153.5t-5 132t-3 94.5z" />
<glyph unicode="o" horiz-adv-x="819" d="M32 448q1 62 11 125q14 86 45 164t76 137q106 145 256 146h8q141 -6 240 -135q41 -53 68.5 -123t39.5 -150q9 -57 9 -115v-11q-1 -64 -11 -124q-25 -133 -100 -221q-51 -61 -121 -95t-156 -36h-12q-158 0 -252 111q-68 84 -92 211q-9 50 -9 105v11zM164 350 q16 -94 63 -149q57 -68 158 -68h8q119 4 187 86q52 63 72 163q10 54 11 111q0 49 -8 101q-10 55 -29.5 108.5t-48 96.5t-67.5 69.5t-86 28.5h-4q-53 0 -93 -31.5t-65 -64.5q-74 -98 -98 -248q-8 -54 -8 -105t8 -98z" />
<glyph unicode="p" horiz-adv-x="821" d="M37 958v5q0 22 15 39q18 20 42 22h6q23 0 40 -14q18 -17 20 -43q0 -2 5 -79t13 -200q12 39 26.5 75t31.5 66q20 41 44.5 74t51.5 55q69 54 142 54h3q86 -2 154.5 -48.5t113.5 -134.5q35 -66 51 -149q12 -65 12 -135q0 -19 -1 -37q-4 -92 -29.5 -175t-72.5 -149 q-63 -96 -166 -147q-91 -42 -193 -42q-27 0 -55 3q-25 4 -41.5 22.5t-13.5 45.5q4 25 23.5 41t43.5 14q23 -2 44 -2q165 0 257 135q35 51 55.5 117.5t24.5 137.5q1 19 1 38q0 52 -8 103q-11 69 -40 124q-20 39 -59 77t-103 38q-10 0 -34.5 -6t-59.5 -49 q-63 -82 -107.5 -260.5t-64.5 -434.5q6 -113 9 -204t5 -162q2 -53 2 -95.5v-70.5q-2 -31 -6 -51q0 -12 -4 -25q-10 -27 -26.5 -35t-24.5 -10h-12q-31 0 -50 25q-4 6 -8 13t-7 27.5t-6 57.5t-5 98q-3 53 -3 111q0 29 1 59q2 90 8 180q0 20 1 41t3 43q-2 37 -3 77t-5 83 q-6 125 -13.5 243t-13.5 210t-10 147t-4 57z" />
<glyph unicode="q" horiz-adv-x="798" d="M16 459q-2 25 -2 50q0 64 12 127q15 87 50 161q23 49 51.5 88t62.5 67q82 70 179 72h6q75 0 137 -47q51 -41 96 -123q8 -20 21 -41q2 33 2 58.5t2 43.5q0 23 2 39q2 27 20.5 44.5t42.5 15.5q27 -2 44 -20q16 -17 16 -41v-5l-2 -50t-6.5 -133t-9.5 -190.5t-11 -224.5 q8 -72 12 -142.5t7 -133.5q3 -61 3 -123q0 -31 -1 -63q-2 -93 -7 -175q-4 -63 -7 -101t-8 -58.5t-9 -28.5t-8 -12q-18 -25 -49 -25h-15q-8 2 -23.5 11t-25.5 36q-2 4 -2 9t-2 14q-2 10 -3 22t-1 29q-1 29 -1 70t1 94q0 88 4 208.5t10 274.5q0 23 1 45.5t1 44.5 q-18 182 -54 309t-85 193q-29 37 -52.5 46t-39.5 7q-39 -2 -70 -18.5t-53.5 -40t-38.5 -50t-25 -47.5q-31 -63 -43 -137q-8 -51 -8 -103q0 -22 1 -43q5 -73 25.5 -137.5t57.5 -109.5q74 -93 195 -93q37 0 78 9q25 4 46 -9t25 -40q6 -25 -8 -46.5t-39 -25.5q-55 -10 -103 -10 q-69 0 -126 20q-96 33 -164 117q-98 127 -109 322z" />
<glyph unicode="r" horiz-adv-x="655" d="M41 961q-2 8 -2 15q0 16 9 31q13 21 38 25q9 2 17 2q17 0 31 -9q22 -13 26 -38q12 -55 18 -102q4 6 7 12t8 12q61 100 141 119q10 2 22 2q26 0 58 -9q47 -13 98 -79q70 -88 129 -278q3 -10 3 -20q0 -14 -7 -28q-12 -22 -37 -28q-23 -8 -45.5 3t-30.5 36 q-33 104 -61.5 159.5t-46.5 79.5q-8 10 -24.5 27.5t-33.5 13.5q-10 -2 -25.5 -14t-32.5 -41t-36.5 -76t-36.5 -114q-6 -29 -12 -60t-10 -63q0 -141 -6 -283q-2 -49 -3 -95t-1 -93q0 -25 -17.5 -42.5t-40.5 -17.5h-4q-23 0 -40 15.5t-21 39.5q-8 102 -8 205v41q2 123 18 238 q-2 104 -10.5 206.5t-30.5 207.5z" />
<glyph unicode="s" horiz-adv-x="641" d="M33 381q0 25 18.5 42t44.5 17q25 -2 42.5 -20.5t17.5 -42.5q-1 -15 -1 -29q0 -44 10 -80q13 -46 34.5 -77t50.5 -48.5t59 -21.5q12 -2 24 -2q37 -1 75 17q52 24 69 87q4 16 4 31q0 52 -46 104q-60 66 -163 150q-74 59 -135 117.5t-80 128.5q-8 35 -8 67q0 86 62 146 q45 45 118 57q27 4 53 5q44 0 85 -13q80 -23 137 -82q63 -66 86 -160q6 -25 -7.5 -46t-37.5 -28q-25 -6 -46.5 7.5t-27.5 37.5q-10 41 -28.5 69t-39 45.5t-40 26.5t-31.5 13q-27 7 -53 7q-13 0 -25 -2q-37 -5 -59 -25q-23 -23 -23 -57q0 -17 6 -38q8 -41 60.5 -88t111.5 -94 q49 -41 98.5 -82t86.5 -88q68 -91 68 -179q0 -32 -9 -63q-25 -90 -95.5 -142t-162.5 -52q-10 0 -22.5 1t-22.5 3q-115 18 -189 115q-70 95 -70 239q0 13 1 27z" />
<glyph unicode="t" horiz-adv-x="735" d="M20 821q-1 6 -1 11q1 20 13 36q16 20 42 23q8 2 32.5 5t59.5 7q2 33 3 65.5t5 67.5q4 86 9 175t10 188q2 25 20 42q16 15 38 15h5q27 -2 44 -20.5t15 -42.5q-4 -98 -9 -187.5t-9 -177.5q-2 -29 -3 -55.5t-3 -52.5q39 6 78 10t72.5 8t59 6t38.5 2q25 0 43 -17.5t18 -43.5 q0 -25 -18.5 -43.5t-42.5 -18.5q-18 0 -92 -8t-164 -20q-7 -123 -9 -223q-1 -39 0 -75q0 -57 2 -108q2 -68 10 -113t16.5 -74.5t18 -44t19.5 -20.5q23 -14 47 -14q18 0 37 8q53 18 98 87t80 175q8 23 30.5 35t45.5 4q25 -8 37 -30q7 -14 7 -28q0 -9 -3 -18 q-43 -139 -107 -223q-63 -88 -143 -119q-20 -6 -39.5 -10t-40.5 -4q-59 0 -110 33q-49 29 -77 89t-40 152q-11 85 -11 199v19q1 126 9 286l-36 -4t-34 -4q-2 -2 -8 -2q-23 0 -40 15.5t-22 37.5z" />
<glyph unicode="u" d="M39 596q-1 37 -1 72.5t1 69.5q2 68 5 119.5t5 83.5t2 34q4 27 23.5 43t44.5 12q27 -2 43 -21.5t12 -43.5l-2 -31t-5 -82q-3 -50 -5 -116q-1 -33 -1 -67.5t1 -70.5q2 -121 12 -203t24.5 -135t29 -81.5t26.5 -41.5q12 -12 21.5 -15t17.5 -3q31 0 72 47q47 57 88 170t71 270 q10 43 16.5 84t10.5 78v61q-1 25 -1 45v19q1 27 1 47q2 29 7 53.5t28 40.5q15 10 32 10q15 0 31 -8q29 -14 34 -43.5t5 -52.5q2 -20 0 -47t-6 -59q-2 -18 -3 -36t-5 -36q2 -51 5 -117.5t7 -157.5q2 -80 6 -154.5t7 -133t5 -93.5l3 -36v-6q-1 -24 -15 -40q-16 -18 -43 -20 q-25 -2 -43 14.5t-20 42.5q0 2 -5.5 71t-9.5 173q-12 -35 -25.5 -65.5t-27.5 -59.5q-92 -180 -223 -184h-4q-74 0 -127 57q-117 125 -125 543z" />
<glyph unicode="v" d="M31 935v34q0 27 17.5 44t43.5 17q27 0 44.5 -17.5t17.5 -43.5q0 -53 2 -113q2 -51 6 -116.5t12 -137.5q12 -121 29.5 -203t36 -135t36 -80.5t29.5 -40.5q12 -10 21.5 -13t15.5 -3q37 2 66.5 38t48.5 73q27 51 48 123.5t40 164.5q16 80 26.5 157t15.5 138.5t7 98.5l2 38 q0 25 18.5 42.5t44.5 15.5q25 0 42.5 -18.5t17.5 -45.5q0 -4 -2 -43t-8.5 -101.5t-16.5 -141t-26 -162.5q-41 -205 -101 -322q-86 -172 -217 -178h-8q-63 0 -119 51q-72 68 -117 234q-16 61 -28.5 137t-22.5 164q-8 74 -13 141.5t-7 119.5t-2 84z" />
<glyph unicode="w" horiz-adv-x="987" d="M35 958v6q1 24 15 40q16 18 42 22h5q21 0 39 -14q20 -16 22 -43l3 -35t8 -90.5t13 -128t19 -148.5q10 -92 22.5 -165.5t22.5 -131.5q4 -20 7 -35.5t7 -29.5q10 37 17.5 83t17.5 95q10 70 23.5 138.5t29.5 123.5q10 33 19.5 57.5t21.5 40.5q27 43 55.5 52.5t44.5 7.5 q47 -4 73 -50t44 -102q16 -49 30.5 -111.5t29.5 -125.5q12 -53 24 -105.5t27 -97.5q4 -12 6 -21.5t6 -19.5q12 45 28.5 136t35.5 257q8 78 15 150.5t12 129t7 91.5l2 35q5 27 23 43q16 14 38 14h5q27 -2 43 -20q14 -16 14 -39v-6l-3 -40q-3 -40 -8 -103.5t-12 -145.5 t-18 -166q-12 -100 -25.5 -179t-25.5 -139q-10 -37 -17 -64.5t-18 -49.5q-6 -14 -25.5 -44t-60.5 -34h-6q-18 0 -40.5 11t-45.5 46q-18 27 -39 90q-16 51 -31.5 115t-29.5 129q-12 53 -24.5 105.5t-24.5 95.5q-6 18 -11.5 32.5t-9.5 24.5q-4 -10 -9 -27.5t-11 -39.5 q-10 -47 -20.5 -103.5t-20.5 -114.5q-10 -59 -21.5 -114.5t-21.5 -100.5q-8 -27 -14.5 -46t-14.5 -36q-31 -55 -78 -61q-12 0 -30.5 4t-36.5 27q-14 14 -27 43q-10 20 -17.5 48t-17.5 64q-12 57 -25.5 136t-27.5 180q-10 84 -19.5 166t-15.5 145.5t-10 102.5z" />
<glyph unicode="x" horiz-adv-x="784" d="M45 47q-3 10 -3 20q0 14 7 27q43 80 106.5 183.5t135.5 216.5q-14 29 -28.5 57.5t-29.5 56.5q-45 92 -88 177t-84 151q-12 23 -7 46.5t28 37.5t47.5 8t38.5 -29q41 -70 85 -155.5t91 -179.5q6 -14 12 -26.5t13 -25.5q63 94 124.5 185.5t116.5 175.5l23 31q15 24 39 28 q5 1 10 0q19 0 37 -12q19 -14 25 -38q1 -6 2 -13q0 -17 -11 -33l-22 -33q-61 -92 -135 -199.5t-146 -218.5q33 -63 65.5 -121.5t64.5 -107.5t63.5 -85t60.5 -54q23 -14 28 -39t-9 -47q-18 -29 -52 -29q-16 0 -32 10q-47 29 -96.5 88.5t-106.5 155.5q-31 51 -62 111 q-59 -94 -111 -179.5t-87 -150.5q-8 -16 -22.5 -24.5t-31.5 -8.5q-16 0 -28 6q-23 12 -31 37z" />
<glyph unicode="y" d="M17 746q1 67 4.5 118t5.5 82t2 33q2 27 21 43q18 14 39 14h5q27 -4 43.5 -22.5t14.5 -44.5l-4 -30q-3 -30 -5 -80t-3 -115v-43q0 -45 1 -93q4 -119 15.5 -201.5t27 -136t30.5 -83t28 -44.5q16 -18 28.5 -22t22.5 -4h3q30 0 64 41q47 53 91.5 165.5t78.5 266.5 q10 47 19.5 92t13.5 84v90q0 29 1 49.5t3 36.5q0 14 4 31q6 29 24.5 41t37.5 14q37 0 57 -33q8 -12 12 -39q2 -8 2 -23q0 -28 -6 -79q-2 -43 -12 -96q2 -41 2 -87t2 -89q2 -145 3 -314v-66q0 -132 -3 -253q-4 -121 -10 -201t-15.5 -130t-19.5 -76.5t-20 -41.5 q-21 -26 -52 -26q-18 0 -34 10q-23 16 -27 39.5t10 46.5q4 4 11.5 28.5t17.5 96.5q6 47 10 112.5t6 145.5q4 78 4 165t-2 173q-29 -78 -65 -141q-92 -156 -211 -156h-4q-78 0 -139 67q-70 80 -101 244q-25 125 -31 301q-1 49 -1 95v45z" />
<glyph unicode="z" horiz-adv-x="690" d="M45 928q-2 7 -2 14q1 17 11 32q14 21 38 27q4 0 60.5 10.5t132.5 14.5q29 2 56 1q179 0 243 -69q25 -28 25 -71q0 -23 -7 -51q-14 -41 -55 -115q-35 -61 -84 -131t-101 -139q-41 -55 -76.5 -106.5t-64.5 -96.5q-29 -43 -40 -67.5t-15 -35.5q12 -6 60 -16q40 -8 125 -8h36 q41 0 78 2t65 6q35 4 64 6q27 4 46 -11t24 -42q1 -5 1 -10q1 -18 -13 -34q-16 -20 -42 -24q-2 0 -22.5 -3t-54 -5t-75.5 -5t-87 -3h-15q-137 0 -210.5 23.5t-96.5 76.5q-8 19 -8 39q-1 23 9 48q18 48 54 108q31 51 72 108.5t86 120.5q43 59 86 119.5t76 114.5q35 57 47 85.5 t14 39.5q-12 8 -54 18q-26 6 -74 6q-28 0 -64 -2q-70 -4 -122 -13t-54 -9q-25 -4 -46.5 9t-25.5 38z" />
<glyph unicode="{" horiz-adv-x="565" d="M14 512q6 51 78 80q23 8 55.5 15t77.5 14q2 2 4 16t-4 53q-6 35 -18 79t-25 91q-18 66 -36.5 134.5t-25.5 133t3 123t47 103.5q43 53 115 71q72 23 170 13q27 -2 43 -21.5t14 -44.5q-4 -27 -22.5 -43t-45.5 -12q-139 10 -180 -41q-20 -27 -23 -70t5 -95t22.5 -108.5 t30.5 -107.5q33 -111 49.5 -194t-16.5 -140q-25 -47 -76 -59q-2 -2 -8 -2q-16 -4 -31.5 -5t-26.5 -6q8 -4 14.5 -6t10.5 -4q12 -6 21.5 -10t17.5 -8q96 -49 92 -189q-2 -49 -12 -105t-23 -114q-10 -47 -19 -92t-13 -82q-4 -61 14 -80q2 -4 12 -8t29.5 -4t51.5 5t81 22 q25 8 47.5 -4t30.5 -37t-4.5 -47.5t-36.5 -30.5q-35 -10 -78 -20.5t-86 -10.5q-35 0 -68.5 10.5t-60.5 34.5q-61 55 -53 178q2 45 12 94.5t20 100.5q8 41 17.5 85t13.5 82t0 65.5t-22 37.5q-4 2 -12.5 6t-18.5 9q-20 8 -43 18t-43 23q-14 8 -23.5 15t-19.5 15 q-18 23 -22.5 41.5t-2.5 32.5z" />
<glyph unicode="|" horiz-adv-x="208" d="M35 522v92v64.5t1 106t3 126t4 128t4 111.5t6 77t23.5 42t44.5 11q27 -4 42 -23.5t11 -44.5q-6 -55 -10 -177t-5 -276.5t-1 -321.5t2 -311t5 -249.5t7 -134.5q2 -25 -13.5 -44.5t-41.5 -23.5q-25 -4 -44.5 12.5t-23.5 41.5q-2 16 -4 82.5t-3 157.5t-3 194.5t-3 197 t-1 162.5z" />
<glyph unicode="}" horiz-adv-x="565" d="M20 -227q8 25 31 37t47 4q49 -16 81 -21.5t51.5 -5.5t28.5 4t13 8q18 18 15 80q-4 37 -13.5 82t-19.5 92q-12 57 -22.5 113.5t-12.5 105.5q-4 139 92 189q8 4 17.5 8t21.5 10q4 2 10.5 4t14.5 6q-10 4 -25.5 5.5t-32.5 5.5q-6 0 -8 2q-51 12 -76 59q-33 57 -16.5 140 t49.5 194q14 51 29.5 107.5t24 108.5t5.5 95t-24 70q-41 51 -180 41q-27 -4 -45.5 12.5t-22.5 42.5q-2 25 14.5 44.5t43.5 21.5q98 10 170 -13q72 -18 114 -71q37 -45 47.5 -103.5t3 -123t-26 -133t-36.5 -134.5q-12 -47 -24.5 -91t-18.5 -79q-6 -39 -4 -53t4 -16 q45 -6 78 -13.5t55 -15.5q72 -29 78 -80q2 -14 -2 -32.5t-23 -41.5q-10 -8 -19 -15t-24 -15q-20 -12 -42.5 -22.5t-43.5 -18.5q-10 -4 -18 -8.5t-12 -6.5q-18 -10 -22.5 -37.5t-0.5 -65.5t12.5 -82t18.5 -85q10 -51 20.5 -100.5t12.5 -94.5q8 -123 -54 -178 q-27 -25 -60.5 -35t-68.5 -10q-43 0 -86 10.5t-78 20.5q-25 8 -37 30.5t-4 47.5z" />
<glyph unicode="&#xa1;" horiz-adv-x="231" d="M25 311q0 59 3 117.5t9 108.5q2 23 4 40t6 31q4 20 10 38t25 30q23 12 47.5 7t38.5 -28q16 -33 0 -61q-4 -23 -12.5 -105.5t-10.5 -207.5q0 -74 3.5 -162t10.5 -172t17 -159t23 -122q8 -25 -5.5 -47t-37.5 -29q-5 -2 -17 -2q-20 0 -36.5 11.5t-20.5 33.5 q-20 74 -32.5 170.5t-17.5 193.5t-6 181t-1 133zM72 922.5q2 33.5 16 64.5t39 37q4 0 8 1t8 1q45 0 60 -47q0 -2 2 -11.5t4 -23.5q2 -16 0 -39t-16 -43q-23 -27 -58 -26q-35 0 -50 26.5t-13 60z" />
<glyph unicode="&#xa3;" horiz-adv-x="802" d="M23 690q0 27 17 44.5t44 19.5h111q-8 47 -16.5 94t-18.5 90q-16 76 -27.5 144.5t-12.5 126t13 103.5t51 77q63 55 191 38q59 -8 133 -28.5t170 -57.5q23 -10 34 -33.5t1 -45.5q-10 -25 -34 -35t-46 0q-176 66 -273 78q-72 10 -98 -11q-25 -20 -20 -98q4 -47 14 -105.5 t25 -127.5q10 -49 19 -101.5t17 -105.5h76h131.5t141.5 2q25 2 43 -15.5t18 -44.5q2 -27 -16.5 -44t-42.5 -19q-78 -2 -141.5 -2h-131.5h-61q6 -55 6 -113q6 -221 -61 -397l448 6q25 0 43 -17.5t18 -43.5q0 -25 -17 -43.5t-44 -18.5l-545 -8q-35 0 -53 29q-8 14 -9 30.5 t7 30.5q70 131 84 269.5t0 273.5h-127q-25 0 -43 17.5t-18 41.5z" />
<glyph unicode="&#xa8;" horiz-adv-x="411" d="M39 1178q-2 16 0 39t16 43q23 27 58 26q27 0 44 -17.5t17 -43.5q0 -23 -12 -37q0 -6 4 -14q6 -25 -7.5 -47.5t-37.5 -28.5q-4 0 -8 -1t-9 -1q-45 0 -59 47q0 2 -2 11t-4 24zM240 1178q-2 16 0 39t16 43q23 27 57 26q27 0 44.5 -17.5t17.5 -43.5q0 -23 -13 -37q0 -6 5 -14 q6 -25 -7.5 -47.5t-37.5 -28.5q-4 0 -8.5 -1t-8.5 -1q-45 0 -59 47q0 2 -2 11t-4 24z" />
<glyph unicode="&#xa9;" horiz-adv-x="1226" d="M52 770q18 137 71 258q59 131 151 223q102 102 236 150q82 29 158 29q106 0 202 -54q84 -49 154 -139q63 -82 103.5 -189.5t52.5 -226.5q16 -135 -4.5 -261t-73.5 -230q-127 -250 -395 -312q-76 -16 -140 -16q-209 0 -350 152q-125 135 -160 346q-23 133 -5 270z M172 748.5q-12 -117.5 6 -226.5q6 -35 25.5 -101.5t62.5 -132t116 -114.5t185 -49q54 0 113 12q115 27 192.5 94.5t122.5 160.5t60.5 200.5t3.5 214.5q-12 104 -46 195.5t-85 160.5q-39 49 -102.5 96.5t-157.5 47.5q-29 0 -57.5 -5.5t-59.5 -15.5q-115 -41 -195 -125 t-126 -189.5t-58 -223zM319 643q10 135 39 248t78 199q43 76 103 124q61 45 129 50q35 0 70.5 -14.5t66.5 -47.5t53.5 -87t30.5 -132q2 -27 -14.5 -45t-40.5 -23q-27 -4 -45.5 12.5t-22.5 43.5q-8 78 -34.5 124t-61.5 46q-23 0 -57.5 -25.5t-69.5 -87.5 q-29 -49 -59.5 -144.5t-41.5 -248.5q-10 -154 20 -243t91 -97q31 -4 66.5 11.5t70.5 45.5q35 31 59.5 73t34.5 83q4 25 24.5 39t45.5 10q27 -4 41 -25.5t8 -46.5q-10 -61 -45 -120.5t-88 -104.5q-98 -88 -205 -88q-18 0 -26 2q-57 6 -101.5 41t-72.5 94q-57 119 -46 334z " />
<glyph unicode="&#xad;" horiz-adv-x="612" d="M37 567q4 27 23.5 42.5t43.5 11.5q82 -10 139.5 -13.5t100.5 -3.5t81 4t81 10q25 2 44 -13t23 -42q4 -25 -12 -44t-41 -23q-53 -6 -110 -10.5t-127 -4.5q-29 0 -48.5 1t-38 3t-43 5.5t-63.5 9.5q-27 4 -42 23.5t-11 43.5z" />
<glyph unicode="&#xaf;" horiz-adv-x="694" d="M39 1241q4 27 23.5 42t43.5 11q166 -20 280 -16t202 14q25 2 44 -13t23 -42q4 -25 -12 -44t-41 -24q-53 -6 -110 -10t-127 -4q-59 0 -127 4t-146 15q-27 4 -42 23.5t-11 43.5z" />
<glyph unicode="&#xb4;" horiz-adv-x="327" d="M16.5 1174q1.5 26 22.5 43q47 37 85 77.5t73 87.5q14 20 38.5 24.5t47.5 -9.5q20 -16 24 -41t-12 -45q-41 -55 -83 -101.5t-95 -89.5q-19 -14 -39 -14q-29 0 -47 22q-16 20 -14.5 46z" />
<glyph unicode="&#xb7;" horiz-adv-x="212" d="M33 594q-2 16 0 39t16 43q23 27 57 26q35 0 50.5 -27.5t13.5 -61t-16.5 -63.5t-38.5 -36q-4 0 -8.5 -1t-8.5 -1q-45 0 -59 47q0 2 -2 11.5t-4 23.5z" />
<glyph unicode="&#xb8;" horiz-adv-x="360" d="M41 -199q2 25 4 47q2 20 3 45t3 52q2 25 19.5 42t44.5 15q25 -2 43 -20.5t16 -42.5q0 -20 -2 -40t-4 -36q72 -4 119 -41q53 -41 57 -107q6 -68 -47 -121q-20 -18 -58.5 -35.5t-97.5 -17.5h-22.5t-24.5 2q-25 4 -41 23.5t-12 44.5q4 27 23.5 43t44.5 12q51 -6 74.5 3 t29.5 16q10 10 8 22q0 8 -10 19q-31 23 -98 10q-27 -6 -52 14t-20 51z" />
<glyph unicode="&#xbf;" horiz-adv-x="544" d="M27 -180q8 -84 47 -142q43 -66 112 -77q31 -4 76 4t98 53q41 33 79 84t73 117q10 23 3 47t-30 37q-23 10 -47 3t-37 -30q-55 -109 -108 -154t-84 -41q-23 4 -39 35t-23 80q-14 119 50.5 305.5t199.5 468.5q10 23 1 47.5t-31 34.5q-12 6 -25 6q-39 0 -57 -34 q-35 -72 -65 -131.5t-55.5 -112.5t-46 -104.5t-36.5 -106.5q-73 -239 -55 -389zM274 920.5q2 33.5 16.5 64.5t39.5 37q4 0 8 1t8 1q45 0 60 -47q0 -2 2 -11.5t4 -23.5q2 -16 -0.5 -39t-16.5 -43q-23 -27 -57 -26q-35 0 -50.5 26.5t-13.5 60z" />
<glyph unicode="&#xc0;" horiz-adv-x="825" d="M25 545q2 -25 19 -41.5t42 -16.5h6q-4 -84 -4 -154.5v-123.5v-44t1 -56.5t2 -52t3 -31.5q4 -23 21.5 -36.5t40.5 -13.5q8 0 12 2q23 4 37 25t10 43q0 8 -2 47t-2 99.5v137.5t4 163h31q86 4 169 7t163 11q2 -92 2 -175t-1 -146.5t-3 -100.5l-1 -37q0 -27 16.5 -45 t43.5 -18q27 -2 44 15t19 42q0 2 1 41t2 104.5t0 152.5t-3 183q14 2 27.5 4t26.5 5q27 6 40 26t9 47q-4 25 -25.5 38t-46.5 9q-10 -2 -18.5 -3t-16.5 -3q-8 125 -19 229.5t-28 190.5q-45 238 -131 320q-57 51 -127 45q-78 -10 -133 -86q-76 -104 -115 -330 q-16 -86 -27.5 -187.5t-17.5 -220.5h-12q-25 -2 -42 -20.5t-17 -44.5zM219 614q10 172 27.5 291t38 196t40 119t35.5 60q20 27 43 31q4 0 11.5 -1t17.5 -12q12 -12 31.5 -45.5t40 -108.5t39 -198t28.5 -313q-78 -8 -159.5 -11.5t-167.5 -7.5h-25zM268.5 1765q3.5 25 24.5 41 q23 14 47.5 10t38.5 -24q35 -47 72.5 -88t85.5 -78q20 -16 22 -41.5t-14 -46.5q-18 -22 -47 -22q-20 0 -39 14q-53 43 -95 89t-83 101q-16 20 -12.5 45z" />
<glyph unicode="&#xc1;" horiz-adv-x="825" d="M25 545q0 27 17 45t42 20h12q6 119 17.5 220.5t27.5 187.5q39 225 115 330q55 76 133 86q70 6 127 -45q86 -82 131 -320q16 -86 27.5 -190.5t19.5 -229.5q8 2 16.5 3t18.5 3q25 4 46.5 -9t25.5 -38q4 -27 -9.5 -47t-39.5 -26q-12 -2 -25.5 -4.5t-28.5 -4.5q2 -96 3 -183 t0 -152.5t-2 -104.5t-1 -41q-2 -25 -19 -42t-44 -15q-27 0 -43.5 18.5t-16.5 44.5l1 37q2 37 3 100.5t1 146.5t-2 175q-80 -8 -163 -11t-169 -7h-31q-4 -86 -4 -163v-137.5t2 -99.5t2 -47q4 -23 -10.5 -43t-36.5 -25q-4 -2 -12 -2q-23 0 -40.5 13.5t-21.5 36.5q-2 8 -3 31.5 t-2 52t-1 56.5v44v123.5t4 154.5h-6q-25 0 -42 16.5t-19 41.5zM219 614h25q86 4 168 7.5t159 11.5q-10 190 -28.5 313t-39 198t-40 108.5t-31.5 45.5q-10 10 -17 11.5t-12 1.5q-23 -4 -43 -31q-16 -18 -35.5 -60t-40 -119t-38 -196t-27.5 -291zM266.5 1584q1.5 26 22.5 42 q47 37 85 78t72 88q14 20 39 24.5t47 -10.5q20 -16 24.5 -40.5t-11.5 -45.5q-41 -55 -83 -101t-95 -89q-19 -14 -39 -14q-29 0 -47 22q-16 20 -14.5 46z" />
<glyph unicode="&#xc2;" horiz-adv-x="825" d="M25 545q2 -25 19 -41.5t42 -16.5h6q-4 -84 -4 -154.5v-123.5v-44t1 -56.5t2 -52t3 -31.5q4 -23 21.5 -36.5t40.5 -13.5q8 0 12 2q23 4 37 25t10 43q0 8 -2 47t-2 99.5v137.5t4 163h31q86 4 169 7t163 11q2 -92 2 -175t-1 -146.5t-3 -100.5l-1 -37q0 -27 16.5 -45 t43.5 -18q27 -2 44 15t19 42q0 2 1 41t2 104.5t0 152.5t-3 183q14 2 27.5 4t26.5 5q27 6 40 26t9 47q-4 25 -25.5 38t-46.5 9q-10 -2 -18.5 -3t-16.5 -3q-8 125 -19 229.5t-28 190.5q-45 238 -131 320q-57 51 -127 45q-78 -10 -133 -86q-76 -104 -115 -330 q-16 -86 -27.5 -187.5t-17.5 -220.5h-12q-25 -2 -42 -20.5t-17 -44.5zM170.5 1558.5q-4.5 24.5 11.5 45.5q16 20 41 57q41 61 81 109.5t93 50.5q51 4 106.5 -52.5t133.5 -169.5l6 -8q16 -23 12 -47t-26 -39q-17 -12 -35 -12q-31 0 -51 27l-6 8q-16 23 -37 52.5t-43 55.5 q-23 27 -35 39.5t-21 18.5q-4 -4 -9 -10.5t-15 -16.5q-25 -35 -51 -74q-12 -18 -23.5 -34.5t-21.5 -30.5q-16 -20 -41 -23.5t-45 13.5q-20 16 -24.5 40.5zM219 614q10 172 27.5 291t38 196t40 119t35.5 60q20 27 43 31q4 0 11.5 -1t17.5 -12q12 -12 31.5 -45.5t40 -108.5 t39 -198t28.5 -313q-78 -8 -159.5 -11.5t-167.5 -7.5h-25z" />
<glyph unicode="&#xc3;" horiz-adv-x="825" d="M25 545q2 -25 19 -41.5t42 -16.5h6q-4 -84 -4 -154.5v-123.5v-44t1 -56.5t2 -52t3 -31.5q4 -23 21.5 -36.5t40.5 -13.5q8 0 12 2q23 4 37 25t10 43q0 8 -2 47t-2 99.5v137.5t4 163h31q86 4 169 7t163 11q2 -92 2 -175t-1 -146.5t-3 -100.5l-1 -37q0 -27 16.5 -45 t43.5 -18q27 -2 44 15t19 42q0 2 1 41t2 104.5t0 152.5t-3 183q14 2 27.5 4t26.5 5q27 6 40 26t9 47q-4 25 -25.5 38t-46.5 9q-10 -2 -18.5 -3t-16.5 -3q-8 125 -19 229.5t-28 190.5q-45 238 -131 320q-57 51 -127 45q-78 -10 -133 -86q-76 -104 -115 -330 q-16 -86 -27.5 -187.5t-17.5 -220.5h-12q-25 -2 -42 -20.5t-17 -44.5zM154 1581q0 45 12 97.5t59 78.5q39 20 77 11t54 -15q25 -10 51.5 -26.5t51.5 -32.5q18 -10 34.5 -20.5t32.5 -18.5q6 -4 11.5 -6t9.5 -4q2 8 3 21t-1 34q-2 27 14.5 45t42.5 20q27 2 45.5 -15t20.5 -42 q2 -43 -6.5 -95t-53.5 -79q-22 -14 -53 -14q-41 0 -83 21.5t-83 49.5q-18 12 -37.5 23.5t-38.5 19.5q-25 12 -32 13q-4 -4 -6.5 -19.5t-4.5 -46.5q0 -27 -17 -44t-42 -17h-2q-25 0 -43 18t-16 43zM219 614q10 172 27.5 291t38 196t40 119t35.5 60q20 27 43 31q4 0 11.5 -1 t17.5 -12q12 -12 31.5 -45.5t40 -108.5t39 -198t28.5 -313q-78 -8 -159.5 -11.5t-167.5 -7.5h-25z" />
<glyph unicode="&#xc4;" horiz-adv-x="825" d="M25 545q2 -25 19 -41.5t42 -16.5h6q-4 -84 -4 -154.5v-123.5v-44t1 -56.5t2 -52t3 -31.5q4 -23 21.5 -36.5t40.5 -13.5q8 0 12 2q23 4 37 25t10 43q0 8 -2 47t-2 99.5v137.5t4 163h31q86 4 169 7t163 11q2 -92 2 -175t-1 -146.5t-3 -100.5l-1 -37q0 -27 16.5 -45 t43.5 -18q27 -2 44 15t19 42q0 2 1 41t2 104.5t0 152.5t-3 183q14 2 27.5 4t26.5 5q27 6 40 26t9 47q-4 25 -25.5 38t-46.5 9q-10 -2 -18.5 -3t-16.5 -3q-8 125 -19 229.5t-28 190.5q-45 238 -131 320q-57 51 -127 45q-78 -10 -133 -86q-76 -104 -115 -330 q-16 -86 -27.5 -187.5t-17.5 -220.5h-12q-25 -2 -42 -20.5t-17 -44.5zM219 614q10 172 27.5 291t38 196t40 119t35.5 60q20 27 43 31q4 0 11.5 -1t17.5 -12q12 -12 31.5 -45.5t40 -108.5t39 -198t28.5 -313q-78 -8 -159.5 -11.5t-167.5 -7.5h-25zM246 1587q-2 16 0 39t16 43 q23 27 57 27q27 0 44.5 -17.5t17.5 -44.5q0 -23 -12 -37q0 -6 4 -14q6 -25 -7.5 -47.5t-37.5 -28.5q-4 0 -8.5 -1t-8.5 -1q-45 0 -59 47q0 2 -2 11.5t-4 23.5zM446 1587q-2 16 0.5 39t16.5 43q23 27 57 27q27 0 44.5 -17.5t17.5 -44.5q0 -23 -13 -37q0 -6 4 -14 q6 -25 -7 -47.5t-38 -28.5q-4 0 -8 -1t-8 -1q-45 0 -59 47q0 2 -2 11.5t-5 23.5z" />
<glyph unicode="&#xc5;" horiz-adv-x="825" d="M25 545q2 -25 19 -41.5t42 -16.5h6q-4 -84 -4 -154.5v-123.5v-44t1 -56.5t2 -52t3 -31.5q4 -23 21.5 -36.5t40.5 -13.5q8 0 12 2q23 4 37 25t10 43q0 8 -2 47t-2 99.5v137.5t4 163h31q86 4 169 7t163 11q2 -92 2 -175t-1 -146.5t-3 -100.5l-1 -37q0 -27 16.5 -45 t43.5 -18q27 -2 44 15t19 42q0 2 1 41t2 104.5t0 152.5t-3 183q14 2 27.5 4t26.5 5q27 6 40 26t9 47q-4 25 -25.5 38t-46.5 9q-10 -2 -18.5 -3t-16.5 -3q-8 125 -19 229.5t-28 190.5q-45 238 -131 320q-57 51 -127 45q-78 -10 -133 -86q-76 -104 -115 -330 q-16 -86 -27.5 -187.5t-17.5 -220.5h-12q-25 -2 -42 -20.5t-17 -44.5zM219 614q10 172 27.5 291t38 196t40 119t35.5 60q20 27 43 31q4 0 11.5 -1t17.5 -12q12 -12 31.5 -45.5t40 -108.5t39 -198t28.5 -313q-78 -8 -159.5 -11.5t-167.5 -7.5h-25zM260 1569q-10 59 21 114 q31 59 100 80q10 4 20.5 6.5t20.5 2.5q55 0 96 -42t47 -106q6 -57 -24 -111q-35 -57 -103 -69q-10 -2 -18.5 -3t-16.5 -1q-55 0 -94 34.5t-49 94.5zM362 1583q2 -14 10.5 -27.5t30.5 -13.5q4 0 7.5 1t7.5 1q35 8 41 34t4 36q-2 20 -13.5 37.5t-27.5 17.5q-4 0 -6 -1t-6 -1 q-33 -10 -42.5 -36.5t-5.5 -47.5z" />
<glyph unicode="&#xc6;" horiz-adv-x="1169" d="M31 545q-2 27 15 45t42 20h12q8 119 18.5 220.5t26.5 187.5q39 225 115 330q55 76 135 86q27 2 58.5 -6.5t66.5 -38.5q23 14 49.5 19t42.5 9q68 8 183 13q47 0 92 -1.5t81 -3.5t58.5 -3t24.5 -1q25 -2 42 -20.5t15 -44.5q-2 -25 -21.5 -42.5t-44.5 -15.5q-2 0 -65.5 3.5 t-147.5 5.5q-111 0 -162 -6.5t-69 -10.5q-2 -29 -4 -85t-3 -131t-2 -165t-1 -184v-88q131 10 244.5 21.5t185.5 25.5q25 4 46 -9t26 -38q4 -27 -9.5 -47.5t-38.5 -26.5q-76 -14 -194.5 -26.5t-257.5 -22.5q2 -100 6 -186q4 -92 9 -136.5t9 -60.5q18 -4 73.5 -7t172.5 3 q43 2 83 4t70.5 4t48.5 4l19 2q25 4 44.5 -13t23.5 -42q2 -27 -14.5 -45t-42.5 -23q-4 0 -74 -5t-162 -9q-35 -2 -65.5 -3t-57.5 -1q-96 0 -137 9t-57 20q-23 14 -33 39.5t-17 64.5q-4 27 -7 62.5t-7 80.5q-4 47 -5 105.5t-3 124.5q-61 -4 -123.5 -7t-124.5 -5 q-4 -86 -4 -164t1 -138.5t3 -99.5t2 -47q4 -23 -10 -43t-39 -25q-4 -2 -12 -2q-23 0 -39.5 13.5t-20.5 36.5q-2 8 -3 31.5t-2 52t-2 56.5t-1 44v123.5t4 154.5h-4q-25 0 -43 16.5t-18 41.5zM225 616q55 4 116.5 6.5t123.5 6.5v59q0 80 1 161t2 153.5t2 135t3 105.5 q-12 25 -28.5 47.5t-36.5 20.5q-23 -4 -43 -31q-16 -18 -36 -59t-39.5 -118t-37 -196t-27.5 -291z" />
<glyph unicode="&#xc7;" horiz-adv-x="813" d="M37 612q12 180 51 331t102 263q63 104 136 162q80 61 161 62q113 4 189 -99q35 -47 56.5 -112.5t29.5 -147.5q4 -27 -12.5 -46t-40.5 -21q-27 -4 -46.5 12t-21.5 41q-10 84 -28.5 131t-37.5 69q-39 51 -86 50q-47 0 -97 -43t-95 -119q-41 -70 -82 -201t-55 -340 q-16 -252 47 -381q43 -94 123 -102q49 -6 103 17.5t101.5 67.5t82 101.5t47.5 118.5q4 25 25.5 39t45.5 10q27 -4 40 -25.5t9 -46.5q-16 -80 -60 -156.5t-112 -135.5q-53 -47 -111.5 -75t-113.5 -36q-2 -18 -3 -35.5t-3 -34.5q72 -4 119 -41q53 -41 57 -106q6 -68 -47 -121 q-20 -18 -58.5 -35.5t-97.5 -17.5h-22.5t-24.5 2q-25 4 -41 23.5t-12 43.5q4 27 23.5 43.5t44.5 12.5q51 -6 74.5 3t29.5 15q10 10 8 23q0 8 -10 18q-31 23 -98 10q-27 -6 -52 15q-25 20 -20 51q2 23 4 45q2 20 3 46t3 50q-43 14 -88 50t-80 110q-39 78 -53 189.5t-6 252.5z " />
<glyph unicode="&#xc8;" horiz-adv-x="786" d="M31 612q-2 -27 15 -45t44 -18l2 -2q2 -80 4 -147.5t6 -123.5q2 -45 6.5 -80.5t8.5 -62.5q6 -39 15 -64.5t32 -39.5q18 -10 58 -19.5t136 -9.5q27 0 57.5 1t65.5 3q45 2 87 4t75 4t53.5 4t22.5 2q25 4 41 22.5t14 45.5q-4 25 -22.5 42t-44.5 13q-31 -4 -68 -6 q-31 -4 -71 -5t-81 -3q-119 -4 -173 -2t-72 6q-4 16 -10.5 60.5t-10.5 136.5t-6 215h135q90 0 178 4t142 16q25 6 37 27.5t8 46.5q-6 25 -28.5 38t-47.5 7q-29 -6 -79 -10t-108.5 -5t-120 -1t-116.5 2v57q0 94 1 184t2 165t2 131.5t3 84.5q18 4 70.5 10.5t163.5 6.5 q41 -2 78.5 -2t66.5 -2q35 -2 66 -5q27 -2 45 15.5t20 42.5q2 27 -14.5 45t-42.5 20q-2 0 -24.5 1t-58.5 3t-81 3.5t-92 1.5q-115 -4 -182 -13q-12 -2 -34 -6t-43.5 -14.5t-39 -27.5t-19.5 -44q-2 -14 -4 -74.5t-3 -148.5t-2 -195.5t-1 -218.5v-18q-25 0 -42 -16.5 t-19 -41.5zM248 1765q4 25 24 41q23 14 47.5 10t38.5 -24q35 -47 73 -88t85 -78q20 -16 22.5 -41.5t-14.5 -46.5q-18 -22 -47 -22q-20 0 -39 14q-53 43 -95 89t-83 101q-16 20 -12 45z" />
<glyph unicode="&#xc9;" horiz-adv-x="786" d="M31 612q2 25 19.5 41.5t41.5 16.5v18q0 111 1 218.5t2 195.5t3 148.5t4 74.5q2 27 19.5 44t39 27.5t43 14.5t34.5 6q68 8 182 13q47 0 92 -1.5t81 -3.5t58.5 -3t24.5 -1q27 -2 43 -20.5t14 -44.5q-2 -25 -20.5 -42.5t-44.5 -15.5q-31 2 -66 5q-29 2 -66.5 2t-78.5 2 q-111 0 -163 -6.5t-71 -10.5q-2 -29 -3 -85t-2 -131t-2 -165t-1 -184v-57q55 -2 116.5 -2t120 1t108.5 5t79 10q25 6 47.5 -7t28.5 -38q4 -25 -8.5 -46.5t-36.5 -27.5q-53 -12 -141.5 -16t-178.5 -4h-135q2 -123 6 -215t10.5 -136.5t10.5 -60.5q18 -4 72.5 -6t172.5 2 q41 2 81 3t71 5q37 2 68 6q27 4 45 -13t22 -42q2 -27 -14.5 -45t-40.5 -23q-2 0 -22.5 -2t-53.5 -4t-75 -4t-87 -4q-35 -2 -65.5 -3t-57.5 -1q-96 0 -136 9t-58 20q-23 14 -32 39.5t-15 64.5q-4 27 -8.5 62.5t-6.5 80.5q-4 55 -6 123t-4 148l-2 2q-27 0 -44 18.5t-15 44.5z M246 1584q2 26 22 42q47 37 85 78t73 88q14 20 38.5 24.5t47.5 -10.5q20 -16 24.5 -40.5t-12.5 -45.5q-41 -55 -83 -101t-95 -89q-19 -14 -39 -14q-29 0 -47 22q-16 20 -14 46z" />
<glyph unicode="&#xca;" horiz-adv-x="786" d="M31 612q-2 -27 15 -45t44 -18l2 -2q2 -80 4 -147.5t6 -123.5q2 -45 6.5 -80.5t8.5 -62.5q6 -39 15 -64.5t32 -39.5q18 -10 58 -19.5t136 -9.5q27 0 57.5 1t65.5 3q45 2 87 4t75 4t53.5 4t22.5 2q25 4 41 22.5t14 45.5q-4 25 -22.5 42t-44.5 13q-31 -4 -68 -6 q-31 -4 -71 -5t-81 -3q-119 -4 -173 -2t-72 6q-4 16 -10.5 60.5t-10.5 136.5t-6 215h135q90 0 178 4t142 16q25 6 37 27.5t8 46.5q-6 25 -28.5 38t-47.5 7q-29 -6 -79 -10t-108.5 -5t-120 -1t-116.5 2v57q0 94 1 184t2 165t2 131.5t3 84.5q18 4 70.5 10.5t163.5 6.5 q41 -2 78.5 -2t66.5 -2q35 -2 66 -5q27 -2 45 15.5t20 42.5q2 27 -14.5 45t-42.5 20q-2 0 -24.5 1t-58.5 3t-81 3.5t-92 1.5q-115 -4 -182 -13q-12 -2 -34 -6t-43.5 -14.5t-39 -27.5t-19.5 -44q-2 -14 -4 -74.5t-3 -148.5t-2 -195.5t-1 -218.5v-18q-25 0 -42 -16.5 t-19 -41.5zM149.5 1558.5q-4.5 24.5 12.5 45.5q16 20 41 57q41 61 81 109.5t93 50.5q51 4 106.5 -52.5t132.5 -169.5l7 -8q16 -23 12 -47t-27 -39q-17 -12 -35 -12q-31 0 -51 27l-6 8q-16 23 -36.5 52.5t-43.5 55.5q-23 27 -35 39.5t-20 18.5q-4 -4 -9 -10.5t-16 -16.5 q-25 -35 -51 -74q-12 -18 -23.5 -34.5t-21.5 -30.5q-16 -20 -40.5 -23.5t-45.5 13.5q-20 16 -24.5 40.5z" />
<glyph unicode="&#xcb;" horiz-adv-x="786" d="M31 612q-2 -27 15 -45t44 -18l2 -2q2 -80 4 -147.5t6 -123.5q2 -45 6.5 -80.5t8.5 -62.5q6 -39 15 -64.5t32 -39.5q18 -10 58 -19.5t136 -9.5q27 0 57.5 1t65.5 3q45 2 87 4t75 4t53.5 4t22.5 2q25 4 41 22.5t14 45.5q-4 25 -22.5 42t-44.5 13q-31 -4 -68 -6 q-31 -4 -71 -5t-81 -3q-119 -4 -173 -2t-72 6q-4 16 -10.5 60.5t-10.5 136.5t-6 215h135q90 0 178 4t142 16q25 6 37 27.5t8 46.5q-6 25 -28.5 38t-47.5 7q-29 -6 -79 -10t-108.5 -5t-120 -1t-116.5 2v57q0 94 1 184t2 165t2 131.5t3 84.5q18 4 70.5 10.5t163.5 6.5 q41 -2 78.5 -2t66.5 -2q35 -2 66 -5q27 -2 45 15.5t20 42.5q2 27 -14.5 45t-42.5 20q-2 0 -24.5 1t-58.5 3t-81 3.5t-92 1.5q-115 -4 -182 -13q-12 -2 -34 -6t-43.5 -14.5t-39 -27.5t-19.5 -44q-2 -14 -4 -74.5t-3 -148.5t-2 -195.5t-1 -218.5v-18q-25 0 -42 -16.5 t-19 -41.5zM225 1587q-2 16 0.5 39t16.5 43q23 27 57 27q27 0 44 -17.5t17 -44.5q0 -23 -12 -37q0 -6 4 -14q6 -25 -7 -47.5t-38 -28.5q-4 0 -8 -1t-8 -1q-45 0 -60 47q0 2 -2 11.5t-4 23.5zM426 1587q-2 16 0 39t16 43q23 27 58 27q27 0 44 -17.5t17 -44.5q0 -23 -12 -37 q0 -6 4 -14q6 -25 -7.5 -47.5t-37.5 -28.5q-4 0 -8 -1t-8 -1q-45 0 -60 47q0 2 -2 11.5t-4 23.5z" />
<glyph unicode="&#xcc;" horiz-adv-x="882" d="M29 1341q4 -12 16 -25t39 -18q4 -2 10 -2t17 -2q12 -2 31.5 -3t41.5 -1q39 -4 88.5 -5t102.5 -3q-10 -147 -12.5 -311t-2.5 -319.5t3.5 -291t7.5 -227.5q-59 -4 -129 -6q-72 -4 -150 -6q-25 -2 -42 -20.5t-17 -43.5q2 -25 19.5 -42t41.5 -17h4q80 2 148 6q39 2 72.5 3 t66.5 3q16 -27 51 -26h2q35 0 51 30q84 4 155 3t153 -5q25 -2 43 15.5t20 44.5q2 25 -15 43t-42 20q-84 4 -154.5 5t-154.5 -3q-4 92 -7.5 227.5t-3.5 291t2 317.5t13 309h43q82 0 158.5 2t111.5 10q25 6 38 27.5t7 46.5q-4 25 -26.5 38t-47.5 9q-18 -4 -91 -8t-197 -2 q-16 23 -45 27q-35 4 -56 -27q-106 4 -178 6t-98 6q-23 12 -49 2q-25 -10 -35 -31.5t-4 -46.5zM297 1765q4 25 25 41q23 14 47 10t39 -24q35 -47 72.5 -88t84.5 -78q20 -16 22.5 -41.5t-14.5 -46.5q-18 -22 -47 -22q-20 0 -39 14q-53 43 -95 89t-83 101q-16 20 -12 45z" />
<glyph unicode="&#xcd;" horiz-adv-x="882" d="M29 1341q-6 25 4 46.5t35 31.5q27 10 49 -2q27 -4 98.5 -6t177.5 -6q20 31 56 27q29 -4 45 -27q125 -2 197.5 2t90.5 8q25 4 47.5 -9t26.5 -38q6 -25 -7 -46.5t-38 -27.5q-35 -8 -111.5 -10t-158.5 -2h-43q-10 -147 -12.5 -309t-2.5 -317.5t3 -291t8 -227.5q84 4 154.5 3 t154.5 -5q25 -2 42 -20.5t15 -42.5q-2 -27 -20.5 -44.5t-42.5 -15.5q-82 4 -153 5t-155 -3q-16 -31 -51 -30h-2q-35 0 -51 26q-33 -2 -66.5 -3t-72.5 -3q-68 -4 -148 -6h-4q-25 0 -42 17.5t-19 41.5q0 25 17.5 43.5t41.5 20.5q78 2 150 6q70 2 129 6q-4 92 -7.5 227.5 t-3.5 291t2.5 319.5t12.5 311q-53 2 -102.5 3t-88.5 5q-23 0 -42 1t-31 3q-10 2 -16.5 2t-10.5 2q-27 4 -39 17.5t-16 25.5zM295 1584q2 26 22 42q47 37 85 78t73 88q14 20 39 24.5t47 -10.5q20 -16 24.5 -40.5t-12.5 -45.5q-41 -55 -82.5 -101t-95.5 -89q-19 -14 -39 -14 q-29 0 -47 22q-16 20 -14 46z" />
<glyph unicode="&#xce;" horiz-adv-x="882" d="M29 1341q4 -12 16 -25t39 -18q4 -2 10 -2t17 -2q12 -2 31.5 -3t41.5 -1q39 -4 88.5 -5t102.5 -3q-10 -147 -12.5 -311t-2.5 -319.5t3.5 -291t7.5 -227.5q-59 -4 -129 -6q-72 -4 -150 -6q-25 -2 -42 -20.5t-17 -43.5q2 -25 19.5 -42t41.5 -17h4q80 2 148 6q39 2 72.5 3 t66.5 3q16 -27 51 -26h2q35 0 51 30q84 4 155 3t153 -5q25 -2 43 15.5t20 44.5q2 25 -15 43t-42 20q-84 4 -154.5 5t-154.5 -3q-4 92 -7.5 227.5t-3.5 291t2 317.5t13 309h43q82 0 158.5 2t111.5 10q25 6 38 27.5t7 46.5q-4 25 -26.5 38t-47.5 9q-18 -4 -91 -8t-197 -2 q-16 23 -45 27q-35 4 -56 -27q-106 4 -178 6t-98 6q-23 12 -49 2q-25 -10 -35 -31.5t-4 -46.5zM199 1558.5q-4 24.5 12 45.5q16 20 41 57q41 61 81 109.5t93 50.5q51 4 106.5 -52.5t133.5 -169.5l6 -8q16 -23 12 -47t-27 -39q-16 -12 -34 -12q-31 0 -52 27l-6 8 q-16 23 -36.5 52.5t-43.5 55.5q-23 27 -35 39.5t-20 18.5q-4 -4 -9 -10.5t-15 -16.5q-25 -35 -52 -74q-12 -18 -23.5 -34.5t-21.5 -30.5q-16 -20 -40.5 -23.5t-45.5 13.5q-20 16 -24 40.5z" />
<glyph unicode="&#xcf;" horiz-adv-x="882" d="M29 1341q4 -12 16 -25t39 -18q4 -2 10 -2t17 -2q12 -2 31.5 -3t41.5 -1q39 -4 88.5 -5t102.5 -3q-10 -147 -12.5 -311t-2.5 -319.5t3.5 -291t7.5 -227.5q-59 -4 -129 -6q-72 -4 -150 -6q-25 -2 -42 -20.5t-17 -43.5q2 -25 19.5 -42t41.5 -17h4q80 2 148 6q39 2 72.5 3 t66.5 3q16 -27 51 -26h2q35 0 51 30q84 4 155 3t153 -5q25 -2 43 15.5t20 44.5q2 25 -15 43t-42 20q-84 4 -154.5 5t-154.5 -3q-4 92 -7.5 227.5t-3.5 291t2 317.5t13 309h43q82 0 158.5 2t111.5 10q25 6 38 27.5t7 46.5q-4 25 -26.5 38t-47.5 9q-18 -4 -91 -8t-197 -2 q-16 23 -45 27q-35 4 -56 -27q-106 4 -178 6t-98 6q-23 12 -49 2q-25 -10 -35 -31.5t-4 -46.5zM274 1587q-2 16 0.5 39t16.5 43q23 27 57 27q27 0 44.5 -17.5t17.5 -44.5q0 -23 -13 -37q0 -6 4 -14q6 -25 -7 -47.5t-38 -28.5q-4 0 -8 -1t-8 -1q-45 0 -59 47q0 2 -2.5 11.5 t-4.5 23.5zM475 1587q-2 16 0.5 39t16.5 43q23 27 57 27q27 0 44 -17.5t17 -44.5q0 -23 -12 -37q0 -6 4 -14q6 -25 -7 -47.5t-38 -28.5q-4 0 -8 -1t-8 -1q-45 0 -60 47q0 2 -2 11.5t-4 23.5z" />
<glyph unicode="&#xd0;" horiz-adv-x="770" d="M4 700q4 27 23.5 42.5t44.5 11.5q82 -10 125 -13.5t69.5 -3.5t50 4t66.5 11q25 2 44 -13.5t24 -42.5q4 -25 -12.5 -44t-41.5 -23q-53 -6 -87.5 -4t-71.5 -2q-29 -2 -46.5 -3.5t-34 0t-39 4.5t-61.5 9q-27 4 -42 23.5t-11 43.5zM33 66q4 25 22.5 41t44.5 12h4q2 106 2 195 v175q0 84 -1 164t1.5 165t4.5 179.5t8 204.5q2 25 20.5 42.5t44.5 15.5q25 -2 42.5 -20.5t15.5 -43.5q-6 -111 -8.5 -203t-4.5 -177t-1 -165t1 -162v-174t-2 -192q113 14 201 90q84 70 131 179.5t57 248.5q4 66 -1 140.5t-24.5 148.5t-54 143.5t-87.5 122.5 q-123 123 -314 111q-27 -2 -45 15t-20 42q-2 27 15 45t42 21q127 10 231 -31q49 -20 93.5 -48t83.5 -67q117 -117 170 -305q47 -166 34 -346q-10 -164 -69.5 -296t-161.5 -218q-150 -125 -352 -125q-16 0 -34 1t-34 3q-27 2 -43 21.5t-12 46.5z" />
<glyph unicode="&#xd1;" horiz-adv-x="856" d="M45 63q-4 -25 11.5 -44t39.5 -23q27 -4 46.5 11.5t23.5 41.5q8 66 12 162t5 207.5t-1 232.5t-4 234q29 -104 61.5 -210t67.5 -206q39 -104 74 -185t70 -139q14 -25 32.5 -51t41 -48.5t50 -37t58.5 -14.5h2q47 0 82 37q25 29 43 75q14 41 23.5 99.5t17.5 142.5q6 72 9 165 t4 216t0 279.5t-3 357.5q0 27 -17.5 44t-43.5 17q-25 0 -43.5 -18t-16.5 -45q2 -180 3 -322.5t0 -256t-4 -202.5t-7 -161q-4 -78 -10 -134.5t-17 -97.5q-8 -35 -15 -51t-11 -20q-6 2 -22.5 18.5t-43 60.5t-63.5 121.5t-82 206.5q-59 166 -120.5 385t-119.5 467q-2 6 -2 10.5 t-2 8.5q-10 25 -29.5 35t-38.5 8q-10 -2 -30.5 -12.5t-24.5 -47.5q-2 -6 -2 -12t-2 -16v-82q0 -49 1 -117t3 -149q2 -119 5 -254.5t3 -264.5t-3 -239.5t-11 -182.5zM168 1581q0 45 12.5 97.5t59.5 78.5q39 20 76.5 11t54.5 -15q25 -10 51.5 -26.5t50.5 -32.5 q18 -10 34.5 -20.5t33.5 -18.5q6 -4 11 -6t9 -4q2 8 3 21t-1 34q-2 27 14.5 45t43.5 20t45 -15t20 -42q2 -43 -6 -95t-53 -79q-23 -14 -54 -14q-41 0 -82.5 21.5t-82.5 49.5q-18 12 -38 23.5t-38 19.5q-25 12 -33 13q-4 -4 -6 -19.5t-4 -46.5q0 -27 -17.5 -44t-42.5 -17h-2 q-25 0 -43 18t-16 43z" />
<glyph unicode="&#xd2;" horiz-adv-x="980" d="M42 697.5q5 146.5 46 281.5q20 72 50 133.5t67 114.5q84 117 201 168q63 31 131 30q162 0 274 -174q47 -70 79 -164t48 -202q18 -127 8 -264q-10 -141 -49 -259q-47 -137 -129 -225t-195 -121q-59 -18 -114 -18q-154 0 -264 129q-92 106 -129 289q-29 135 -24 281.5z M165 692q-5 -133 19 -250q35 -152 105 -237q72 -84 170 -84q37 0 80 12q51 14 91 45t68.5 68t49 79t32.5 78q35 98 44.5 220t-9.5 245q-14 94 -40.5 176t-65.5 142q-27 41 -70 79t-102 38q-39 0 -82 -19q-84 -39 -148.5 -126t-101.5 -214q-35 -119 -40 -252zM346 1765 q4 25 25 41q23 14 47 10t39 -24q35 -47 72.5 -88t84.5 -78q20 -16 22.5 -41.5t-13.5 -46.5q-19 -22 -48 -22q-20 0 -38 14q-53 43 -95.5 89t-83.5 101q-16 20 -12 45z" />
<glyph unicode="&#xd3;" horiz-adv-x="980" d="M42 697.5q5 146.5 46 281.5q20 72 50 133.5t67 114.5q84 117 201 168q63 31 131 30q162 0 274 -174q47 -70 79 -164t48 -202q18 -127 8 -264q-10 -141 -49 -259q-47 -137 -129 -225t-195 -121q-59 -18 -114 -18q-154 0 -264 129q-92 106 -129 289q-29 135 -24 281.5z M165 692q-5 -133 19 -250q35 -152 105 -237q72 -84 170 -84q37 0 80 12q51 14 91 45t68.5 68t49 79t32.5 78q35 98 44.5 220t-9.5 245q-14 94 -40.5 176t-65.5 142q-27 41 -70 79t-102 38q-39 0 -82 -19q-84 -39 -148.5 -126t-101.5 -214q-35 -119 -40 -252zM344 1584 q2 26 23 42q47 37 84.5 78t72.5 88q14 20 39 24.5t47 -10.5q20 -16 24.5 -40.5t-11.5 -45.5q-41 -55 -83 -101t-96 -89q-18 -14 -38 -14q-29 0 -48 22q-16 20 -14 46z" />
<glyph unicode="&#xd4;" horiz-adv-x="980" d="M42 697.5q5 146.5 46 281.5q20 72 50 133.5t67 114.5q84 117 201 168q63 31 131 30q162 0 274 -174q47 -70 79 -164t48 -202q18 -127 8 -264q-10 -141 -49 -259q-47 -137 -129 -225t-195 -121q-59 -18 -114 -18q-154 0 -264 129q-92 106 -129 289q-29 135 -24 281.5z M165 692q-5 -133 19 -250q35 -152 105 -237q72 -84 170 -84q37 0 80 12q51 14 91 45t68.5 68t49 79t32.5 78q35 98 44.5 220t-9.5 245q-14 94 -40.5 176t-65.5 142q-27 41 -70 79t-102 38q-39 0 -82 -19q-84 -39 -148.5 -126t-101.5 -214q-35 -119 -40 -252zM248 1558.5 q-4 24.5 12 45.5q16 20 41 57q41 61 81 109.5t93 50.5q51 4 106.5 -52.5t133.5 -169.5l6 -8q16 -23 12 -47t-26 -39q-17 -12 -35 -12q-31 0 -51 27l-7 8q-16 23 -36.5 52.5t-42.5 55.5q-23 27 -35.5 39.5t-20.5 18.5q-4 -4 -9 -10.5t-15 -16.5q-25 -35 -52 -74l-23 -34.5 t-22 -30.5q-16 -20 -40.5 -23.5t-45.5 13.5q-20 16 -24 40.5z" />
<glyph unicode="&#xd5;" horiz-adv-x="980" d="M42 697.5q5 146.5 46 281.5q20 72 50 133.5t67 114.5q84 117 201 168q63 31 131 30q162 0 274 -174q47 -70 79 -164t48 -202q18 -127 8 -264q-10 -141 -49 -259q-47 -137 -129 -225t-195 -121q-59 -18 -114 -18q-154 0 -264 129q-92 106 -129 289q-29 135 -24 281.5z M165 692q-5 -133 19 -250q35 -152 105 -237q72 -84 170 -84q37 0 80 12q51 14 91 45t68.5 68t49 79t32.5 78q35 98 44.5 220t-9.5 245q-14 94 -40.5 176t-65.5 142q-27 41 -70 79t-102 38q-39 0 -82 -19q-84 -39 -148.5 -126t-101.5 -214q-35 -119 -40 -252zM231 1581 q0 45 12.5 97.5t59.5 78.5q39 20 77 11t54 -15q25 -10 51.5 -26.5t51.5 -32.5q18 -10 34.5 -20.5t32.5 -18.5q6 -4 11.5 -6t9.5 -4q2 8 3 21t-1 34q-2 27 14 45t43 20t45.5 -15t20.5 -42q2 -43 -6.5 -95t-53.5 -79q-22 -14 -53 -14q-41 0 -83 21.5t-83 49.5 q-18 12 -37.5 23.5t-38.5 19.5q-25 12 -33 13q-4 -4 -6 -19.5t-4 -46.5q0 -27 -17.5 -44t-41.5 -17h-2q-25 0 -43.5 18t-16.5 43z" />
<glyph unicode="&#xd6;" horiz-adv-x="980" d="M42 697.5q5 146.5 46 281.5q20 72 50 133.5t67 114.5q84 117 201 168q63 31 131 30q162 0 274 -174q47 -70 79 -164t48 -202q18 -127 8 -264q-10 -141 -49 -259q-47 -137 -129 -225t-195 -121q-59 -18 -114 -18q-154 0 -264 129q-92 106 -129 289q-29 135 -24 281.5z M165 692q-5 -133 19 -250q35 -152 105 -237q72 -84 170 -84q37 0 80 12q51 14 91 45t68.5 68t49 79t32.5 78q35 98 44.5 220t-9.5 245q-14 94 -40.5 176t-65.5 142q-27 41 -70 79t-102 38q-39 0 -82 -19q-84 -39 -148.5 -126t-101.5 -214q-35 -119 -40 -252zM324 1587 q-2 16 0 39t16 43q23 27 57 27q27 0 44.5 -17.5t17.5 -44.5q0 -23 -13 -37q0 -6 5 -14q6 -25 -7.5 -47.5t-37.5 -28.5q-4 0 -8.5 -1t-8.5 -1q-45 0 -59 47q0 2 -2 11.5t-4 23.5zM524 1587q-2 16 0.5 39t16.5 43q23 27 57 27q27 0 44 -17.5t17 -44.5q0 -23 -12 -37 q0 -6 4 -14q6 -25 -7 -47.5t-38 -28.5q-4 0 -8 -1t-8 -1q-45 0 -60 47q0 2 -2 11.5t-4 23.5z" />
<glyph unicode="&#xd8;" horiz-adv-x="980" d="M42 697.5q5 146.5 46 281.5q20 72 50 133.5t67 114.5q84 117 201 168q63 31 131 30q70 0 127 -32q10 18 30.5 26t42.5 4q25 -8 36 -30.5t5 -46.5q-4 -10 -6 -18.5t-6 -16.5q10 -14 22.5 -28.5t22.5 -31.5q47 -70 79 -164t48 -202q18 -127 8 -264q-10 -141 -49 -259 q-47 -137 -129 -225t-195 -121q-59 -18 -114 -18q-78 0 -142 31q-18 -31 -53 -31q-14 0 -28 6q-23 12 -30 37t3 47q2 4 3 7t3 7q-4 6 -10 12.5t-10 12.5q-92 106 -129 289q-29 135 -24 281.5zM165 692q-5 -133 19 -250q14 -68 37 -122t51 -95q43 104 89.5 231.5t91.5 264.5 t89 278.5t85 274.5q-20 12 -42.5 20.5t-47.5 8.5q-39 0 -82 -19q-84 -39 -148.5 -126t-101.5 -214q-35 -119 -40 -252zM371 139q39 -18 88 -18q37 0 80 12q51 14 91 45t68.5 68t49 79t32.5 78q35 98 44.5 220t-9.5 245q-25 174 -92 295q-41 -133 -85 -272t-89 -272.5 t-90 -256.5t-88 -223z" />
<glyph unicode="&#xd9;" horiz-adv-x="921" d="M53 838q0 -254 25 -428q37 -233 121 -336q72 -84 172 -84q80 0 145 59q55 49 98 139q23 49 41 101q6 -41 13.5 -75t15.5 -62q10 -33 20.5 -57.5t20.5 -45.5q23 -37 48.5 -49t45.5 -12q25 0 43.5 18.5t18.5 42.5q0 23 -13.5 40.5t-33.5 21.5q-6 8 -22.5 49t-35.5 149 q-10 70 -19 157t-18 187q10 70 17.5 132.5t11.5 109.5q6 86 9 168t1 154q0 66 -6 108q-4 31 -10 50.5t-17 31.5q-27 35 -65 25q-35 -8 -46 -35t-13 -37q-4 -14 -5.5 -32.5t-3.5 -41.5q-4 -43 -6 -101.5t-2 -127.5q0 -98 3 -199.5t9 -200.5q-27 -164 -63.5 -286.5 t-83.5 -190.5q-49 -68 -98 -67q-43 0 -76 37q-59 70 -90 243.5t-29 433.5q0 102 5 196.5t10.5 169.5t10.5 123t7 58q4 27 -10.5 47.5t-38.5 24.5q-25 4 -46.5 -10.5t-25.5 -38.5q0 -6 -6 -53.5t-12.5 -124t-11.5 -176t-5 -205.5zM291 1765q4 25 24 41q23 14 47.5 10 t38.5 -24q35 -47 73 -88t85 -78q20 -16 22.5 -41.5t-14.5 -46.5q-18 -22 -47 -22q-20 0 -39 14q-53 43 -95 89t-83 101q-16 20 -12 45z" />
<glyph unicode="&#xda;" horiz-adv-x="921" d="M53 838q0 106 5 205.5t11.5 176t12.5 124t6 53.5q4 25 25.5 39t46.5 10t39 -24.5t10 -47.5q-2 -10 -7 -58t-10.5 -123t-10.5 -169t-5 -197q-2 -260 29 -434t90 -243q33 -37 76 -37q49 0 98 67q47 68 84 191t63 286q-6 98 -9 199.5t-3 200.5q0 70 2 128t6 101q2 23 3 41.5 t6 32.5q2 10 13 36.5t46 35.5q39 10 65 -25q10 -12 16.5 -31.5t10.5 -50.5q6 -43 6 -108q2 -72 -1 -154t-9 -168q-4 -47 -11 -109.5t-18 -132.5q8 -100 17.5 -187t19.5 -157q18 -109 35 -149.5t23 -48.5q20 -4 33.5 -21.5t13.5 -40.5q0 -25 -18.5 -43t-43.5 -18 q-20 0 -45.5 12t-48.5 49q-10 20 -20.5 45t-20.5 58q-8 29 -15 62.5t-14 74.5q-18 -51 -41 -101q-43 -90 -98 -139q-66 -59 -145 -59q-100 0 -172 84q-84 102 -121 336q-25 174 -25 428zM313.5 1584q1.5 26 22.5 42q47 37 85 78t73 88q14 20 38.5 24.5t47.5 -10.5 q20 -16 24 -40.5t-12 -45.5q-41 -55 -83 -101t-95 -89q-19 -14 -39 -14q-29 0 -47 22q-16 20 -14.5 46z" />
<glyph unicode="&#xdb;" horiz-adv-x="921" d="M53 838q0 -254 25 -428q37 -233 121 -336q72 -84 172 -84q80 0 145 59q55 49 98 139q23 49 41 101q6 -41 13.5 -75t15.5 -62q10 -33 20.5 -57.5t20.5 -45.5q23 -37 48.5 -49t45.5 -12q25 0 43.5 18.5t18.5 42.5q0 23 -13.5 40.5t-33.5 21.5q-6 8 -22.5 49t-35.5 149 q-10 70 -19 157t-18 187q10 70 17.5 132.5t11.5 109.5q6 86 9 168t1 154q0 66 -6 108q-4 31 -10 50.5t-17 31.5q-27 35 -65 25q-35 -8 -46 -35t-13 -37q-4 -14 -5.5 -32.5t-3.5 -41.5q-4 -43 -6 -101.5t-2 -127.5q0 -98 3 -199.5t9 -200.5q-27 -164 -63.5 -286.5 t-83.5 -190.5q-49 -68 -98 -67q-43 0 -76 37q-59 70 -90 243.5t-29 433.5q0 102 5 196.5t10.5 169.5t10.5 123t7 58q4 27 -10.5 47.5t-38.5 24.5q-25 4 -46.5 -10.5t-25.5 -38.5q0 -6 -6 -53.5t-12.5 -124t-11.5 -176t-5 -205.5zM188.5 1558.5q-4.5 24.5 12.5 45.5 q16 20 41 57q41 61 80.5 109.5t93.5 50.5q51 4 106.5 -52.5t132.5 -169.5l7 -8q16 -23 12 -47t-27 -39q-17 -12 -35 -12q-31 0 -51 27l-6 8q-16 23 -36.5 52.5t-43.5 55.5q-23 27 -35 39.5t-20 18.5q-4 -4 -9 -10.5t-16 -16.5q-25 -35 -51 -74q-12 -18 -23.5 -34.5 t-21.5 -30.5q-16 -20 -41 -23.5t-45 13.5q-20 16 -24.5 40.5z" />
<glyph unicode="&#xdc;" horiz-adv-x="921" d="M53 838q0 -254 25 -428q37 -233 121 -336q72 -84 172 -84q80 0 145 59q55 49 98 139q23 49 41 101q6 -41 13.5 -75t15.5 -62q10 -33 20.5 -57.5t20.5 -45.5q23 -37 48.5 -49t45.5 -12q25 0 43.5 18.5t18.5 42.5q0 23 -13.5 40.5t-33.5 21.5q-6 8 -22.5 49t-35.5 149 q-10 70 -19 157t-18 187q10 70 17.5 132.5t11.5 109.5q6 86 9 168t1 154q0 66 -6 108q-4 31 -10 50.5t-17 31.5q-27 35 -65 25q-35 -8 -46 -35t-13 -37q-4 -14 -5.5 -32.5t-3.5 -41.5q-4 -43 -6 -101.5t-2 -127.5q0 -98 3 -199.5t9 -200.5q-27 -164 -63.5 -286.5 t-83.5 -190.5q-49 -68 -98 -67q-43 0 -76 37q-59 70 -90 243.5t-29 433.5q0 102 5 196.5t10.5 169.5t10.5 123t7 58q4 27 -10.5 47.5t-38.5 24.5q-25 4 -46.5 -10.5t-25.5 -38.5q0 -6 -6 -53.5t-12.5 -124t-11.5 -176t-5 -205.5zM266 1587q-2 16 0.5 39t16.5 43q23 27 57 27 q27 0 44 -17.5t17 -44.5q0 -23 -12 -37q0 -6 4 -14q6 -25 -7 -47.5t-38 -28.5q-4 0 -8 -1t-8 -1q-45 0 -60 47q0 2 -2 11.5t-4 23.5zM467 1587q-2 16 0 39t16 43q23 27 58 27q27 0 44 -17.5t17 -44.5q0 -23 -12 -37q0 -6 4 -14q6 -25 -7.5 -47.5t-37.5 -28.5q-4 0 -8 -1 t-9 -1q-45 0 -59 47q0 2 -2 11.5t-4 23.5z" />
<glyph unicode="&#xdd;" horiz-adv-x="862" d="M39 1348q-8 23 4 45t35 30q25 10 47 -2t31 -37q0 -2 13 -40.5t35.5 -103t52.5 -145.5t63.5 -167t69.5 -171t71 -153q39 104 80 215t75.5 213.5t61.5 191.5t41 152q4 25 25.5 38t46.5 9t39 -25.5t8 -47.5q-18 -86 -59.5 -215t-91.5 -271.5t-105.5 -286t-101.5 -261 t-76.5 -194.5t-34.5 -87q-6 -18 -22.5 -28.5t-33.5 -10.5q-8 0 -24 4q-23 10 -33 33.5t0 48.5l12 28q13 29 32 79.5t46 118t57 145.5q-37 61 -78.5 150t-80.5 186.5t-75 194.5t-64.5 175t-46 130t-19.5 59zM285 1584q2 26 22 42q47 37 85 78t73 88q14 20 38.5 24.5 t47.5 -10.5q20 -16 24.5 -40.5t-12.5 -45.5q-41 -55 -83 -101t-95 -89q-19 -14 -39 -14q-29 0 -47 22q-16 20 -14 46z" />
<glyph unicode="&#xde;" horiz-adv-x="716" d="M45 506.5q2 216.5 8 454.5q2 98 4 199.5t4 211.5q0 25 17.5 43.5t44.5 18.5q27 -2 44 -19.5t17 -44.5q-2 -66 -3 -129t-3 -125q86 45 154.5 64.5t122 22.5t91.5 -7t64 -27q55 -32 84 -98q23 -61 17 -129q-4 -80 -44 -167t-106 -169q-74 -92 -172 -164.5t-215 -122.5 q-2 -2 -4 -2q0 -125 6 -249q2 -27 -15.5 -45.5t-41.5 -20.5h-4q-25 0 -42.5 17.5t-19.5 41.5q-10 229 -8 445.5zM168 451q111 53 183.5 117.5t113.5 115.5q55 66 87 136.5t36 129.5q4 29 -4.5 63t-36.5 52q-45 27 -131 10q-104 -23 -240 -100v-19q-4 -135 -6 -259t-2 -246z " />
<glyph unicode="&#xdf;" horiz-adv-x="849" d="M37 63q2 145 3 292t1 282q2 182 3 328.5t5 232.5v4v2q0 10 6 21l2 2v2v2h2v2h2v2l2 2l3 2q6 6 10 8q94 63 177 105.5t155 60.5q141 41 233 -10q55 -29 82 -86q25 -53 25 -117q-4 -137 -105 -282q-70 -100 -166 -168q115 -51 195 -125q110 -105 139 -232q18 -90 -6 -174 q-29 -88 -92 -141q-90 -80 -219 -80q-74 0 -156 29q-25 10 -36 32.5t-1 46.5q8 23 30.5 34.5t47.5 2.5q61 -23 115 -22q84 0 139 49q41 35 55 87t2 110q-23 102 -119 183t-249 128h-5q-2 0 -2 1t-2 1t-4 2q-2 0 -6 4q-2 0 -2 1t-2 1q0 2 -2 2l-2 2l-2 2q0 2 -2 2q0 2 -2 2v2 h-2q0 2 -2 5q0 2 -2 4v2v2h-2v2v2l-2 2v2q0 2 -1.5 4t-1.5 4v2v2v8v2q0 2 3 2v3v2v2v2h2v2v2v2h2v2v2h2v2q0 2 2 2v2h2v2v2h2v2h2v2h2v2h2v2h2v2h2l2 2h2v2h2l2 3h2q88 45 144.5 99t87.5 99q39 53 59.5 109.5t22.5 103.5q0 23 -7.5 50.5t-35.5 43.5q-47 25 -142 0 q-57 -16 -124.5 -49t-145.5 -84q-4 -88 -4 -224t-2 -302q0 -135 -1 -281.5t-3 -294.5q0 -25 -18.5 -42t-43.5 -17h-2q-25 0 -42 17.5t-17 43.5z" />
<glyph unicode="&#xe0;" horiz-adv-x="823" d="M38 296q9 -87 42 -153q74 -145 223 -149h2q39 0 83 11t88 42t86 84t77 139q12 -84 21.5 -139t9.5 -57q4 -25 24.5 -40.5t44.5 -10.5q25 4 40.5 24t11.5 47l-5 28q-4 28 -11 73t-15 102t-17 119q-10 66 -15 115t-9 85q0 12 2 19q2 35 3 66.5t-1 58.5q-2 35 -8 58.5 t-23 37.5q-16 12 -36.5 14t-37.5 -8q-27 -16 -30.5 -42.5t-3.5 -47.5q0 -16 1 -38.5t3 -51.5q2 -14 3 -30.5t5 -35.5q-4 -18 -5 -37.5t-5 -39.5q-18 -111 -50 -198t-75 -140q-66 -84 -158 -84q-74 0 -113 80q-23 49 -29.5 118.5t5.5 147.5q12 84 42 158.5t77 134.5 q23 31 55.5 59.5t73.5 50t93 29.5t116 -4q27 -4 47 10t24 39q6 25 -8 46.5t-39 25.5q-135 27 -254 -19.5t-207 -161.5q-53 -72 -90 -161.5t-53 -188.5q-14 -98 -5 -185zM266.5 1355.5q3.5 24.5 24.5 41.5q23 14 47 10t39 -25q35 -47 72.5 -88t85.5 -77q20 -16 22 -42 t-14 -47q-18 -22 -47 -22q-20 0 -39 14q-53 43 -95.5 89t-82.5 102q-16 20 -12.5 44.5z" />
<glyph unicode="&#xe1;" horiz-adv-x="823" d="M38 296q-9 87 5 185q16 98 53 188.5t90 161.5q88 115 207 161t254 20q25 -4 39 -25.5t8 -46.5q-4 -25 -24.5 -39t-46.5 -10q-63 12 -115.5 4t-93.5 -29.5t-74 -50.5t-55 -59q-47 -59 -77 -134t-42 -159q-12 -78 -5 -147.5t29 -118.5q39 -80 113 -80q92 0 158 84 q43 53 74.5 140t50.5 198q4 20 5 39.5t5 37.5q-4 18 -5 35t-3 31q-2 29 -3 51.5t-1 38.5q0 20 4 47t30 43q16 10 37 8t37 -14q16 -14 22.5 -37.5t8.5 -58.5q2 -27 1 -58.5t-3 -66.5q-2 -6 -2 -19q4 -37 9 -86t15 -114q8 -61 16.5 -118.5t15.5 -102.5t9 -59l7 -42 q4 -27 -11.5 -47t-40.5 -24t-45 11t-24 40q0 2 -9.5 57t-21.5 139q-35 -86 -77 -139t-86 -84t-88 -42t-83 -11h-2q-150 4 -223 149q-33 66 -42 153zM264.5 1174q1.5 26 22.5 43q47 37 85 77.5t72 87.5q14 20 39 24.5t47 -9.5q20 -16 24.5 -41t-11.5 -45q-41 -55 -83 -101.5 t-95 -89.5q-19 -14 -39 -14q-29 0 -47 22q-16 20 -14.5 46z" />
<glyph unicode="&#xe2;" horiz-adv-x="823" d="M38 296q9 -87 42 -153q74 -145 223 -149h2q39 0 83 11t88 42t86 84t77 139q12 -84 21.5 -139t9.5 -57q4 -25 24.5 -40.5t44.5 -10.5q25 4 40.5 24t11.5 47l-5 28q-4 28 -11 73t-15 102t-17 119q-10 66 -15 115t-9 85q0 12 2 19q2 35 3 66.5t-1 58.5q-2 35 -8 58.5 t-23 37.5q-16 12 -36.5 14t-37.5 -8q-27 -16 -30.5 -42.5t-3.5 -47.5q0 -16 1 -38.5t3 -51.5q2 -14 3 -30.5t5 -35.5q-4 -18 -5 -37.5t-5 -39.5q-18 -111 -50 -198t-75 -140q-66 -84 -158 -84q-74 0 -113 80q-23 49 -29.5 118.5t5.5 147.5q12 84 42 158.5t77 134.5 q23 31 55.5 59.5t73.5 50t93 29.5t116 -4q27 -4 47 10t24 39q6 25 -8 46.5t-39 25.5q-135 27 -254 -19.5t-207 -161.5q-53 -72 -90 -161.5t-53 -188.5q-14 -98 -5 -185zM168.5 1149q-4.5 25 11.5 45t41 57q41 61 81 109.5t93 50.5q51 4 106.5 -52t133.5 -169l6 -8 q16 -23 12 -47.5t-26 -38.5q-17 -13 -35 -13q-31 0 -51 27l-6 8q-16 23 -37 52.5t-43 56.5q-23 27 -35 39t-21 18q-4 -4 -9 -10t-15 -17q-25 -35 -51 -73q-12 -18 -23.5 -34.5t-21.5 -31.5q-16 -20 -41 -23t-45 13t-24.5 41z" />
<glyph unicode="&#xe3;" horiz-adv-x="823" d="M38 296q9 -87 42 -153q74 -145 223 -149h2q39 0 83 11t88 42t86 84t77 139q12 -84 21.5 -139t9.5 -57q4 -25 24.5 -40.5t44.5 -10.5q25 4 40.5 24t11.5 47l-5 28q-4 28 -11 73t-15 102t-17 119q-10 66 -15 115t-9 85q0 12 2 19q2 35 3 66.5t-1 58.5q-2 35 -8 58.5 t-23 37.5q-16 12 -36.5 14t-37.5 -8q-27 -16 -30.5 -42.5t-3.5 -47.5q0 -16 1 -38.5t3 -51.5q2 -14 3 -30.5t5 -35.5q-4 -18 -5 -37.5t-5 -39.5q-18 -111 -50 -198t-75 -140q-66 -84 -158 -84q-74 0 -113 80q-23 49 -29.5 118.5t5.5 147.5q12 84 42 158.5t77 134.5 q23 31 55.5 59.5t73.5 50t93 29.5t116 -4q27 -4 47 10t24 39q6 25 -8 46.5t-39 25.5q-135 27 -254 -19.5t-207 -161.5q-53 -72 -90 -161.5t-53 -188.5q-14 -98 -5 -185zM152 1171q0 45 12 97.5t59 79.5q39 20 77 11t54 -16q25 -10 51.5 -26.5t51.5 -32.5q18 -10 34.5 -20.5 t32.5 -18.5q6 -4 11.5 -6t9.5 -4q2 8 3 21.5t-1 33.5q-2 27 14.5 45.5t42.5 20.5q27 2 45.5 -15.5t20.5 -42.5q2 -43 -6.5 -95t-53.5 -79q-22 -14 -53 -14q-41 0 -83 21.5t-83 50.5q-18 12 -37.5 23.5t-38.5 19.5q-25 12 -32 12q-4 -4 -6.5 -19.5t-4.5 -46.5q0 -27 -17 -44 t-42 -17h-2q-25 0 -43 18.5t-16 42.5z" />
<glyph unicode="&#xe4;" horiz-adv-x="823" d="M38 296q9 -87 42 -153q74 -145 223 -149h2q39 0 83 11t88 42t86 84t77 139q12 -84 21.5 -139t9.5 -57q4 -25 24.5 -40.5t44.5 -10.5q25 4 40.5 24t11.5 47l-5 28q-4 28 -11 73t-15 102t-17 119q-10 66 -15 115t-9 85q0 12 2 19q2 35 3 66.5t-1 58.5q-2 35 -8 58.5 t-23 37.5q-16 12 -36.5 14t-37.5 -8q-27 -16 -30.5 -42.5t-3.5 -47.5q0 -16 1 -38.5t3 -51.5q2 -14 3 -30.5t5 -35.5q-4 -18 -5 -37.5t-5 -39.5q-18 -111 -50 -198t-75 -140q-66 -84 -158 -84q-74 0 -113 80q-23 49 -29.5 118.5t5.5 147.5q12 84 42 158.5t77 134.5 q23 31 55.5 59.5t73.5 50t93 29.5t116 -4q27 -4 47 10t24 39q6 25 -8 46.5t-39 25.5q-135 27 -254 -19.5t-207 -161.5q-53 -72 -90 -161.5t-53 -188.5q-14 -98 -5 -185zM244 1178q-2 16 0 39t16 43q23 27 57 26q27 0 44.5 -17.5t17.5 -43.5q0 -23 -12 -37q0 -6 4 -14 q6 -25 -7.5 -47.5t-37.5 -28.5q-4 0 -8.5 -1t-8.5 -1q-45 0 -59 47q0 2 -2 11t-4 24zM444 1178q-2 16 0.5 39t16.5 43q23 27 57 26q27 0 44.5 -17.5t17.5 -43.5q0 -23 -13 -37q0 -6 4 -14q6 -25 -7 -47.5t-38 -28.5q-4 0 -8 -1t-8 -1q-45 0 -59 47q0 2 -2.5 11t-4.5 24z" />
<glyph unicode="&#xe5;" horiz-adv-x="823" d="M38 296q9 -87 42 -153q74 -145 223 -149h2q39 0 83 11t88 42t86 84t77 139q12 -84 21.5 -139t9.5 -57q4 -25 24.5 -40.5t44.5 -10.5q25 4 40.5 24t11.5 47l-5 28q-4 28 -11 73t-15 102t-17 119q-10 66 -15 115t-9 85q0 12 2 19q2 35 3 66.5t-1 58.5q-2 35 -8 58.5 t-23 37.5q-16 12 -36.5 14t-37.5 -8q-27 -16 -30.5 -42.5t-3.5 -47.5q0 -16 1 -38.5t3 -51.5q2 -14 3 -30.5t5 -35.5q-4 -18 -5 -37.5t-5 -39.5q-18 -111 -50 -198t-75 -140q-66 -84 -158 -84q-74 0 -113 80q-23 49 -29.5 118.5t5.5 147.5q12 84 42 158.5t77 134.5 q23 31 55.5 59.5t73.5 50t93 29.5t116 -4q27 -4 47 10t24 39q6 25 -8 46.5t-39 25.5q-135 27 -254 -19.5t-207 -161.5q-53 -72 -90 -161.5t-53 -188.5q-14 -98 -5 -185zM270 1159q-10 59 21 115q31 59 100 80q10 4 20.5 6t20.5 2q55 0 96 -42t47 -106q6 -57 -24 -110 q-35 -57 -102 -70q-10 -2 -18.5 -3t-16.5 -1q-55 0 -94 35t-50 94zM373 1174q2 -14 10 -27.5t31 -13.5q4 0 7 1t7 1q35 8 41 33.5t4 35.5q-2 20 -13.5 38t-27.5 18q-4 0 -6 -1.5t-6 -1.5q-33 -10 -42 -36.5t-5 -46.5z" />
<glyph unicode="&#xe6;" horiz-adv-x="1308" d="M42 298q-9 87 5 185q16 98 53 187.5t90 160.5q88 115 207 162t254 21q25 -6 39.5 -26.5t7.5 -47.5q-4 -25 -25.5 -39t-45.5 -8q-63 12 -115.5 4t-93.5 -29.5t-74 -50.5t-55 -59q-47 -59 -77 -134t-42 -159q-12 -78 -5 -147.5t30 -118.5q39 -80 112 -80h2q92 0 156 84 q43 53 74.5 139t50.5 197q12 86 14 150.5t-2 86.5v2q-14 23 -8 47.5t29 36.5q16 10 36.5 9t36.5 -13l6 -6l5 4q51 68 116.5 109t137.5 51q47 6 91 -4.5t78 -32.5q78 -51 107 -158v-4q18 -121 -20 -217q-35 -94 -113 -154q-70 -55 -156 -71q-84 -18 -168 14q-23 10 -33 32.5 t1 47.5q10 23 32.5 33t46.5 0q47 -18 100.5 -7t100.5 48q53 43 76.5 108.5t11.5 143.5q-14 53 -51 79.5t-90 18.5q-47 -4 -91 -34t-79 -77q-31 -41 -60.5 -115.5t-29.5 -191.5q0 -94 23.5 -157.5t58 -102.5t74.5 -58.5t73 -27.5q78 -20 148 -4q33 8 46 17.5t15 13.5 q12 23 36.5 29.5t47.5 -3.5q23 -12 30 -36.5t-3 -47.5q-39 -68 -146 -92q-23 -6 -46 -8t-46 -2q-59 0 -111 12q-137 33 -223 142q-35 43 -57 98q-35 -78 -76 -127t-84 -77t-86 -38t-80 -10h-2q-74 0 -131 39t-92 110q-33 66 -42 153z" />
<glyph unicode="&#xe7;" horiz-adv-x="774" d="M27 481q0 225 112 373q51 66 115.5 106.5t136.5 51.5q96 12 170 -37q80 -51 105 -154q6 -25 -6.5 -46t-36.5 -30q-25 -6 -47.5 7.5t-28.5 38.5q-14 53 -51 79.5t-90 18.5q-45 -4 -89.5 -33t-78.5 -76q-31 -41 -59.5 -112.5t-28.5 -186.5q0 -82 20 -140t53 -97t73 -61.5 t79 -32.5q86 -25 170 -13q41 8 59.5 18.5t22.5 14.5q10 23 34.5 30t47.5 -5t29.5 -37t-3.5 -47q-39 -68 -155 -93q-41 -8 -93 -8q-31 0 -60.5 2t-57.5 11q-2 -16 -3 -29.5t-4 -28.5q72 -4 119 -41q53 -41 58 -106q6 -68 -47 -121q-20 -18 -58.5 -35.5t-97.5 -17.5h-22.5 t-24.5 2q-25 4 -41.5 23.5t-11.5 43.5q4 27 23.5 43.5t43.5 12.5q51 -6 74.5 3t30.5 15q10 10 8 23q0 8 -10 18q-31 23 -99 10q-27 -6 -51 15q-25 20 -20 51q2 25 4 47q2 20 3 44.5t3 51.5q0 6 4 19q-35 18 -65.5 43.5t-55.5 54.5q-102 125 -102 317z" />
<glyph unicode="&#xe8;" horiz-adv-x="743" d="M29 481q0 227 112 381q51 68 117 109t137 51q94 12 172 -37q80 -55 105 -158q2 -2 2 -4q18 -121 -21 -217q-37 -94 -112 -153q-72 -55 -156 -72q-88 -18 -168 14q-25 10 -35 33t0 47q10 23 34 34t46 1q47 -20 101.5 -9t99.5 48q55 43 77.5 108.5t12.5 143.5 q-16 53 -52 79.5t-89 18.5q-47 -4 -92.5 -33.5t-79.5 -77.5q-31 -41 -59.5 -115.5t-30.5 -191.5q0 -94 23.5 -157.5t59 -102.5t75.5 -58.5t73 -27.5q76 -20 145 -4q35 8 48.5 17.5t15.5 13.5q12 23 35.5 30t46.5 -4q23 -12 31 -36.5t-5 -47.5q-35 -68 -143 -92 q-23 -6 -46 -8t-48 -2q-55 0 -111 12q-139 35 -223 142q-100 129 -98 325zM227.5 1355.5q3.5 24.5 24.5 41.5q23 14 47.5 10t38.5 -25q35 -47 73 -88t85 -77q20 -16 22 -42t-14 -47q-18 -22 -47 -22q-20 0 -39 14q-53 43 -95 89t-83 102q-16 20 -12.5 44.5z" />
<glyph unicode="&#xe9;" horiz-adv-x="743" d="M29 481q0 227 112 381q51 68 117 109t137 51q94 12 172 -37q80 -55 105 -158q2 -2 2 -4q18 -121 -21 -217q-37 -94 -112 -153q-72 -55 -156 -72q-88 -18 -168 14q-25 10 -35 33t0 47q10 23 34 34t46 1q47 -20 101.5 -9t99.5 48q55 43 77.5 108.5t12.5 143.5 q-16 53 -52 79.5t-89 18.5q-47 -4 -92.5 -33.5t-79.5 -77.5q-31 -41 -59.5 -115.5t-30.5 -191.5q0 -94 23.5 -157.5t59 -102.5t75.5 -58.5t73 -27.5q76 -20 145 -4q35 8 48.5 17.5t15.5 13.5q12 23 35.5 30t46.5 -4q23 -12 31 -36.5t-5 -47.5q-35 -68 -143 -92 q-23 -6 -46 -8t-48 -2q-55 0 -111 12q-139 35 -223 142q-100 129 -98 325zM225.5 1174q1.5 26 22.5 43q47 37 85 77.5t73 87.5q14 20 38.5 24.5t47.5 -9.5q20 -16 24 -41t-12 -45q-41 -55 -83 -101.5t-95 -89.5q-19 -14 -39 -14q-29 0 -47 22q-16 20 -14.5 46z" />
<glyph unicode="&#xea;" horiz-adv-x="743" d="M29 481q0 227 112 381q51 68 117 109t137 51q94 12 172 -37q80 -55 105 -158q2 -2 2 -4q18 -121 -21 -217q-37 -94 -112 -153q-72 -55 -156 -72q-88 -18 -168 14q-25 10 -35 33t0 47q10 23 34 34t46 1q47 -20 101.5 -9t99.5 48q55 43 77.5 108.5t12.5 143.5 q-16 53 -52 79.5t-89 18.5q-47 -4 -92.5 -33.5t-79.5 -77.5q-31 -41 -59.5 -115.5t-30.5 -191.5q0 -94 23.5 -157.5t59 -102.5t75.5 -58.5t73 -27.5q76 -20 145 -4q35 8 48.5 17.5t15.5 13.5q12 23 35.5 30t46.5 -4q23 -12 31 -36.5t-5 -47.5q-35 -68 -143 -92 q-23 -6 -46 -8t-48 -2q-55 0 -111 12q-139 35 -223 142q-100 129 -98 325zM129.5 1149q-4.5 25 11.5 45t41 57q41 61 81 109.5t93 50.5q51 4 106.5 -52t133.5 -169l6 -8q16 -23 12 -47.5t-26 -38.5q-17 -13 -35 -13q-31 0 -51 27l-6 8q-16 23 -37 52.5t-43 56.5 q-23 27 -35 39t-21 18q-4 -4 -9 -10t-15 -17q-25 -35 -51 -73q-12 -18 -23.5 -34.5t-21.5 -31.5q-16 -20 -41 -23t-45 13t-24.5 41z" />
<glyph unicode="&#xeb;" horiz-adv-x="743" d="M29 481q0 227 112 381q51 68 117 109t137 51q94 12 172 -37q80 -55 105 -158q2 -2 2 -4q18 -121 -21 -217q-37 -94 -112 -153q-72 -55 -156 -72q-88 -18 -168 14q-25 10 -35 33t0 47q10 23 34 34t46 1q47 -20 101.5 -9t99.5 48q55 43 77.5 108.5t12.5 143.5 q-16 53 -52 79.5t-89 18.5q-47 -4 -92.5 -33.5t-79.5 -77.5q-31 -41 -59.5 -115.5t-30.5 -191.5q0 -94 23.5 -157.5t59 -102.5t75.5 -58.5t73 -27.5q76 -20 145 -4q35 8 48.5 17.5t15.5 13.5q12 23 35.5 30t46.5 -4q23 -12 31 -36.5t-5 -47.5q-35 -68 -143 -92 q-23 -6 -46 -8t-48 -2q-55 0 -111 12q-139 35 -223 142q-100 129 -98 325zM205 1178q-2 16 0 39t16 43q23 27 58 26q27 0 44 -17.5t17 -43.5q0 -23 -12 -37q0 -6 4 -14q6 -25 -7.5 -47.5t-37.5 -28.5q-4 0 -8.5 -1t-8.5 -1q-45 0 -59 47q0 2 -2 11t-4 24zM406 1178 q-2 16 0 39t16 43q23 27 57 26q27 0 44.5 -17.5t17.5 -43.5q0 -23 -13 -37q0 -6 4 -14q6 -25 -7 -47.5t-38 -28.5q-4 0 -8 -1t-8 -1q-45 0 -59 47q0 2 -2 11t-4 24z" />
<glyph unicode="&#xec;" horiz-adv-x="352" d="M14.5 1355.5q3.5 24.5 24.5 41.5q23 14 47.5 10t38.5 -25q35 -47 73 -88t85 -77q20 -16 22 -42t-14 -47q-18 -22 -47 -22q-20 0 -39 14q-53 43 -95 89t-83 102q-16 20 -12.5 44.5zM150 623q0 59 3 117.5t9 107.5q2 23 4 40t6 32q4 20 10 37.5t25 29.5q23 12 47.5 7 t38.5 -27q16 -33 0 -62q-4 -23 -12.5 -105.5t-10.5 -207.5q0 -150 13.5 -280t40.5 -226q8 -25 -5.5 -47.5t-37.5 -28.5q-5 -2 -17 -2q-20 0 -36.5 11.5t-20.5 33.5q-20 74 -32.5 154t-17.5 155.5t-6 143t-1 117.5z" />
<glyph unicode="&#xed;" horiz-adv-x="376" d="M27 623q0 59 3 117.5t9 107.5q2 23 4 40t6 32q4 20 10.5 37.5t24.5 29.5q23 12 47.5 7t38.5 -27q16 -33 0 -62q-4 -23 -12 -105.5t-11 -207.5q0 -150 13.5 -280t40.5 -226q8 -25 -5.5 -47.5t-37.5 -28.5q-5 -2 -17 -2q-20 0 -36.5 11.5t-20.5 33.5q-20 74 -32.5 154 t-17.5 155.5t-6 143t-1 117.5zM72 1174q2 26 22 43q47 37 85 77.5t73 87.5q14 20 38.5 24.5t47.5 -9.5q20 -16 24.5 -41t-12.5 -45q-41 -55 -83 -101.5t-95 -89.5q-19 -14 -39 -14q-29 0 -47 22q-16 20 -14 46z" />
<glyph unicode="&#xee;" horiz-adv-x="522" d="M18.5 1149q-4.5 25 12.5 45q16 20 41 57q41 61 81 109.5t93 50.5q51 4 106.5 -52t132.5 -169l7 -8q16 -23 12 -47.5t-27 -38.5q-17 -13 -35 -13q-31 0 -51 27l-6 8q-16 23 -36.5 52.5t-43.5 56.5t-35 39t-20 18q-4 -4 -9 -10t-16 -17q-25 -35 -51 -73 q-12 -18 -23.5 -34.5t-21.5 -31.5q-16 -20 -41 -23t-45 13t-24.5 41zM170 623q0 59 3 117.5t9 107.5q2 23 4 40t7 32q4 20 10 37.5t24 29.5q23 12 47.5 7t38.5 -27q16 -33 0 -62q-4 -23 -12 -105.5t-10 -207.5q0 -150 13 -280t40 -226q8 -25 -5 -47.5t-38 -28.5 q-4 -2 -16 -2q-20 0 -37 11.5t-21 33.5q-20 74 -32.5 154t-17.5 155.5t-6 143t-1 117.5z" />
<glyph unicode="&#xef;" horiz-adv-x="372" d="M18 1178q-2 16 0.5 39t16.5 43q23 27 57 26q27 0 44.5 -17.5t17.5 -43.5q0 -23 -13 -37q0 -6 4 -14q6 -25 -7 -47.5t-38 -28.5q-4 0 -8 -1t-8 -1q-45 0 -59 47q0 2 -2.5 11t-4.5 24zM94 623q0 59 3 117.5t9 107.5q2 23 4.5 40t6.5 32q4 20 10 37.5t25 29.5q23 12 47 7 t39 -27q16 -33 0 -62q-4 -23 -12.5 -105.5t-10.5 -207.5q0 -150 13.5 -280t39.5 -226q8 -25 -5 -47.5t-38 -28.5q-4 -2 -16 -2q-20 0 -36.5 11.5t-20.5 33.5q-20 74 -33 154t-18 155.5t-6 143t-1 117.5zM219 1178q-2 16 0.5 39t16.5 43q23 27 57 26q27 0 44 -17.5t17 -43.5 q0 -23 -12 -37q0 -6 4 -14q6 -25 -7 -47.5t-38 -28.5q-4 0 -8 -1t-8 -1q-45 0 -60 47q0 2 -2 11t-4 24z" />
<glyph unicode="&#xf0;" horiz-adv-x="776" d="M27 422q2 55 14 107.5t35 99.5q47 98 126 152.5t177 54.5h2q125 0 211 -86q-8 66 -19.5 122t-27.5 109q-8 20 -14.5 39.5t-16.5 38.5q-20 -8 -35.5 -13.5t-32 -9.5t-39 -10t-57.5 -14q-25 -8 -47 4t-31 35q-10 25 2.5 46t34.5 27q43 12 79 23.5t65 21.5q-39 47 -76 74 q-70 47 -136.5 42t-115.5 -28q-23 -10 -46.5 -0.5t-33.5 33.5q-10 23 -1 46.5t32 33.5q98 43 193.5 37t174.5 -61q35 -25 67 -57t58 -72q29 14 54.5 29.5t56.5 31.5q23 12 47.5 6t40.5 -29q14 -20 9 -43.5t-27 -35.5q-29 -16 -58.5 -33t-64.5 -33q10 -23 18 -45.5t17 -46.5 q12 -16 23 -60.5t21.5 -107t17.5 -136t10 -147t0 -140.5t-13 -116q-18 -139 -94 -223q-92 -102 -234 -102q-4 0 -10 1t-10 1q-119 6 -201 73q-76 59 -113 160q-36 90 -32 201zM150 418q-5 -84 24 -154q8 -25 24.5 -51.5t41 -48t58.5 -36.5t81 -17q4 0 7 -1t7 -1 q59 0 98 24.5t61.5 60t33 72.5t14.5 62q12 88 -10.5 176t-69.5 143q-59 66 -139 66h-2q-41 0 -73 -14.5t-55.5 -35t-39.5 -45t-25 -43.5q-33 -70 -36 -157z" />
<glyph unicode="&#xf1;" horiz-adv-x="741" d="M41 961l1 -36t3 -94.5t5 -132t5 -153.5q4 -135 6 -221t0 -138q-2 -10 -3 -20t-3 -21q-8 -61 -6 -86.5t14 -42.5q18 -25 50 -24q8 0 12 2q12 2 29.5 13t23.5 46q2 8 3 16.5t1 20.5q2 16 2 36.5v47.5q10 51 22.5 116.5t33.5 141.5q41 158 86 270.5t88 161.5q23 25 37 25 q2 2 10 -6t21.5 -31t28.5 -73t30.5 -133t27.5 -210q6 -74 9.5 -141.5t5.5 -119.5t2 -84v-32q0 -27 17.5 -44t41.5 -17h2q25 0 42.5 17.5t19.5 41.5v36t-2 87t-6.5 121.5t-10.5 144.5q-16 180 -43 299q-35 164 -102 228q-29 27 -55.5 34t-47.5 5q-70 -4 -127 -76 q-45 -53 -86 -143q-16 -35 -28.5 -70t-24.5 -72q-2 63 -4 119.5t-4 99.5t-3 69l-1 26q-2 27 -20.5 43t-43.5 16q-27 -2 -44 -20.5t-15 -42.5zM111 1171q0 45 12 97.5t59 79.5q39 20 77 11t54 -16q25 -10 51.5 -26.5t51.5 -32.5q18 -10 34.5 -20.5t32.5 -18.5q6 -4 11.5 -6 t9.5 -4q2 8 3 21.5t-1 33.5q-2 27 14.5 45.5t42.5 20.5q27 2 45.5 -15.5t20.5 -42.5q2 -43 -6.5 -95t-53.5 -79q-22 -14 -53 -14q-41 0 -83 21.5t-83 50.5q-18 12 -37.5 23.5t-38.5 19.5q-25 12 -32 12q-4 -4 -6.5 -19.5t-4.5 -46.5q0 -27 -17 -44t-42 -17h-2 q-25 0 -43 18.5t-16 42.5z" />
<glyph unicode="&#xf2;" horiz-adv-x="819" d="M32 448.5q1 61.5 11 124.5q14 86 45 164t76 137q106 145 256 146h8q141 -6 240 -135q41 -53 68.5 -123t39.5 -150q10 -63 9 -126.5t-11 -123.5q-25 -133 -100 -221q-51 -61 -121 -95t-156 -36h-12q-158 0 -252 111q-68 84 -92 211q-10 55 -9 116.5zM164 350 q16 -94 63 -149q57 -68 158 -68h8q119 4 187 86q53 63 72.5 163.5t2.5 211.5q-10 55 -29.5 108.5t-48 96.5t-67.5 69.5t-86 28.5h-4q-53 0 -93 -31.5t-65 -64.5q-74 -98 -98 -248q-16 -109 0 -203zM264 1355.5q4 24.5 25 41.5q23 14 47 10t39 -25q35 -47 72.5 -88t84.5 -77 q20 -16 22.5 -42t-13.5 -47q-18 -22 -47 -22q-20 0 -39 14q-53 43 -95.5 89t-83.5 102q-16 20 -12 44.5z" />
<glyph unicode="&#xf3;" horiz-adv-x="819" d="M32 448.5q1 61.5 11 124.5q14 86 45 164t76 137q106 145 256 146h8q141 -6 240 -135q41 -53 68.5 -123t39.5 -150q10 -63 9 -126.5t-11 -123.5q-25 -133 -100 -221q-51 -61 -121 -95t-156 -36h-12q-158 0 -252 111q-68 84 -92 211q-10 55 -9 116.5zM164 350 q16 -94 63 -149q57 -68 158 -68h8q119 4 187 86q53 63 72.5 163.5t2.5 211.5q-10 55 -29.5 108.5t-48 96.5t-67.5 69.5t-86 28.5h-4q-53 0 -93 -31.5t-65 -64.5q-74 -98 -98 -248q-16 -109 0 -203zM262 1174q2 26 23 43q47 37 85 77.5t72 87.5q14 20 39 24.5t47 -9.5 q20 -16 24.5 -41t-11.5 -45q-41 -55 -83 -101.5t-96 -89.5q-18 -14 -38 -14q-29 0 -48 22q-16 20 -14 46z" />
<glyph unicode="&#xf4;" horiz-adv-x="819" d="M32 448.5q1 61.5 11 124.5q14 86 45 164t76 137q106 145 256 146h8q141 -6 240 -135q41 -53 68.5 -123t39.5 -150q10 -63 9 -126.5t-11 -123.5q-25 -133 -100 -221q-51 -61 -121 -95t-156 -36h-12q-158 0 -252 111q-68 84 -92 211q-10 55 -9 116.5zM164 350 q16 -94 63 -149q57 -68 158 -68h8q119 4 187 86q53 63 72.5 163.5t2.5 211.5q-10 55 -29.5 108.5t-48 96.5t-67.5 69.5t-86 28.5h-4q-53 0 -93 -31.5t-65 -64.5q-74 -98 -98 -248q-16 -109 0 -203zM166 1149q-4 25 12 45t41 57q41 61 81 109.5t93 50.5q51 4 106.5 -52 t133.5 -169l6 -8q16 -23 12 -47.5t-26 -38.5q-17 -13 -35 -13q-31 0 -51 27l-7 8q-16 23 -36.5 52.5t-42.5 56.5q-23 27 -35 39t-21 18q-4 -4 -9 -10t-15 -17q-25 -35 -51 -73q-12 -18 -23.5 -34.5t-22.5 -31.5q-16 -20 -40.5 -23t-45.5 13q-20 16 -24 41z" />
<glyph unicode="&#xf5;" horiz-adv-x="819" d="M32 448.5q1 61.5 11 124.5q14 86 45 164t76 137q106 145 256 146h8q141 -6 240 -135q41 -53 68.5 -123t39.5 -150q10 -63 9 -126.5t-11 -123.5q-25 -133 -100 -221q-51 -61 -121 -95t-156 -36h-12q-158 0 -252 111q-68 84 -92 211q-10 55 -9 116.5zM150 1171 q0 45 12 97.5t59 79.5q39 20 77 11t54 -16q25 -10 51.5 -26.5t51.5 -32.5q18 -10 34.5 -20.5t32.5 -18.5q6 -4 11.5 -6t9.5 -4q2 8 3 21.5t-1 33.5q-2 27 14 45.5t43 20.5t45.5 -15.5t20.5 -42.5q2 -43 -6.5 -95t-53.5 -79q-22 -14 -53 -14q-41 0 -83 21.5t-83 50.5 q-18 12 -37.5 23.5t-38.5 19.5q-25 12 -32 12q-4 -4 -6.5 -19.5t-4.5 -46.5q0 -27 -17 -44t-42 -17h-2q-25 0 -43.5 18.5t-15.5 42.5zM164 350q16 -94 63 -149q57 -68 158 -68h8q119 4 187 86q53 63 72.5 163.5t2.5 211.5q-10 55 -29.5 108.5t-48 96.5t-67.5 69.5t-86 28.5 h-4q-53 0 -93 -31.5t-65 -64.5q-74 -98 -98 -248q-16 -109 0 -203z" />
<glyph unicode="&#xf6;" horiz-adv-x="819" d="M32 448.5q1 61.5 11 124.5q14 86 45 164t76 137q106 145 256 146h8q141 -6 240 -135q41 -53 68.5 -123t39.5 -150q10 -63 9 -126.5t-11 -123.5q-25 -133 -100 -221q-51 -61 -121 -95t-156 -36h-12q-158 0 -252 111q-68 84 -92 211q-10 55 -9 116.5zM164 350 q16 -94 63 -149q57 -68 158 -68h8q119 4 187 86q53 63 72.5 163.5t2.5 211.5q-10 55 -29.5 108.5t-48 96.5t-67.5 69.5t-86 28.5h-4q-53 0 -93 -31.5t-65 -64.5q-74 -98 -98 -248q-16 -109 0 -203zM242 1178q-2 16 0 39t16 43q23 27 57 26q27 0 44.5 -17.5t17.5 -43.5 q0 -23 -12 -37q0 -6 4 -14q6 -25 -7.5 -47.5t-37.5 -28.5q-4 0 -8.5 -1t-8.5 -1q-45 0 -59 47q0 2 -2 11t-4 24zM442 1178q-2 16 0.5 39t16.5 43q23 27 57 26q27 0 44.5 -17.5t17.5 -43.5q0 -23 -13 -37q0 -6 4 -14q6 -25 -7 -47.5t-38 -28.5q-4 0 -8 -1t-8 -1q-45 0 -59 47 q0 2 -2.5 11t-4.5 24z" />
<glyph unicode="&#xf7;" horiz-adv-x="870" d="M10 668q4 27 23.5 42t44.5 11q82 -10 188.5 -13t209 -1t189.5 6t130 10q25 2 44 -13.5t23 -41.5q4 -25 -12 -44.5t-41 -23.5q-27 -4 -83 -6t-120.5 -5t-126 -4t-96.5 -1q-29 0 -68 1t-82 2t-87 4t-83 9q-27 4 -42 23.5t-11 44.5zM358 332q-2 16 0.5 39t16.5 43 q23 27 57 26q35 0 50.5 -27.5t13.5 -61.5t-16.5 -63.5t-39.5 -35.5q-4 0 -8 -1t-8 -1q-45 0 -59 47q0 2 -2.5 11t-4.5 24zM358 913q-2 16 0.5 39t16.5 43q23 27 57 27q35 0 50.5 -27.5t13.5 -61.5t-16.5 -63.5t-39.5 -35.5q-4 0 -8 -1.5t-8 -1.5q-45 0 -59 48q0 2 -2.5 11 t-4.5 23z" />
<glyph unicode="&#xf8;" horiz-adv-x="819" d="M32 448.5q1 61.5 11 124.5q14 86 45 164t76 137q106 145 256 146h8q18 -2 37.5 -4t38.5 -8q23 27 63 16q23 -8 34 -30.5t5 -45.5q16 -14 30.5 -29.5t31.5 -33.5q41 -53 68.5 -123t39.5 -150q10 -63 9 -126.5t-11 -123.5q-25 -133 -100 -221q-51 -61 -121 -95t-156 -36 h-12q-57 0 -100 15q-18 -29 -54 -29q-14 0 -28 6q-23 10 -31 33.5t2 44.5q-23 18 -41 41q-68 84 -92 211q-10 55 -9 116.5zM164 350q16 -94 63 -149q0 -2 2 -2q29 70 58.5 154.5t59.5 174.5t58.5 182.5t55.5 180.5q-18 6 -37 6h-4q-53 0 -93 -31.5t-65 -64.5 q-74 -98 -98 -248q-16 -109 0 -203zM336 137q12 -4 23.5 -4h25.5h8q119 4 187 86q53 63 72.5 163.5t2.5 211.5q-10 59 -32.5 118.5t-57.5 102.5q-27 -86 -54.5 -177t-57 -179t-59 -170t-58.5 -152z" />
<glyph unicode="&#xf9;" d="M39 596q-2 74 0 141.5t5 119.5t5 84t2 34q4 27 23.5 43t44.5 12q27 -2 43 -21.5t12 -43.5l-2 -31t-5 -82t-5 -116.5t0 -137.5q2 -121 12 -203t24.5 -135t29 -81.5t26.5 -41.5q12 -12 21.5 -15t17.5 -3q31 0 72 47q47 57 88 170t71 270q10 43 16.5 84t10.5 78v61 q-2 37 -1 64t1 47q2 29 7 53.5t28 40.5q29 18 63 2q29 -14 34 -43.5t5 -52.5q2 -20 0 -47t-6 -59q-2 -18 -3 -36t-5 -36q2 -51 5 -117.5t7 -157.5q2 -80 6 -154.5t7 -133t5 -93.5l3 -36q2 -27 -14.5 -45.5t-43.5 -20.5q-25 -2 -43 14.5t-20 42.5q0 2 -5.5 71t-9.5 173 q-12 -35 -25.5 -65.5t-27.5 -59.5q-92 -180 -223 -184h-4q-74 0 -127 57q-117 125 -125 543zM227.5 1355.5q3.5 24.5 24.5 41.5q23 14 47.5 10t38.5 -25q35 -47 73 -88t85 -77q20 -16 22 -42t-14 -47q-18 -22 -47 -22q-20 0 -39 14q-53 43 -95 89t-83 102q-16 20 -12.5 44.5 z" />
<glyph unicode="&#xfa;" d="M39 596q-2 74 0 141.5t5 119.5t5 84t2 34q4 27 23.5 43t44.5 12q27 -2 43 -21.5t12 -43.5l-2 -31t-5 -82t-5 -116.5t0 -137.5q2 -121 12 -203t24.5 -135t29 -81.5t26.5 -41.5q12 -12 21.5 -15t17.5 -3q31 0 72 47q47 57 88 170t71 270q10 43 16.5 84t10.5 78v61 q-2 37 -1 64t1 47q2 29 7 53.5t28 40.5q29 18 63 2q29 -14 34 -43.5t5 -52.5q2 -20 0 -47t-6 -59q-2 -18 -3 -36t-5 -36q2 -51 5 -117.5t7 -157.5q2 -80 6 -154.5t7 -133t5 -93.5l3 -36q2 -27 -14.5 -45.5t-43.5 -20.5q-25 -2 -43 14.5t-20 42.5q0 2 -5.5 71t-9.5 173 q-12 -35 -25.5 -65.5t-27.5 -59.5q-92 -180 -223 -184h-4q-74 0 -127 57q-117 125 -125 543zM225.5 1174q1.5 26 22.5 43q47 37 85 77.5t73 87.5q14 20 38.5 24.5t47.5 -9.5q20 -16 24 -41t-12 -45q-41 -55 -83 -101.5t-95 -89.5q-19 -14 -39 -14q-29 0 -47 22 q-16 20 -14.5 46z" />
<glyph unicode="&#xfb;" d="M39 596q-2 74 0 141.5t5 119.5t5 84t2 34q4 27 23.5 43t44.5 12q27 -2 43 -21.5t12 -43.5l-2 -31t-5 -82t-5 -116.5t0 -137.5q2 -121 12 -203t24.5 -135t29 -81.5t26.5 -41.5q12 -12 21.5 -15t17.5 -3q31 0 72 47q47 57 88 170t71 270q10 43 16.5 84t10.5 78v61 q-2 37 -1 64t1 47q2 29 7 53.5t28 40.5q29 18 63 2q29 -14 34 -43.5t5 -52.5q2 -20 0 -47t-6 -59q-2 -18 -3 -36t-5 -36q2 -51 5 -117.5t7 -157.5q2 -80 6 -154.5t7 -133t5 -93.5l3 -36q2 -27 -14.5 -45.5t-43.5 -20.5q-25 -2 -43 14.5t-20 42.5q0 2 -5.5 71t-9.5 173 q-12 -35 -25.5 -65.5t-27.5 -59.5q-92 -180 -223 -184h-4q-74 0 -127 57q-117 125 -125 543zM129.5 1149q-4.5 25 11.5 45t41 57q41 61 81 109.5t93 50.5q51 4 106.5 -52t133.5 -169l6 -8q16 -23 12 -47.5t-26 -38.5q-17 -13 -35 -13q-31 0 -51 27l-6 8q-16 23 -37 52.5 t-43 56.5q-23 27 -35 39t-21 18q-4 -4 -9 -10t-15 -17q-25 -35 -51 -73q-12 -18 -23.5 -34.5t-21.5 -31.5q-16 -20 -41 -23t-45 13t-24.5 41z" />
<glyph unicode="&#xfc;" d="M39 596q-2 74 0 141.5t5 119.5t5 84t2 34q4 27 23.5 43t44.5 12q27 -2 43 -21.5t12 -43.5l-2 -31t-5 -82t-5 -116.5t0 -137.5q2 -121 12 -203t24.5 -135t29 -81.5t26.5 -41.5q12 -12 21.5 -15t17.5 -3q31 0 72 47q47 57 88 170t71 270q10 43 16.5 84t10.5 78v61 q-2 37 -1 64t1 47q2 29 7 53.5t28 40.5q29 18 63 2q29 -14 34 -43.5t5 -52.5q2 -20 0 -47t-6 -59q-2 -18 -3 -36t-5 -36q2 -51 5 -117.5t7 -157.5q2 -80 6 -154.5t7 -133t5 -93.5l3 -36q2 -27 -14.5 -45.5t-43.5 -20.5q-25 -2 -43 14.5t-20 42.5q0 2 -5.5 71t-9.5 173 q-12 -35 -25.5 -65.5t-27.5 -59.5q-92 -180 -223 -184h-4q-74 0 -127 57q-117 125 -125 543zM205 1178q-2 16 0 39t16 43q23 27 58 26q27 0 44 -17.5t17 -43.5q0 -23 -12 -37q0 -6 4 -14q6 -25 -7.5 -47.5t-37.5 -28.5q-4 0 -8.5 -1t-8.5 -1q-45 0 -59 47q0 2 -2 11t-4 24z M406 1178q-2 16 0 39t16 43q23 27 57 26q27 0 44.5 -17.5t17.5 -43.5q0 -23 -13 -37q0 -6 4 -14q6 -25 -7 -47.5t-38 -28.5q-4 0 -8 -1t-8 -1q-45 0 -59 47q0 2 -2 11t-4 24z" />
<glyph unicode="&#xfd;" d="M17 746.5q1 66.5 4.5 117.5t5.5 82t2 33q2 27 21.5 43t43.5 14q27 -4 43.5 -22.5t14.5 -44.5l-4 -30q-3 -30 -5 -80t-3 -114.5t1 -136.5q4 -119 15.5 -201.5t27 -136t30.5 -83t28 -44.5q16 -18 28.5 -22t22.5 -4q31 -2 67 41q47 53 91.5 165.5t78.5 266.5q10 47 19.5 92 t13.5 84v90q0 29 1 49.5t3 36.5q0 14 4 31q6 29 24.5 41t37.5 14q37 0 57 -33q8 -12 12.5 -38.5t-4.5 -102.5q-2 -43 -12 -96q2 -41 2 -87t2 -89q2 -145 3 -313.5t-3 -319.5q-4 -121 -10 -201t-15.5 -130t-19.5 -76.5t-20 -41.5q-21 -26 -52 -26q-18 0 -34 10 q-23 16 -27 39.5t10 46.5q4 4 11.5 28.5t17.5 96.5q6 47 10 112.5t6 145.5q4 78 4 165t-2 173q-29 -78 -65 -141q-92 -156 -211 -156h-4q-78 0 -139 67q-70 80 -101 244q-25 125 -31 301q-2 74 -1 140.5zM225.5 1174q1.5 26 22.5 43q47 37 85 77.5t73 87.5q14 20 38.5 24.5 t47.5 -9.5q20 -16 24 -41t-12 -45q-41 -55 -83 -101.5t-95 -89.5q-19 -14 -39 -14q-29 0 -47 22q-16 20 -14.5 46z" />
<glyph unicode="&#xfe;" horiz-adv-x="712" d="M45 164.5q0 152.5 2 307.5t6 319q2 135 4 275t4 294q0 27 17.5 44t44.5 17q25 0 43 -18.5t18 -44.5q-2 -119 -3 -228.5t-3 -216.5q104 61 195 86q131 35 217 -12q59 -33 91 -94.5t32 -147.5q-2 -92 -39 -193t-103 -200q-53 -76 -147 -172t-246 -172q-4 -2 -5 -2t-5 -2 q0 -111 2 -221.5t6 -226.5q2 -25 -15.5 -43.5t-43.5 -20.5h-2q-25 0 -42.5 17.5t-19.5 41.5q-6 158 -7 309.5t-1 304zM168 143q115 66 187.5 141.5t113.5 137.5q57 82 88 166.5t33 156.5q0 14 -2 34t-8.5 38.5t-17.5 34.5t-30 27q-43 25 -126 2q-98 -25 -232 -115 q-2 -164 -4 -317.5t-2 -305.5z" />
<glyph unicode="&#xff;" d="M17 746.5q1 66.5 4.5 117.5t5.5 82t2 33q2 27 21.5 43t43.5 14q27 -4 43.5 -22.5t14.5 -44.5l-4 -30q-3 -30 -5 -80t-3 -114.5t1 -136.5q4 -119 15.5 -201.5t27 -136t30.5 -83t28 -44.5q16 -18 28.5 -22t22.5 -4q31 -2 67 41q47 53 91.5 165.5t78.5 266.5q10 47 19.5 92 t13.5 84v90q0 29 1 49.5t3 36.5q0 14 4 31q6 29 24.5 41t37.5 14q37 0 57 -33q8 -12 12.5 -38.5t-4.5 -102.5q-2 -43 -12 -96q2 -41 2 -87t2 -89q2 -145 3 -313.5t-3 -319.5q-4 -121 -10 -201t-15.5 -130t-19.5 -76.5t-20 -41.5q-21 -26 -52 -26q-18 0 -34 10 q-23 16 -27 39.5t10 46.5q4 4 11.5 28.5t17.5 96.5q6 47 10 112.5t6 145.5q4 78 4 165t-2 173q-29 -78 -65 -141q-92 -156 -211 -156h-4q-78 0 -139 67q-70 80 -101 244q-25 125 -31 301q-2 74 -1 140.5zM205 1178q-2 16 0 39t16 43q23 27 58 26q27 0 44 -17.5t17 -43.5 q0 -23 -12 -37q0 -6 4 -14q6 -25 -7.5 -47.5t-37.5 -28.5q-4 0 -8.5 -1t-8.5 -1q-45 0 -59 47q0 2 -2 11t-4 24zM406 1178q-2 16 0 39t16 43q23 27 57 26q27 0 44.5 -17.5t17.5 -43.5q0 -23 -13 -37q0 -6 4 -14q6 -25 -7 -47.5t-38 -28.5q-4 0 -8 -1t-8 -1q-45 0 -59 47 q0 2 -2 11t-4 24z" />
<glyph unicode="&#x152;" horiz-adv-x="1361" d="M51.5 594q-8.5 162 28.5 319q37 168 117 287q90 135 217 195q92 41 174 26q53 -8 108 -41q25 20 56.5 26.5t48.5 10.5q68 8 184 13q47 0 92 -1.5t80 -3.5t57.5 -3t24.5 -1q27 -2 43 -20.5t14 -44.5q-2 -25 -20.5 -42.5t-44.5 -15.5q-31 2 -66 5q-29 2 -66.5 2t-78.5 2 q-111 0 -163 -6.5t-71 -10.5q0 -29 -2 -85t-3 -131t-2 -165t-1 -184v-57q55 -2 116.5 -2t120 1t109 5t78.5 10q27 6 48.5 -7t27.5 -38t-7.5 -46.5t-37.5 -27.5q-53 -12 -140 -16t-180 -4h-133q0 -123 6 -215q2 -43 4.5 -76t4.5 -55q2 -4 2 -15q2 -20 4 -32.5t4 -18.5 q18 -4 72.5 -7t173.5 3q43 2 83 4t70.5 4t49.5 4l18 2q25 4 44 -13t21 -42q4 -27 -13 -45t-42 -23q-4 0 -73.5 -5t-161.5 -9q-37 -2 -68 -3t-55 -1q-98 0 -138.5 9t-58.5 20q-20 12 -31 39q-27 -16 -55.5 -29.5t-58.5 -22.5q-59 -18 -113 -18q-104 0 -186 57 q-111 74 -174 244q-49 133 -57.5 295zM174 602.5q6 -145.5 49 -262.5q18 -47 45 -92t66 -78t91 -45t122 8q72 23 125 72q-2 16 -3 33.5t-3 37.5q-2 35 -4.5 112t-3.5 173t-2 202.5t-1 203t2 172t7 112.5q-2 2 -4.5 3t-4.5 3q-84 72 -190 27q-94 -43 -163 -146.5t-103 -250.5 q-31 -139 -25 -284.5z" />
<glyph unicode="&#x153;" horiz-adv-x="1226" d="M41 487q6 90 31.5 174t66.5 156q57 96 133 145.5t162 45.5q127 -4 219 -111q98 104 224 121q96 12 170 -37q78 -53 106 -156v-6q18 -119 -20 -217q-35 -92 -113 -153q-70 -55 -156 -72q-43 -8 -86 -5t-82 19q-23 10 -33 34t1 46q10 25 32.5 35t46.5 0q47 -18 100.5 -8 t100.5 47q53 43 76.5 108.5t11.5 143.5q-29 113 -141 100q-47 -6 -91 -34.5t-79 -76.5q-31 -41 -60.5 -115.5t-29.5 -191.5q0 -96 23.5 -158.5t58.5 -102.5t74.5 -59.5t72.5 -27.5q37 -10 75 -10t73 8q33 8 46 17.5t15 13.5q12 23 36.5 29.5t47.5 -5.5t30 -35.5t-5 -46.5 q-35 -68 -144 -94q-47 -10 -94 -10q-27 0 -54.5 3t-54.5 11q-100 25 -176 90q-98 -98 -252 -104h-12q-94 0 -168 43q-70 39 -119 119q-39 66 -55 149.5t-8 177.5zM164 479q-12 -158 47 -256q59 -104 188 -102q109 2 179 76q-70 115 -70 282q0 180 72 314q-23 31 -60 60.5 t-90 31.5q-35 2 -63.5 -11.5t-52 -34t-41 -44t-27.5 -41.5q-35 -57 -56.5 -129t-25.5 -146z" />
<glyph unicode="&#x178;" horiz-adv-x="862" d="M39 1348l19.5 -58.5t46 -130.5t64.5 -175t75 -194.5t81 -186.5t78 -150q-31 -78 -57.5 -145.5t-45.5 -118t-32 -79.5l-12 -28q-10 -25 0 -48.5t33 -33.5q16 -4 24 -4q16 0 32.5 10t23.5 29q4 10 34.5 87t76.5 194.5t101.5 261t105.5 286t91 271.5t60 215q6 27 -8 48 t-39 25t-46.5 -9t-25.5 -38q-14 -63 -41 -152t-61.5 -191.5t-75.5 -213t-80 -215.5q-35 68 -71 153t-69.5 171t-63.5 167t-52.5 145.5t-35.5 103t-13 40.5q-8 25 -31 37.5t-47 1.5q-23 -8 -35 -30.5t-4 -44.5zM264 1587q-2 16 0.5 39t16.5 43q23 27 57 27q27 0 44 -17.5 t17 -44.5q0 -23 -12 -37q0 -6 4 -14q6 -25 -7 -47.5t-38 -28.5q-4 0 -8 -1t-8 -1q-45 0 -60 47q0 2 -2 11.5t-4 23.5zM465 1587q-2 16 0 39t16 43q23 27 58 27q27 0 44 -17.5t17 -44.5q0 -23 -12 -37q0 -6 4 -14q6 -25 -7.5 -47.5t-37.5 -28.5q-4 0 -8 -1t-9 -1 q-45 0 -59 47q0 2 -2 11.5t-4 23.5z" />
<glyph unicode="&#x2c6;" horiz-adv-x="544" d="M31 1149q-4 25 12 45t41 57q41 61 81 109.5t93 50.5q51 4 106.5 -52t133.5 -169l6 -8q16 -23 12 -47.5t-27 -38.5q-16 -13 -34 -13q-31 0 -52 27l-6 8q-16 23 -36.5 52.5t-43.5 56.5t-35 39t-20 18q-4 -4 -9 -10t-15 -17q-25 -35 -52 -73l-23 -34.5t-22 -31.5 q-16 -20 -40.5 -23t-45.5 13q-20 16 -24 41z" />
<glyph unicode="&#x2dc;" horiz-adv-x="587" d="M43 1171q0 45 12.5 97.5t59.5 79.5q39 20 76.5 11t54.5 -16q25 -10 51.5 -26.5t50.5 -32.5q18 -10 34.5 -20.5t33.5 -18.5q6 -4 11 -6t9 -4q2 8 3 21.5t-1 33.5q-2 27 14.5 45.5t43.5 20.5t45 -15.5t20 -42.5q2 -43 -6 -95t-53 -79q-22 -14 -53 -14q-41 0 -83 21.5 t-83 50.5q-18 12 -38 23.5t-38 19.5q-25 12 -33 12q-4 -4 -6 -19.5t-4 -46.5q0 -27 -17.5 -44t-42.5 -17h-2q-25 0 -43 18.5t-16 42.5z" />
<glyph unicode="&#x2000;" horiz-adv-x="910" />
<glyph unicode="&#x2001;" horiz-adv-x="1821" />
<glyph unicode="&#x2002;" horiz-adv-x="910" />
<glyph unicode="&#x2003;" horiz-adv-x="1821" />
<glyph unicode="&#x2004;" horiz-adv-x="607" />
<glyph unicode="&#x2005;" horiz-adv-x="455" />
<glyph unicode="&#x2006;" horiz-adv-x="303" />
<glyph unicode="&#x2007;" horiz-adv-x="303" />
<glyph unicode="&#x2008;" horiz-adv-x="227" />
<glyph unicode="&#x2009;" horiz-adv-x="364" />
<glyph unicode="&#x200a;" horiz-adv-x="101" />
<glyph unicode="&#x2010;" horiz-adv-x="612" d="M37 571q4 27 23.5 42.5t43.5 11.5q82 -10 139.5 -13.5t100.5 -3.5t81 4t81 11q25 2 44 -13.5t23 -42.5q4 -25 -12 -44t-41 -23q-53 -6 -110 -10.5t-127 -4.5q-29 0 -48.5 1t-38 3.5t-43 5.5t-63.5 9q-27 4 -42 23.5t-11 43.5z" />
<glyph unicode="&#x2011;" horiz-adv-x="612" d="M37 571q4 27 23.5 42.5t43.5 11.5q82 -10 139.5 -13.5t100.5 -3.5t81 4t81 11q25 2 44 -13.5t23 -42.5q4 -25 -12 -44t-41 -23q-53 -6 -110 -10.5t-127 -4.5q-29 0 -48.5 1t-38 3.5t-43 5.5t-63.5 9q-27 4 -42 23.5t-11 43.5z" />
<glyph unicode="&#x2012;" horiz-adv-x="612" d="M37 571q4 27 23.5 42.5t43.5 11.5q82 -10 139.5 -13.5t100.5 -3.5t81 4t81 11q25 2 44 -13.5t23 -42.5q4 -25 -12 -44t-41 -23q-53 -6 -110 -10.5t-127 -4.5q-29 0 -48.5 1t-38 3.5t-43 5.5t-63.5 9q-27 4 -42 23.5t-11 43.5z" />
<glyph unicode="&#x2013;" horiz-adv-x="1097" d="M38 571q7 27 44.5 42.5t82.5 11.5q156 -10 265.5 -13.5t191.5 -3.5t154.5 4t154.5 11q47 2 83.5 -13.5t43.5 -42.5q8 -25 -22.5 -44t-77.5 -23q-101 -6 -210 -10.5t-242 -4.5q-55 0 -92 1t-72.5 3.5t-82 5.5t-120.5 9q-52 4 -80.5 23.5t-20.5 43.5z" />
<glyph unicode="&#x2014;" horiz-adv-x="2122" d="M39 571q15 27 89.5 42.5t165.5 11.5q313 -10 532 -13.5t382.5 -3.5t308.5 4t309 11q95 2 167.5 -13.5t87.5 -42.5q15 -25 -46 -44t-156 -23q-202 -6 -419 -10.5t-484 -4.5q-110 0 -184.5 1t-145 3.5t-163.5 5.5t-242 9q-103 4 -160 23.5t-42 43.5z" />
<glyph unicode="&#x2018;" horiz-adv-x="278" d="M27 1080.5q2 35.5 10 70.5q20 82 80 141q18 18 43 19q23 0 43 -17q18 -18 18 -43.5t-16 -44.5q-37 -37 -47.5 -79t-7.5 -76v-9q78 -27 96 -102q8 -35 -1 -65.5t-34 -47.5q-20 -16 -46 -16t-48 14q-41 25 -61.5 80.5t-26.5 102.5q-4 37 -2 72.5z" />
<glyph unicode="&#x2019;" horiz-adv-x="280" d="M33 1178q-8 35 1 65.5t34 46.5q20 16 45.5 16.5t48.5 -14.5q41 -25 61.5 -80t26.5 -102q4 -37 2 -73t-10 -70q-23 -84 -80 -142q-18 -18 -43 -18q-23 0 -43 16q-18 18 -18.5 44t16.5 44q37 37 47 79t8 77v8q-78 27 -96 103z" />
<glyph unicode="&#x201a;" horiz-adv-x="280" d="M33 162q-8 35 1 65.5t34 46.5q20 16 45.5 16.5t48.5 -14.5q41 -25 61.5 -80t26.5 -102q4 -37 2 -72.5t-10 -70.5q-23 -84 -80 -141q-18 -18 -43 -19q-23 0 -43 16q-18 18 -18.5 44t16.5 45q37 37 47 78.5t8 76.5v8q-78 27 -96 103z" />
<glyph unicode="&#x201c;" horiz-adv-x="563" d="M37 1080.5q2 35.5 10 70.5q20 82 80 141q18 18 43 19q23 0 43 -17q18 -18 18 -43.5t-16 -44.5q-37 -37 -47 -79t-8 -76v-9q78 -27 96 -102q8 -35 -1 -65.5t-34 -47.5q-20 -16 -45.5 -16t-48.5 14q-41 25 -61.5 80.5t-26.5 102.5q-4 37 -2 72.5zM303 1080.5 q2 35.5 10 70.5q20 82 80 141q18 18 43 19q23 0 43 -17q18 -18 18.5 -43.5t-16.5 -44.5q-37 -37 -47 -79t-8 -76v-9q78 -27 96 -102q8 -35 -1 -65.5t-34 -47.5q-20 -16 -45.5 -16t-48.5 14q-41 25 -61.5 80.5t-26.5 102.5q-4 37 -2 72.5z" />
<glyph unicode="&#x201d;" horiz-adv-x="565" d="M43 1178q-8 35 1 65.5t34 46.5q20 16 46 16.5t48 -14.5q41 -25 61.5 -80t26.5 -102q4 -37 2 -73t-10 -70q-23 -84 -80 -142q-18 -18 -43 -18q-23 0 -43 16q-18 18 -18 44t16 44q37 37 47 79t8 77v8q-78 27 -96 103zM309 1178q-8 35 1 65.5t34 46.5q20 16 46 16.5 t48 -14.5q41 -25 61.5 -80t26.5 -102q4 -37 2 -73t-10 -70q-23 -84 -80 -142q-18 -18 -43 -18q-23 0 -43 16q-18 18 -18 44t16 44q37 37 47.5 79t8.5 77v8q-78 27 -97 103z" />
<glyph unicode="&#x201e;" horiz-adv-x="565" d="M43 162q-8 35 1 65.5t34 46.5q20 16 46 16.5t48 -14.5q41 -25 61.5 -80t26.5 -102q4 -37 2 -72.5t-10 -70.5q-23 -84 -80 -141q-18 -18 -43 -19q-23 0 -43 16q-18 18 -18 44t16 45q37 37 47 78.5t8 76.5v8q-78 27 -96 103zM309 162q-8 35 1 65.5t34 46.5q20 16 46 16.5 t48 -14.5q41 -25 61.5 -80t26.5 -102q4 -37 2 -72.5t-10 -70.5q-23 -84 -80 -141q-18 -18 -43 -19q-23 0 -43 16q-18 18 -18 44t16 45q37 37 47.5 78.5t8.5 76.5v8q-78 27 -97 103z" />
<glyph unicode="&#x2022;" horiz-adv-x="348" d="M33 621q-4 35 1 83t34 89q23 27 54.5 42t65.5 15q55 0 92 -38t37 -91q0 -49 -26 -78q0 -16 10 -31q12 -53 -15.5 -99t-80.5 -60q-10 0 -17.5 -2t-17.5 -2q-41 0 -76 26.5t-49 71.5q0 4 -4 24.5t-8 49.5z" />
<glyph unicode="&#x202f;" horiz-adv-x="364" />
<glyph unicode="&#x205f;" horiz-adv-x="455" />
<glyph unicode="&#x20ac;" horiz-adv-x="929" d="M31 594q4 27 23.5 42t43.5 11q166 -20 293 -9t215 21q25 2 47.5 -13t26.5 -42q4 -25 -12.5 -44t-40.5 -23q-27 -4 -65 -6.5t-81 -5.5t-86 -4t-78 -1q-29 0 -54 -1t-52 -1t-57.5 1t-69.5 7q-27 4 -42 23.5t-11 44.5zM41 932q4 27 23.5 42t44.5 11q166 -20 281.5 -14 t203.5 16q25 2 44 -13.5t24 -41.5q4 -25 -12.5 -44.5t-41.5 -23.5q-53 -6 -137 -10t-154 -4h-53t-49 2t-53.5 4t-67.5 8q-27 4 -42 23.5t-11 44.5zM139 612q12 180 51 331t103 263q63 104 135 162q80 61 162 62q113 4 188 -99q35 -47 56.5 -112.5t29.5 -147.5q4 -27 -12 -46 t-41 -21q-27 -4 -46.5 12t-21.5 41q-10 84 -28.5 131t-36.5 69q-39 51 -86 50q-47 0 -97.5 -43t-95.5 -119q-41 -70 -82 -201t-55 -340q-16 -252 47 -381q43 -94 123 -102q49 -6 103.5 17.5t101.5 67.5t82 101.5t47 118.5q4 25 25.5 39t46.5 10q27 -4 40 -25.5t9 -46.5 q-16 -80 -60.5 -156.5t-111.5 -135.5q-63 -55 -130.5 -84t-133.5 -29h-17.5t-17.5 2q-25 2 -53.5 11t-57.5 28.5t-56.5 51.5t-49.5 79q-39 78 -53.5 189.5t-6.5 252.5z" />
<glyph unicode="&#x25fc;" horiz-adv-x="1034" d="M0 0v1034h1034v-1034h-1034z" />
</font>
</defs>
</svg>
